G04 Layer: BottomLayer*
G04 EasyEDA v6.4.25, 2021-11-15T20:25:19--5:00*
G04 f133b9dff01e4a4db271285c1a4d3a4a,c6d70c2b7c21449b8329efc8d1611fca,10*
G04 Gerber Generator version 0.2*
G04 Scale: 100 percent, Rotated: No, Reflected: No *
G04 Dimensions in inches *
G04 leading zeros omitted , absolute positions ,3 integer and 6 decimal *
%FSLAX36Y36*%
%MOIN*%

%ADD10C,0.0100*%
%ADD11C,0.0300*%
%ADD15C,0.0240*%
%ADD16C,0.0360*%
%ADD28C,0.0472*%
%ADD29C,0.0709*%
%ADD31C,0.0620*%
%ADD32C,0.0906*%
%ADD33C,0.0600*%
%ADD34C,0.1500*%
%ADD35C,0.0440*%
%ADD36R,0.0590X0.0590*%
%ADD37C,0.0590*%
%ADD38R,0.0740X0.0740*%
%ADD39C,0.0740*%
%ADD40C,0.0500*%

%LPD*%
G36*
X2500240Y-289800D02*
G01*
X2489880Y-289420D01*
X2479960Y-288340D01*
X2470140Y-286560D01*
X2460480Y-284080D01*
X2451020Y-280920D01*
X2441800Y-277100D01*
X2432880Y-272620D01*
X2424300Y-267520D01*
X2416120Y-261820D01*
X2408360Y-255560D01*
X2401060Y-248740D01*
X2394260Y-241439D01*
X2388000Y-233660D01*
X2382320Y-225460D01*
X2377240Y-216860D01*
X2372780Y-207940D01*
X2368980Y-198720D01*
X2365840Y-189240D01*
X2363380Y-179579D01*
X2361620Y-169760D01*
X2360560Y-159840D01*
X2360200Y-149760D01*
X2360200Y299940D01*
X2359760Y311840D01*
X2358500Y323220D01*
X2356440Y334460D01*
X2353580Y345540D01*
X2349940Y356380D01*
X2345540Y366920D01*
X2340400Y377140D01*
X2334540Y386960D01*
X2327980Y396340D01*
X2320800Y405220D01*
X2312980Y413560D01*
X2304580Y421340D01*
X2295660Y428480D01*
X2286260Y434980D01*
X2276400Y440800D01*
X2266160Y445880D01*
X2255580Y450240D01*
X2244740Y453820D01*
X2233640Y456620D01*
X2222380Y458620D01*
X2211020Y459820D01*
X2199940Y460200D01*
X1950240Y460200D01*
X1939880Y460580D01*
X1929960Y461659D01*
X1920140Y463440D01*
X1910480Y465920D01*
X1901020Y469080D01*
X1891800Y472900D01*
X1882880Y477380D01*
X1874300Y482480D01*
X1866120Y488180D01*
X1858360Y494440D01*
X1851060Y501260D01*
X1844259Y508560D01*
X1838000Y516340D01*
X1832320Y524540D01*
X1827240Y533140D01*
X1822780Y542060D01*
X1818980Y551280D01*
X1815840Y560760D01*
X1813380Y570420D01*
X1811620Y580240D01*
X1810560Y590160D01*
X1810200Y600240D01*
X1810200Y649940D01*
X1809760Y661840D01*
X1808500Y673220D01*
X1806440Y684460D01*
X1803580Y695540D01*
X1799940Y706380D01*
X1795540Y716919D01*
X1790400Y727140D01*
X1784540Y736960D01*
X1777980Y746340D01*
X1770800Y755220D01*
X1762980Y763560D01*
X1754580Y771340D01*
X1745660Y778480D01*
X1736260Y784980D01*
X1726399Y790800D01*
X1716160Y795879D01*
X1705580Y800240D01*
X1694740Y803820D01*
X1683640Y806620D01*
X1672380Y808620D01*
X1661020Y809820D01*
X1649940Y810200D01*
X750060Y810200D01*
X738160Y809760D01*
X726780Y808500D01*
X715540Y806440D01*
X704460Y803580D01*
X693620Y799940D01*
X683080Y795540D01*
X672860Y790400D01*
X663040Y784539D01*
X653660Y777980D01*
X644780Y770800D01*
X636440Y762980D01*
X628660Y754580D01*
X621520Y745660D01*
X615020Y736260D01*
X609200Y726400D01*
X604120Y716160D01*
X599760Y705580D01*
X596180Y694740D01*
X593380Y683640D01*
X591380Y672380D01*
X590180Y661020D01*
X589800Y649940D01*
X589800Y600100D01*
X589420Y589880D01*
X588340Y579960D01*
X586560Y570140D01*
X584080Y560480D01*
X580920Y551020D01*
X577100Y541800D01*
X572620Y532880D01*
X567520Y524300D01*
X561820Y516120D01*
X555560Y508340D01*
X548740Y501060D01*
X541440Y494260D01*
X533660Y488000D01*
X525460Y482320D01*
X516860Y477239D01*
X507939Y472780D01*
X498720Y468980D01*
X489240Y465840D01*
X479580Y463380D01*
X469760Y461620D01*
X459840Y460560D01*
X449760Y460200D01*
X250240Y460200D01*
X239880Y460580D01*
X229960Y461659D01*
X220140Y463440D01*
X210479Y465920D01*
X201020Y469080D01*
X191800Y472900D01*
X182880Y477380D01*
X174300Y482480D01*
X166119Y488180D01*
X158360Y494440D01*
X151060Y501260D01*
X144260Y508560D01*
X138000Y516340D01*
X132320Y524540D01*
X127240Y533140D01*
X122780Y542060D01*
X118980Y551280D01*
X115840Y560760D01*
X113379Y570420D01*
X111620Y580240D01*
X110559Y590160D01*
X110200Y600240D01*
X110200Y2999820D01*
X110580Y3014780D01*
X111700Y3029420D01*
X113560Y3043980D01*
X116160Y3058440D01*
X119480Y3072740D01*
X123520Y3086860D01*
X128280Y3100740D01*
X133740Y3114380D01*
X139860Y3127720D01*
X146660Y3140720D01*
X154120Y3153380D01*
X162200Y3165640D01*
X170900Y3177460D01*
X180180Y3188840D01*
X190020Y3199740D01*
X200420Y3210120D01*
X211320Y3219940D01*
X222700Y3229220D01*
X234540Y3237919D01*
X246800Y3245980D01*
X259460Y3253420D01*
X272460Y3260220D01*
X285820Y3266340D01*
X299440Y3271800D01*
X313340Y3276540D01*
X327460Y3280560D01*
X341760Y3283880D01*
X356220Y3286460D01*
X370780Y3288320D01*
X385420Y3289420D01*
X400180Y3289800D01*
X4999820Y3289800D01*
X5014780Y3289420D01*
X5029420Y3288300D01*
X5043980Y3286440D01*
X5058440Y3283840D01*
X5072740Y3280520D01*
X5086860Y3276480D01*
X5100740Y3271720D01*
X5114380Y3266259D01*
X5127720Y3260140D01*
X5140720Y3253340D01*
X5153380Y3245880D01*
X5165640Y3237799D01*
X5177460Y3229100D01*
X5188840Y3219820D01*
X5199740Y3209980D01*
X5210119Y3199580D01*
X5219940Y3188680D01*
X5229220Y3177300D01*
X5237920Y3165460D01*
X5245980Y3153200D01*
X5253420Y3140539D01*
X5260220Y3127540D01*
X5266340Y3114180D01*
X5271799Y3100560D01*
X5276540Y3086660D01*
X5280560Y3072540D01*
X5283880Y3058240D01*
X5286460Y3043780D01*
X5288320Y3029220D01*
X5289420Y3014580D01*
X5289800Y2999820D01*
X5289800Y180D01*
X5289420Y-14780D01*
X5288300Y-29420D01*
X5286440Y-43980D01*
X5283840Y-58440D01*
X5280520Y-72740D01*
X5276480Y-86860D01*
X5271720Y-100740D01*
X5266260Y-114380D01*
X5260140Y-127720D01*
X5253339Y-140720D01*
X5245880Y-153380D01*
X5237800Y-165640D01*
X5229100Y-177460D01*
X5219820Y-188840D01*
X5209980Y-199740D01*
X5199580Y-210120D01*
X5188680Y-219940D01*
X5177300Y-229220D01*
X5165460Y-237920D01*
X5153200Y-245980D01*
X5140540Y-253420D01*
X5127540Y-260219D01*
X5114180Y-266340D01*
X5100560Y-271800D01*
X5086660Y-276540D01*
X5072540Y-280560D01*
X5058240Y-283880D01*
X5043780Y-286460D01*
X5029220Y-288320D01*
X5014580Y-289420D01*
X4999820Y-289800D01*
G37*

%LPC*%
G36*
X4137700Y-209700D02*
G01*
X4196260Y-209700D01*
X4198740Y-209420D01*
X4200900Y-208660D01*
X4202820Y-207460D01*
X4204440Y-205840D01*
X4205660Y-203920D01*
X4206400Y-201759D01*
X4206680Y-199280D01*
X4206680Y-140720D01*
X4206400Y-138240D01*
X4205660Y-136080D01*
X4204440Y-134160D01*
X4202820Y-132540D01*
X4200900Y-131340D01*
X4198740Y-130580D01*
X4196260Y-130300D01*
X4137700Y-130300D01*
X4135220Y-130580D01*
X4133080Y-131340D01*
X4131139Y-132540D01*
X4129540Y-134160D01*
X4128320Y-136080D01*
X4127559Y-138240D01*
X4127280Y-140720D01*
X4127280Y-199280D01*
X4127559Y-201759D01*
X4128320Y-203920D01*
X4129540Y-205840D01*
X4131139Y-207460D01*
X4133080Y-208660D01*
X4135220Y-209420D01*
G37*
G36*
X3268320Y-209660D02*
G01*
X3273580Y-209140D01*
X3278740Y-207900D01*
X3283700Y-206000D01*
X3288340Y-203460D01*
X3292620Y-200320D01*
X3296420Y-196620D01*
X3299700Y-192460D01*
X3302420Y-187900D01*
X3304480Y-183020D01*
X3305880Y-177900D01*
X3306580Y-172659D01*
X3306580Y-167340D01*
X3305880Y-162100D01*
X3304480Y-156980D01*
X3302420Y-152100D01*
X3299700Y-147540D01*
X3296420Y-143380D01*
X3292620Y-139680D01*
X3288340Y-136540D01*
X3283700Y-134000D01*
X3278740Y-132100D01*
X3273580Y-130860D01*
X3268320Y-130340D01*
X3263020Y-130500D01*
X3257780Y-131400D01*
X3252720Y-132960D01*
X3247919Y-135200D01*
X3243440Y-138040D01*
X3239400Y-141460D01*
X3235840Y-145400D01*
X3232840Y-149780D01*
X3230440Y-154500D01*
X3228700Y-159520D01*
X3227640Y-164700D01*
X3227300Y-170000D01*
X3227640Y-175300D01*
X3228700Y-180479D01*
X3230440Y-185500D01*
X3232840Y-190219D01*
X3235840Y-194600D01*
X3239400Y-198540D01*
X3243440Y-201960D01*
X3247919Y-204800D01*
X3252720Y-207040D01*
X3257780Y-208600D01*
X3263020Y-209500D01*
G37*
G36*
X3068320Y-209660D02*
G01*
X3073580Y-209140D01*
X3078740Y-207900D01*
X3083700Y-206000D01*
X3088340Y-203460D01*
X3092620Y-200320D01*
X3096420Y-196620D01*
X3099700Y-192460D01*
X3102420Y-187900D01*
X3104480Y-183020D01*
X3105880Y-177900D01*
X3106580Y-172659D01*
X3106580Y-167340D01*
X3105880Y-162100D01*
X3104480Y-156980D01*
X3102420Y-152100D01*
X3099700Y-147540D01*
X3096420Y-143380D01*
X3092620Y-139680D01*
X3088340Y-136540D01*
X3083700Y-134000D01*
X3078740Y-132100D01*
X3073580Y-130860D01*
X3068320Y-130340D01*
X3063020Y-130500D01*
X3057780Y-131400D01*
X3052720Y-132960D01*
X3047919Y-135200D01*
X3043440Y-138040D01*
X3039400Y-141460D01*
X3035840Y-145400D01*
X3032840Y-149780D01*
X3030440Y-154500D01*
X3028700Y-159520D01*
X3027640Y-164700D01*
X3027300Y-170000D01*
X3027640Y-175300D01*
X3028700Y-180479D01*
X3030440Y-185500D01*
X3032840Y-190219D01*
X3035840Y-194600D01*
X3039400Y-198540D01*
X3043440Y-201960D01*
X3047919Y-204800D01*
X3052720Y-207040D01*
X3057780Y-208600D01*
X3063020Y-209500D01*
G37*
G36*
X2868320Y-209660D02*
G01*
X2873580Y-209140D01*
X2878740Y-207900D01*
X2883700Y-206000D01*
X2888340Y-203460D01*
X2892620Y-200320D01*
X2896420Y-196620D01*
X2899700Y-192460D01*
X2902420Y-187900D01*
X2904480Y-183020D01*
X2905880Y-177900D01*
X2906580Y-172659D01*
X2906580Y-167340D01*
X2905880Y-162100D01*
X2904480Y-156980D01*
X2902420Y-152100D01*
X2899700Y-147540D01*
X2896420Y-143380D01*
X2892620Y-139680D01*
X2888340Y-136540D01*
X2883700Y-134000D01*
X2878740Y-132100D01*
X2873580Y-130860D01*
X2868320Y-130340D01*
X2863020Y-130500D01*
X2857780Y-131400D01*
X2852720Y-132960D01*
X2847919Y-135200D01*
X2843440Y-138040D01*
X2839400Y-141460D01*
X2835840Y-145400D01*
X2832840Y-149780D01*
X2830440Y-154500D01*
X2828700Y-159520D01*
X2827640Y-164700D01*
X2827300Y-170000D01*
X2827640Y-175300D01*
X2828700Y-180479D01*
X2830440Y-185500D01*
X2832840Y-190219D01*
X2835840Y-194600D01*
X2839400Y-198540D01*
X2843440Y-201960D01*
X2847919Y-204800D01*
X2852720Y-207040D01*
X2857780Y-208600D01*
X2863020Y-209500D01*
G37*
G36*
X3968320Y-209660D02*
G01*
X3973580Y-209140D01*
X3978740Y-207900D01*
X3983700Y-206000D01*
X3988340Y-203460D01*
X3992620Y-200320D01*
X3996420Y-196620D01*
X3999700Y-192460D01*
X4002420Y-187900D01*
X4004480Y-183020D01*
X4005880Y-177900D01*
X4006580Y-172659D01*
X4006580Y-167340D01*
X4005880Y-162100D01*
X4004480Y-156980D01*
X4002420Y-152100D01*
X3999700Y-147540D01*
X3996420Y-143380D01*
X3992620Y-139680D01*
X3988340Y-136540D01*
X3983700Y-134000D01*
X3978740Y-132100D01*
X3973580Y-130860D01*
X3968320Y-130340D01*
X3963020Y-130500D01*
X3957780Y-131400D01*
X3952720Y-132960D01*
X3947919Y-135200D01*
X3943440Y-138040D01*
X3939400Y-141460D01*
X3935840Y-145400D01*
X3932840Y-149780D01*
X3930440Y-154500D01*
X3928700Y-159520D01*
X3927640Y-164700D01*
X3927300Y-170000D01*
X3927640Y-175300D01*
X3928700Y-180479D01*
X3930440Y-185500D01*
X3932840Y-190219D01*
X3935840Y-194600D01*
X3939400Y-198540D01*
X3943440Y-201960D01*
X3947919Y-204800D01*
X3952720Y-207040D01*
X3957780Y-208600D01*
X3963020Y-209500D01*
G37*
G36*
X3868320Y-209660D02*
G01*
X3873580Y-209140D01*
X3878740Y-207900D01*
X3883700Y-206000D01*
X3888340Y-203460D01*
X3892620Y-200320D01*
X3896420Y-196620D01*
X3899700Y-192460D01*
X3902420Y-187900D01*
X3904480Y-183020D01*
X3905880Y-177900D01*
X3906580Y-172659D01*
X3906580Y-167340D01*
X3905880Y-162100D01*
X3904480Y-156980D01*
X3902420Y-152100D01*
X3899700Y-147540D01*
X3896420Y-143380D01*
X3892620Y-139680D01*
X3888340Y-136540D01*
X3883700Y-134000D01*
X3878740Y-132100D01*
X3873580Y-130860D01*
X3868320Y-130340D01*
X3863020Y-130500D01*
X3857780Y-131400D01*
X3852720Y-132960D01*
X3847919Y-135200D01*
X3843440Y-138040D01*
X3839400Y-141460D01*
X3835840Y-145400D01*
X3832840Y-149780D01*
X3830440Y-154500D01*
X3828700Y-159520D01*
X3827640Y-164700D01*
X3827300Y-170000D01*
X3827640Y-175300D01*
X3828700Y-180479D01*
X3830440Y-185500D01*
X3832840Y-190219D01*
X3835840Y-194600D01*
X3839400Y-198540D01*
X3843440Y-201960D01*
X3847919Y-204800D01*
X3852720Y-207040D01*
X3857780Y-208600D01*
X3863020Y-209500D01*
G37*
G36*
X3668320Y-209660D02*
G01*
X3673580Y-209140D01*
X3678740Y-207900D01*
X3683700Y-206000D01*
X3688340Y-203460D01*
X3692620Y-200320D01*
X3696420Y-196620D01*
X3699700Y-192460D01*
X3702420Y-187900D01*
X3704480Y-183020D01*
X3705880Y-177900D01*
X3706580Y-172659D01*
X3706580Y-167340D01*
X3705880Y-162100D01*
X3704480Y-156980D01*
X3702420Y-152100D01*
X3699700Y-147540D01*
X3696420Y-143380D01*
X3692620Y-139680D01*
X3688340Y-136540D01*
X3683700Y-134000D01*
X3678740Y-132100D01*
X3673580Y-130860D01*
X3668320Y-130340D01*
X3663020Y-130500D01*
X3657780Y-131400D01*
X3652720Y-132960D01*
X3647919Y-135200D01*
X3643440Y-138040D01*
X3639400Y-141460D01*
X3635840Y-145400D01*
X3632840Y-149780D01*
X3630440Y-154500D01*
X3628700Y-159520D01*
X3627640Y-164700D01*
X3627300Y-170000D01*
X3627640Y-175300D01*
X3628700Y-180479D01*
X3630440Y-185500D01*
X3632840Y-190219D01*
X3635840Y-194600D01*
X3639400Y-198540D01*
X3643440Y-201960D01*
X3647919Y-204800D01*
X3652720Y-207040D01*
X3657780Y-208600D01*
X3663020Y-209500D01*
G37*
G36*
X3568320Y-209660D02*
G01*
X3573580Y-209140D01*
X3578740Y-207900D01*
X3583700Y-206000D01*
X3588340Y-203460D01*
X3592620Y-200320D01*
X3596420Y-196620D01*
X3599700Y-192460D01*
X3602420Y-187900D01*
X3604480Y-183020D01*
X3605880Y-177900D01*
X3606580Y-172659D01*
X3606580Y-167340D01*
X3605880Y-162100D01*
X3604480Y-156980D01*
X3602420Y-152100D01*
X3599700Y-147540D01*
X3596420Y-143380D01*
X3592620Y-139680D01*
X3588340Y-136540D01*
X3583700Y-134000D01*
X3578740Y-132100D01*
X3573580Y-130860D01*
X3568320Y-130340D01*
X3563020Y-130500D01*
X3557780Y-131400D01*
X3552720Y-132960D01*
X3547919Y-135200D01*
X3543440Y-138040D01*
X3539400Y-141460D01*
X3535840Y-145400D01*
X3532840Y-149780D01*
X3530440Y-154500D01*
X3528700Y-159520D01*
X3527640Y-164700D01*
X3527300Y-170000D01*
X3527640Y-175300D01*
X3528700Y-180479D01*
X3530440Y-185500D01*
X3532840Y-190219D01*
X3535840Y-194600D01*
X3539400Y-198540D01*
X3543440Y-201960D01*
X3547919Y-204800D01*
X3552720Y-207040D01*
X3557780Y-208600D01*
X3563020Y-209500D01*
G37*
G36*
X2768320Y-209660D02*
G01*
X2773580Y-209140D01*
X2778740Y-207900D01*
X2783700Y-206000D01*
X2788340Y-203460D01*
X2792620Y-200320D01*
X2796420Y-196620D01*
X2799700Y-192460D01*
X2802420Y-187900D01*
X2804480Y-183020D01*
X2805880Y-177900D01*
X2806580Y-172659D01*
X2806580Y-167340D01*
X2805880Y-162100D01*
X2804480Y-156980D01*
X2802420Y-152100D01*
X2799700Y-147540D01*
X2796420Y-143380D01*
X2792620Y-139680D01*
X2788340Y-136540D01*
X2783700Y-134000D01*
X2778740Y-132100D01*
X2773580Y-130860D01*
X2768320Y-130340D01*
X2763020Y-130500D01*
X2757780Y-131400D01*
X2752720Y-132960D01*
X2747919Y-135200D01*
X2743440Y-138040D01*
X2739400Y-141460D01*
X2735840Y-145400D01*
X2732840Y-149780D01*
X2730440Y-154500D01*
X2728700Y-159520D01*
X2727640Y-164700D01*
X2727300Y-170000D01*
X2727640Y-175300D01*
X2728700Y-180479D01*
X2730440Y-185500D01*
X2732840Y-190219D01*
X2735840Y-194600D01*
X2739400Y-198540D01*
X2743440Y-201960D01*
X2747919Y-204800D01*
X2752720Y-207040D01*
X2757780Y-208600D01*
X2763020Y-209500D01*
G37*
G36*
X3768320Y-209660D02*
G01*
X3773580Y-209140D01*
X3778740Y-207900D01*
X3783700Y-206000D01*
X3788340Y-203460D01*
X3792620Y-200320D01*
X3796420Y-196620D01*
X3799700Y-192460D01*
X3802420Y-187900D01*
X3804480Y-183020D01*
X3805880Y-177900D01*
X3806580Y-172659D01*
X3806580Y-167340D01*
X3805880Y-162100D01*
X3804480Y-156980D01*
X3802420Y-152100D01*
X3799700Y-147540D01*
X3796420Y-143380D01*
X3792620Y-139680D01*
X3788340Y-136540D01*
X3783700Y-134000D01*
X3778740Y-132100D01*
X3773580Y-130860D01*
X3768320Y-130340D01*
X3763020Y-130500D01*
X3757780Y-131400D01*
X3752720Y-132960D01*
X3747919Y-135200D01*
X3743440Y-138040D01*
X3739400Y-141460D01*
X3735840Y-145400D01*
X3732840Y-149780D01*
X3730440Y-154500D01*
X3728700Y-159520D01*
X3727640Y-164700D01*
X3727300Y-170000D01*
X3727640Y-175300D01*
X3728700Y-180479D01*
X3730440Y-185500D01*
X3732840Y-190219D01*
X3735840Y-194600D01*
X3739400Y-198540D01*
X3743440Y-201960D01*
X3747919Y-204800D01*
X3752720Y-207040D01*
X3757780Y-208600D01*
X3763020Y-209500D01*
G37*
G36*
X4068320Y-209660D02*
G01*
X4073580Y-209140D01*
X4078740Y-207900D01*
X4083700Y-206000D01*
X4088340Y-203460D01*
X4092620Y-200320D01*
X4096420Y-196620D01*
X4099700Y-192460D01*
X4102420Y-187900D01*
X4104480Y-183020D01*
X4105880Y-177900D01*
X4106580Y-172659D01*
X4106580Y-167340D01*
X4105880Y-162100D01*
X4104480Y-156980D01*
X4102420Y-152100D01*
X4099700Y-147540D01*
X4096420Y-143380D01*
X4092620Y-139680D01*
X4088340Y-136540D01*
X4083700Y-134000D01*
X4078740Y-132100D01*
X4073580Y-130860D01*
X4068320Y-130340D01*
X4063020Y-130500D01*
X4057780Y-131400D01*
X4052720Y-132960D01*
X4047919Y-135200D01*
X4043440Y-138040D01*
X4039400Y-141460D01*
X4035840Y-145400D01*
X4032840Y-149780D01*
X4030440Y-154500D01*
X4028700Y-159520D01*
X4027640Y-164700D01*
X4027300Y-170000D01*
X4027640Y-175300D01*
X4028700Y-180479D01*
X4030440Y-185500D01*
X4032840Y-190219D01*
X4035840Y-194600D01*
X4039400Y-198540D01*
X4043440Y-201960D01*
X4047919Y-204800D01*
X4052720Y-207040D01*
X4057780Y-208600D01*
X4063020Y-209500D01*
G37*
G36*
X3168320Y-209660D02*
G01*
X3173580Y-209140D01*
X3178740Y-207900D01*
X3183700Y-206000D01*
X3188340Y-203460D01*
X3192620Y-200320D01*
X3196420Y-196620D01*
X3199700Y-192460D01*
X3202420Y-187900D01*
X3204480Y-183020D01*
X3205880Y-177900D01*
X3206580Y-172659D01*
X3206580Y-167340D01*
X3205880Y-162100D01*
X3204480Y-156980D01*
X3202420Y-152100D01*
X3199700Y-147540D01*
X3196420Y-143380D01*
X3192620Y-139680D01*
X3188340Y-136540D01*
X3183700Y-134000D01*
X3178740Y-132100D01*
X3173580Y-130860D01*
X3168320Y-130340D01*
X3163020Y-130500D01*
X3157780Y-131400D01*
X3152720Y-132960D01*
X3147919Y-135200D01*
X3143440Y-138040D01*
X3139400Y-141460D01*
X3135840Y-145400D01*
X3132840Y-149780D01*
X3130440Y-154500D01*
X3128700Y-159520D01*
X3127640Y-164700D01*
X3127300Y-170000D01*
X3127640Y-175300D01*
X3128700Y-180479D01*
X3130440Y-185500D01*
X3132840Y-190219D01*
X3135840Y-194600D01*
X3139400Y-198540D01*
X3143440Y-201960D01*
X3147919Y-204800D01*
X3152720Y-207040D01*
X3157780Y-208600D01*
X3163020Y-209500D01*
G37*
G36*
X3368320Y-209660D02*
G01*
X3373580Y-209140D01*
X3378740Y-207900D01*
X3383700Y-206000D01*
X3388340Y-203460D01*
X3392620Y-200320D01*
X3396420Y-196620D01*
X3399700Y-192460D01*
X3402420Y-187900D01*
X3404480Y-183020D01*
X3405880Y-177900D01*
X3406580Y-172659D01*
X3406580Y-167340D01*
X3405880Y-162100D01*
X3404480Y-156980D01*
X3402420Y-152100D01*
X3399700Y-147540D01*
X3396420Y-143380D01*
X3392620Y-139680D01*
X3388340Y-136540D01*
X3383700Y-134000D01*
X3378740Y-132100D01*
X3373580Y-130860D01*
X3368320Y-130340D01*
X3363020Y-130500D01*
X3357780Y-131400D01*
X3352720Y-132960D01*
X3347919Y-135200D01*
X3343440Y-138040D01*
X3339400Y-141460D01*
X3335840Y-145400D01*
X3332840Y-149780D01*
X3330440Y-154500D01*
X3328700Y-159520D01*
X3327640Y-164700D01*
X3327300Y-170000D01*
X3327640Y-175300D01*
X3328700Y-180479D01*
X3330440Y-185500D01*
X3332840Y-190219D01*
X3335840Y-194600D01*
X3339400Y-198540D01*
X3343440Y-201960D01*
X3347919Y-204800D01*
X3352720Y-207040D01*
X3357780Y-208600D01*
X3363020Y-209500D01*
G37*
G36*
X3468320Y-209660D02*
G01*
X3473580Y-209140D01*
X3478740Y-207900D01*
X3483700Y-206000D01*
X3488340Y-203460D01*
X3492620Y-200320D01*
X3496420Y-196620D01*
X3499700Y-192460D01*
X3502420Y-187900D01*
X3504480Y-183020D01*
X3505880Y-177900D01*
X3506580Y-172659D01*
X3506580Y-167340D01*
X3505880Y-162100D01*
X3504480Y-156980D01*
X3502420Y-152100D01*
X3499700Y-147540D01*
X3496420Y-143380D01*
X3492620Y-139680D01*
X3488340Y-136540D01*
X3483700Y-134000D01*
X3478740Y-132100D01*
X3473580Y-130860D01*
X3468320Y-130340D01*
X3463020Y-130500D01*
X3457780Y-131400D01*
X3452720Y-132960D01*
X3447919Y-135200D01*
X3443440Y-138040D01*
X3439400Y-141460D01*
X3435840Y-145400D01*
X3432840Y-149780D01*
X3430440Y-154500D01*
X3428700Y-159520D01*
X3427640Y-164700D01*
X3427300Y-170000D01*
X3427640Y-175300D01*
X3428700Y-180479D01*
X3430440Y-185500D01*
X3432840Y-190219D01*
X3435840Y-194600D01*
X3439400Y-198540D01*
X3443440Y-201960D01*
X3447919Y-204800D01*
X3452720Y-207040D01*
X3457780Y-208600D01*
X3463020Y-209500D01*
G37*
G36*
X2668320Y-209660D02*
G01*
X2673580Y-209140D01*
X2678740Y-207900D01*
X2683700Y-206000D01*
X2688340Y-203460D01*
X2692620Y-200320D01*
X2696420Y-196620D01*
X2699700Y-192460D01*
X2702420Y-187900D01*
X2704480Y-183020D01*
X2705880Y-177900D01*
X2706580Y-172659D01*
X2706580Y-167340D01*
X2705880Y-162100D01*
X2704480Y-156980D01*
X2702420Y-152100D01*
X2699700Y-147540D01*
X2696420Y-143380D01*
X2692620Y-139680D01*
X2688340Y-136540D01*
X2683700Y-134000D01*
X2678740Y-132100D01*
X2673580Y-130860D01*
X2668320Y-130340D01*
X2663020Y-130500D01*
X2657780Y-131400D01*
X2652720Y-132960D01*
X2647919Y-135200D01*
X2643440Y-138040D01*
X2639400Y-141460D01*
X2635840Y-145400D01*
X2632840Y-149780D01*
X2630440Y-154500D01*
X2628700Y-159520D01*
X2627640Y-164700D01*
X2627300Y-170000D01*
X2627640Y-175300D01*
X2628700Y-180479D01*
X2630440Y-185500D01*
X2632840Y-190219D01*
X2635840Y-194600D01*
X2639400Y-198540D01*
X2643440Y-201960D01*
X2647919Y-204800D01*
X2652720Y-207040D01*
X2657780Y-208600D01*
X2663020Y-209500D01*
G37*
G36*
X2984240Y-205700D02*
G01*
X2988340Y-203460D01*
X2992620Y-200320D01*
X2996420Y-196620D01*
X2999700Y-192460D01*
X3002420Y-187900D01*
X3002679Y-187260D01*
X2984240Y-187260D01*
G37*
G36*
X2949740Y-205660D02*
G01*
X2949740Y-187260D01*
X2931340Y-187260D01*
X2932840Y-190219D01*
X2935840Y-194600D01*
X2939400Y-198540D01*
X2943440Y-201960D01*
X2947919Y-204800D01*
G37*
G36*
X4318640Y-180180D02*
G01*
X4325260Y-179620D01*
X4331760Y-178359D01*
X4338100Y-176380D01*
X4344160Y-173700D01*
X4349920Y-170400D01*
X4355260Y-166460D01*
X4360140Y-161980D01*
X4364500Y-156980D01*
X4368280Y-151520D01*
X4371420Y-145680D01*
X4373920Y-139540D01*
X4375720Y-133160D01*
X4376820Y-126620D01*
X4377180Y-120000D01*
X4376820Y-113379D01*
X4375720Y-106840D01*
X4373920Y-100460D01*
X4371420Y-94320D01*
X4368280Y-88480D01*
X4364500Y-83020D01*
X4360140Y-78020D01*
X4355260Y-73540D01*
X4349920Y-69600D01*
X4344160Y-66300D01*
X4338100Y-63620D01*
X4331760Y-61640D01*
X4325260Y-60380D01*
X4318640Y-59820D01*
X4312020Y-60020D01*
X4305460Y-60920D01*
X4299020Y-62560D01*
X4292820Y-64880D01*
X4286900Y-67880D01*
X4281340Y-71500D01*
X4276220Y-75720D01*
X4271600Y-80460D01*
X4267520Y-85700D01*
X4264060Y-91359D01*
X4261220Y-97340D01*
X4259060Y-103620D01*
X4257620Y-110100D01*
X4256880Y-116679D01*
X4256880Y-123320D01*
X4257620Y-129900D01*
X4259060Y-136380D01*
X4261220Y-142660D01*
X4264060Y-148640D01*
X4267520Y-154300D01*
X4271600Y-159540D01*
X4276220Y-164280D01*
X4281340Y-168500D01*
X4286900Y-172120D01*
X4292820Y-175120D01*
X4299020Y-177440D01*
X4305460Y-179080D01*
X4312020Y-179980D01*
G37*
G36*
X2518640Y-180180D02*
G01*
X2525260Y-179620D01*
X2531760Y-178359D01*
X2538100Y-176380D01*
X2544160Y-173700D01*
X2549920Y-170400D01*
X2555260Y-166460D01*
X2560140Y-161980D01*
X2564500Y-156980D01*
X2568279Y-151520D01*
X2571420Y-145680D01*
X2573920Y-139540D01*
X2575720Y-133160D01*
X2576820Y-126620D01*
X2577180Y-120000D01*
X2576820Y-113379D01*
X2575720Y-106840D01*
X2573920Y-100460D01*
X2571420Y-94320D01*
X2568279Y-88480D01*
X2564500Y-83020D01*
X2560140Y-78020D01*
X2555260Y-73540D01*
X2549920Y-69600D01*
X2544160Y-66300D01*
X2538100Y-63620D01*
X2531760Y-61640D01*
X2525260Y-60380D01*
X2518640Y-59820D01*
X2512020Y-60020D01*
X2505460Y-60920D01*
X2499020Y-62560D01*
X2492820Y-64880D01*
X2486900Y-67880D01*
X2481340Y-71500D01*
X2476220Y-75720D01*
X2471600Y-80460D01*
X2467520Y-85700D01*
X2464060Y-91359D01*
X2461220Y-97340D01*
X2459060Y-103620D01*
X2457620Y-110100D01*
X2456880Y-116679D01*
X2456880Y-123320D01*
X2457620Y-129900D01*
X2459060Y-136380D01*
X2461220Y-142660D01*
X2464060Y-148640D01*
X2467520Y-154300D01*
X2471600Y-159540D01*
X2476220Y-164280D01*
X2481340Y-168500D01*
X2486900Y-172120D01*
X2492820Y-175120D01*
X2499020Y-177440D01*
X2505460Y-179080D01*
X2512020Y-179980D01*
G37*
G36*
X2931340Y-152760D02*
G01*
X2949740Y-152760D01*
X2949740Y-134340D01*
X2947919Y-135200D01*
X2943440Y-138040D01*
X2939400Y-141460D01*
X2935840Y-145400D01*
X2932840Y-149780D01*
G37*
G36*
X2984240Y-152760D02*
G01*
X3002679Y-152760D01*
X3002420Y-152100D01*
X2999700Y-147540D01*
X2996420Y-143380D01*
X2992620Y-139680D01*
X2988340Y-136540D01*
X2984240Y-134300D01*
G37*
G36*
X4504220Y-41200D02*
G01*
X4565780Y-41200D01*
X4568260Y-40920D01*
X4570420Y-40160D01*
X4572340Y-38960D01*
X4573960Y-37340D01*
X4575160Y-35420D01*
X4575920Y-33260D01*
X4576200Y-30780D01*
X4576200Y30780D01*
X4575920Y33260D01*
X4575160Y35420D01*
X4573960Y37340D01*
X4572340Y38960D01*
X4570420Y40160D01*
X4568260Y40920D01*
X4565780Y41200D01*
X4504220Y41200D01*
X4501740Y40920D01*
X4499580Y40160D01*
X4497660Y38960D01*
X4496040Y37340D01*
X4494840Y35420D01*
X4494080Y33260D01*
X4493800Y30780D01*
X4493800Y-30780D01*
X4494080Y-33260D01*
X4494840Y-35420D01*
X4496040Y-37340D01*
X4497660Y-38960D01*
X4499580Y-40160D01*
X4501740Y-40920D01*
G37*
G36*
X4535000Y58800D02*
G01*
X4540380Y59160D01*
X4545660Y60220D01*
X4550760Y61940D01*
X4555600Y64320D01*
X4560080Y67320D01*
X4564120Y70880D01*
X4567680Y74920D01*
X4570680Y79400D01*
X4573060Y84240D01*
X4574780Y89340D01*
X4575840Y94620D01*
X4576200Y100000D01*
X4575840Y105380D01*
X4574780Y110660D01*
X4573060Y115760D01*
X4570680Y120600D01*
X4567680Y125079D01*
X4564120Y129120D01*
X4560080Y132680D01*
X4555600Y135680D01*
X4550760Y138060D01*
X4545660Y139780D01*
X4540380Y140840D01*
X4535000Y141200D01*
X4529620Y140840D01*
X4524340Y139780D01*
X4519240Y138060D01*
X4514400Y135680D01*
X4509920Y132680D01*
X4505880Y129120D01*
X4502320Y125079D01*
X4499320Y120600D01*
X4496940Y115760D01*
X4495220Y110660D01*
X4494160Y105380D01*
X4493800Y100000D01*
X4494160Y94620D01*
X4495220Y89340D01*
X4496940Y84240D01*
X4499320Y79400D01*
X4502320Y74920D01*
X4505880Y70880D01*
X4509920Y67320D01*
X4514400Y64320D01*
X4519240Y61940D01*
X4524340Y60220D01*
X4529620Y59160D01*
G37*
G36*
X4553000Y163039D02*
G01*
X4555600Y164320D01*
X4560080Y167320D01*
X4564120Y170880D01*
X4567680Y174920D01*
X4570680Y179400D01*
X4571960Y182000D01*
X4553000Y182000D01*
G37*
G36*
X4517000Y163039D02*
G01*
X4517000Y182000D01*
X4498040Y182000D01*
X4499320Y179400D01*
X4502320Y174920D01*
X4505880Y170880D01*
X4509920Y167320D01*
X4514400Y164320D01*
G37*
G36*
X4498040Y218000D02*
G01*
X4517000Y218000D01*
X4517000Y236960D01*
X4514400Y235680D01*
X4509920Y232680D01*
X4505880Y229120D01*
X4502320Y225080D01*
X4499320Y220600D01*
G37*
G36*
X4553000Y218000D02*
G01*
X4571960Y218000D01*
X4570680Y220600D01*
X4567680Y225080D01*
X4564120Y229120D01*
X4560080Y232680D01*
X4555600Y235680D01*
X4553000Y236960D01*
G37*
G36*
X4535000Y258800D02*
G01*
X4540380Y259160D01*
X4545660Y260219D01*
X4550760Y261940D01*
X4555600Y264320D01*
X4560080Y267320D01*
X4564120Y270880D01*
X4567680Y274920D01*
X4570680Y279400D01*
X4573060Y284240D01*
X4574780Y289340D01*
X4575840Y294620D01*
X4576200Y300000D01*
X4575840Y305380D01*
X4574780Y310660D01*
X4573060Y315760D01*
X4570680Y320600D01*
X4567680Y325080D01*
X4564120Y329120D01*
X4560080Y332680D01*
X4555600Y335680D01*
X4550760Y338060D01*
X4545660Y339780D01*
X4540380Y340840D01*
X4535000Y341200D01*
X4529620Y340840D01*
X4524340Y339780D01*
X4519240Y338060D01*
X4514400Y335680D01*
X4509920Y332680D01*
X4505880Y329120D01*
X4502320Y325080D01*
X4499320Y320600D01*
X4496940Y315760D01*
X4495220Y310660D01*
X4494160Y305380D01*
X4493800Y300000D01*
X4494160Y294620D01*
X4495220Y289340D01*
X4496940Y284240D01*
X4499320Y279400D01*
X4502320Y274920D01*
X4505880Y270880D01*
X4509920Y267320D01*
X4514400Y264320D01*
X4519240Y261940D01*
X4524340Y260219D01*
X4529620Y259160D01*
G37*
G36*
X4535000Y358800D02*
G01*
X4540380Y359159D01*
X4545660Y360220D01*
X4550760Y361940D01*
X4555600Y364320D01*
X4560080Y367320D01*
X4564120Y370880D01*
X4567680Y374920D01*
X4570680Y379400D01*
X4573060Y384240D01*
X4574780Y389340D01*
X4575840Y394620D01*
X4576200Y400000D01*
X4575840Y405379D01*
X4574780Y410660D01*
X4573060Y415760D01*
X4570680Y420600D01*
X4567680Y425080D01*
X4564120Y429120D01*
X4560080Y432680D01*
X4555600Y435680D01*
X4550760Y438060D01*
X4545660Y439780D01*
X4540380Y440840D01*
X4535000Y441200D01*
X4529620Y440840D01*
X4524340Y439780D01*
X4519240Y438060D01*
X4514400Y435680D01*
X4509920Y432680D01*
X4505880Y429120D01*
X4502320Y425080D01*
X4499320Y420600D01*
X4496940Y415760D01*
X4495220Y410660D01*
X4494160Y405379D01*
X4493800Y400000D01*
X4494160Y394620D01*
X4495220Y389340D01*
X4496940Y384240D01*
X4499320Y379400D01*
X4502320Y374920D01*
X4505880Y370880D01*
X4509920Y367320D01*
X4514400Y364320D01*
X4519240Y361940D01*
X4524340Y360220D01*
X4529620Y359159D01*
G37*
G36*
X4535000Y458800D02*
G01*
X4540380Y459159D01*
X4545660Y460220D01*
X4550760Y461940D01*
X4555600Y464320D01*
X4560080Y467320D01*
X4564120Y470880D01*
X4567680Y474920D01*
X4570680Y479400D01*
X4573060Y484240D01*
X4574780Y489340D01*
X4575840Y494620D01*
X4576200Y500000D01*
X4575840Y505379D01*
X4574780Y510660D01*
X4573060Y515760D01*
X4570680Y520600D01*
X4567680Y525080D01*
X4564120Y529120D01*
X4560080Y532680D01*
X4555600Y535680D01*
X4550760Y538060D01*
X4545660Y539780D01*
X4540380Y540840D01*
X4535000Y541200D01*
X4529620Y540840D01*
X4524340Y539780D01*
X4519240Y538060D01*
X4514400Y535680D01*
X4509920Y532680D01*
X4505880Y529120D01*
X4502320Y525080D01*
X4499320Y520600D01*
X4496940Y515760D01*
X4495220Y510660D01*
X4494160Y505379D01*
X4493800Y500000D01*
X4494160Y494620D01*
X4495220Y489340D01*
X4496940Y484240D01*
X4499320Y479400D01*
X4502320Y474920D01*
X4505880Y470880D01*
X4509920Y467320D01*
X4514400Y464320D01*
X4519240Y461940D01*
X4524340Y460220D01*
X4529620Y459159D01*
G37*
G36*
X4318640Y519820D02*
G01*
X4325260Y520379D01*
X4331760Y521640D01*
X4338100Y523620D01*
X4344160Y526300D01*
X4349920Y529600D01*
X4355260Y533540D01*
X4360140Y538020D01*
X4364500Y543020D01*
X4368280Y548480D01*
X4371420Y554320D01*
X4373920Y560460D01*
X4375720Y566840D01*
X4376820Y573380D01*
X4377180Y580000D01*
X4376820Y586620D01*
X4375720Y593160D01*
X4373920Y599540D01*
X4371420Y605680D01*
X4368280Y611520D01*
X4364500Y616980D01*
X4360140Y621980D01*
X4355260Y626460D01*
X4349920Y630400D01*
X4344160Y633700D01*
X4338100Y636380D01*
X4331760Y638360D01*
X4325260Y639620D01*
X4318640Y640180D01*
X4312020Y639980D01*
X4305460Y639080D01*
X4299020Y637440D01*
X4292820Y635120D01*
X4286900Y632120D01*
X4281340Y628500D01*
X4276220Y624280D01*
X4271600Y619540D01*
X4267520Y614300D01*
X4264060Y608640D01*
X4261220Y602660D01*
X4259060Y596380D01*
X4257620Y589900D01*
X4256880Y583320D01*
X4256880Y576680D01*
X4257620Y570100D01*
X4259060Y563620D01*
X4261220Y557340D01*
X4264060Y551360D01*
X4267520Y545700D01*
X4271600Y540460D01*
X4276220Y535720D01*
X4281340Y531500D01*
X4286900Y527880D01*
X4292820Y524880D01*
X4299020Y522560D01*
X4305460Y520920D01*
X4312020Y520020D01*
G37*
G36*
X2518640Y519820D02*
G01*
X2525260Y520379D01*
X2531760Y521640D01*
X2538100Y523620D01*
X2544160Y526300D01*
X2549920Y529600D01*
X2555260Y533540D01*
X2560140Y538020D01*
X2564500Y543020D01*
X2568279Y548480D01*
X2571420Y554320D01*
X2573920Y560460D01*
X2575720Y566840D01*
X2576820Y573380D01*
X2577180Y580000D01*
X2576820Y586620D01*
X2575720Y593160D01*
X2573920Y599540D01*
X2571420Y605680D01*
X2568279Y611520D01*
X2564500Y616980D01*
X2560140Y621980D01*
X2555260Y626460D01*
X2549920Y630400D01*
X2544160Y633700D01*
X2538100Y636380D01*
X2531760Y638360D01*
X2525260Y639620D01*
X2518640Y640180D01*
X2512020Y639980D01*
X2505460Y639080D01*
X2499020Y637440D01*
X2492820Y635120D01*
X2486900Y632120D01*
X2481340Y628500D01*
X2476220Y624280D01*
X2471600Y619540D01*
X2467520Y614300D01*
X2464060Y608640D01*
X2461220Y602660D01*
X2459060Y596380D01*
X2457620Y589900D01*
X2456880Y583320D01*
X2456880Y576680D01*
X2457620Y570100D01*
X2459060Y563620D01*
X2461220Y557340D01*
X2464060Y551360D01*
X2467520Y545700D01*
X2471600Y540460D01*
X2476220Y535720D01*
X2481340Y531500D01*
X2486900Y527880D01*
X2492820Y524880D01*
X2499020Y522560D01*
X2505460Y520920D01*
X2512020Y520020D01*
G37*
G36*
X2268220Y532800D02*
G01*
X2284000Y532800D01*
X2284000Y559000D01*
X2257800Y559000D01*
X2257800Y543220D01*
X2258080Y540740D01*
X2258840Y538580D01*
X2260040Y536660D01*
X2261660Y535040D01*
X2263580Y533840D01*
X2265740Y533080D01*
G37*
G36*
X2326000Y532800D02*
G01*
X2341780Y532800D01*
X2344260Y533080D01*
X2346420Y533840D01*
X2348340Y535040D01*
X2349960Y536660D01*
X2351160Y538580D01*
X2351920Y540740D01*
X2352200Y543220D01*
X2352200Y559000D01*
X2326000Y559000D01*
G37*
G36*
X368220Y532800D02*
G01*
X441780Y532800D01*
X444260Y533080D01*
X446420Y533840D01*
X448340Y535040D01*
X449960Y536660D01*
X451160Y538580D01*
X451920Y540740D01*
X452200Y543220D01*
X452200Y616780D01*
X451920Y619260D01*
X451160Y621420D01*
X449960Y623340D01*
X448340Y624960D01*
X446420Y626160D01*
X444260Y626920D01*
X441780Y627200D01*
X420480Y627200D01*
X418940Y627500D01*
X417640Y628400D01*
X416780Y629700D01*
X416480Y631260D01*
X416820Y632800D01*
X417720Y634080D01*
X419040Y634940D01*
X424720Y637120D01*
X429840Y639880D01*
X434580Y643240D01*
X438880Y647140D01*
X442660Y651560D01*
X445860Y656400D01*
X448459Y661600D01*
X450400Y667080D01*
X451640Y672760D01*
X452180Y678540D01*
X452000Y684360D01*
X451100Y690100D01*
X449500Y695680D01*
X447239Y701040D01*
X444340Y706060D01*
X440840Y710699D01*
X436800Y714880D01*
X432260Y718520D01*
X427320Y721580D01*
X422040Y724000D01*
X416520Y725759D01*
X414940Y726060D01*
X413519Y726620D01*
X412400Y727700D01*
X411780Y729100D01*
X411740Y730639D01*
X412260Y732080D01*
X413320Y733220D01*
X414700Y733880D01*
X419300Y735020D01*
X424720Y737120D01*
X429840Y739880D01*
X434580Y743240D01*
X438880Y747140D01*
X442660Y751560D01*
X445860Y756400D01*
X448459Y761600D01*
X450400Y767080D01*
X451640Y772760D01*
X452180Y778540D01*
X452000Y784360D01*
X451100Y790100D01*
X449500Y795680D01*
X447239Y801040D01*
X444340Y806060D01*
X440840Y810699D01*
X436800Y814880D01*
X432260Y818520D01*
X427320Y821580D01*
X422040Y824000D01*
X416520Y825759D01*
X414940Y826060D01*
X413519Y826620D01*
X412400Y827700D01*
X411780Y829100D01*
X411740Y830639D01*
X412260Y832080D01*
X413320Y833220D01*
X414700Y833880D01*
X419300Y835020D01*
X424720Y837120D01*
X429840Y839880D01*
X434580Y843240D01*
X438880Y847140D01*
X442660Y851560D01*
X445860Y856400D01*
X448459Y861600D01*
X450400Y867080D01*
X451640Y872760D01*
X452180Y878540D01*
X452000Y884360D01*
X451100Y890100D01*
X449500Y895680D01*
X447239Y901040D01*
X444340Y906060D01*
X440840Y910699D01*
X436800Y914880D01*
X432260Y918520D01*
X427320Y921580D01*
X422040Y924000D01*
X416520Y925759D01*
X414940Y926060D01*
X413519Y926620D01*
X412400Y927700D01*
X411780Y929100D01*
X411740Y930639D01*
X412260Y932080D01*
X413320Y933220D01*
X414700Y933880D01*
X419300Y935020D01*
X424720Y937120D01*
X429840Y939880D01*
X434580Y943240D01*
X438880Y947140D01*
X442660Y951560D01*
X445860Y956400D01*
X448459Y961600D01*
X450400Y967080D01*
X451640Y972760D01*
X452180Y978540D01*
X452000Y984360D01*
X451100Y990100D01*
X449500Y995680D01*
X447239Y1001040D01*
X444340Y1006060D01*
X440840Y1010699D01*
X436800Y1014880D01*
X432260Y1018520D01*
X427320Y1021580D01*
X422040Y1024000D01*
X416520Y1025759D01*
X414940Y1026060D01*
X413519Y1026620D01*
X412400Y1027700D01*
X411780Y1029100D01*
X411740Y1030639D01*
X412260Y1032080D01*
X413320Y1033220D01*
X414700Y1033880D01*
X419300Y1035020D01*
X424720Y1037120D01*
X429840Y1039880D01*
X434580Y1043240D01*
X438880Y1047140D01*
X442660Y1051560D01*
X445860Y1056400D01*
X448459Y1061600D01*
X450400Y1067080D01*
X451640Y1072760D01*
X452180Y1078540D01*
X452000Y1084360D01*
X451100Y1090100D01*
X449500Y1095680D01*
X447239Y1101040D01*
X444340Y1106060D01*
X440840Y1110700D01*
X436800Y1114880D01*
X432260Y1118520D01*
X427320Y1121580D01*
X422040Y1124000D01*
X416520Y1125760D01*
X414940Y1126060D01*
X413519Y1126620D01*
X412400Y1127700D01*
X411780Y1129100D01*
X411740Y1130640D01*
X412260Y1132080D01*
X413320Y1133220D01*
X414700Y1133880D01*
X419300Y1135020D01*
X424720Y1137120D01*
X429840Y1139880D01*
X434580Y1143240D01*
X438880Y1147140D01*
X442660Y1151560D01*
X445860Y1156400D01*
X448459Y1161600D01*
X450400Y1167080D01*
X451640Y1172760D01*
X452180Y1178540D01*
X452000Y1184360D01*
X451100Y1190100D01*
X449500Y1195680D01*
X447239Y1201040D01*
X444340Y1206060D01*
X440840Y1210700D01*
X436800Y1214880D01*
X432260Y1218520D01*
X427320Y1221580D01*
X422040Y1224000D01*
X416520Y1225760D01*
X414940Y1226060D01*
X413519Y1226620D01*
X412400Y1227700D01*
X411780Y1229100D01*
X411740Y1230640D01*
X412260Y1232080D01*
X413320Y1233220D01*
X414700Y1233880D01*
X419300Y1235020D01*
X424720Y1237120D01*
X429840Y1239880D01*
X434580Y1243240D01*
X438880Y1247140D01*
X442660Y1251560D01*
X445860Y1256400D01*
X448459Y1261600D01*
X450400Y1267080D01*
X451640Y1272760D01*
X452180Y1278540D01*
X452000Y1284360D01*
X451100Y1290100D01*
X449500Y1295680D01*
X447239Y1301040D01*
X444340Y1306060D01*
X440840Y1310700D01*
X436800Y1314880D01*
X432260Y1318520D01*
X427320Y1321579D01*
X422040Y1324000D01*
X416520Y1325760D01*
X414940Y1326060D01*
X413519Y1326620D01*
X412400Y1327700D01*
X411780Y1329100D01*
X411740Y1330640D01*
X412260Y1332080D01*
X413320Y1333220D01*
X414700Y1333880D01*
X419300Y1335020D01*
X424720Y1337120D01*
X429840Y1339880D01*
X434580Y1343240D01*
X438880Y1347140D01*
X442660Y1351560D01*
X445860Y1356399D01*
X448459Y1361600D01*
X450400Y1367080D01*
X451640Y1372760D01*
X452180Y1378540D01*
X452000Y1384360D01*
X451100Y1390100D01*
X449500Y1395680D01*
X447239Y1401040D01*
X444340Y1406060D01*
X440840Y1410700D01*
X436800Y1414880D01*
X432260Y1418520D01*
X427320Y1421579D01*
X422040Y1424000D01*
X416520Y1425760D01*
X414940Y1426060D01*
X413519Y1426620D01*
X412400Y1427700D01*
X411780Y1429100D01*
X411740Y1430640D01*
X412260Y1432080D01*
X413320Y1433220D01*
X414700Y1433880D01*
X419300Y1435020D01*
X424720Y1437120D01*
X429840Y1439880D01*
X434580Y1443240D01*
X438880Y1447140D01*
X442660Y1451560D01*
X445860Y1456399D01*
X448459Y1461600D01*
X450400Y1467080D01*
X451640Y1472760D01*
X452180Y1478540D01*
X452000Y1484360D01*
X451100Y1490100D01*
X449500Y1495680D01*
X447239Y1501040D01*
X444340Y1506060D01*
X440840Y1510700D01*
X436800Y1514880D01*
X432260Y1518520D01*
X427320Y1521579D01*
X422040Y1524000D01*
X416520Y1525760D01*
X414940Y1526060D01*
X413519Y1526620D01*
X412400Y1527700D01*
X411780Y1529100D01*
X411740Y1530640D01*
X412260Y1532080D01*
X413320Y1533220D01*
X414700Y1533880D01*
X419300Y1535020D01*
X424720Y1537120D01*
X429840Y1539880D01*
X434580Y1543240D01*
X438880Y1547140D01*
X442660Y1551560D01*
X445860Y1556399D01*
X448459Y1561600D01*
X450400Y1567080D01*
X451640Y1572760D01*
X452180Y1578540D01*
X452000Y1584360D01*
X451100Y1590100D01*
X449500Y1595680D01*
X447239Y1601040D01*
X444340Y1606060D01*
X440840Y1610700D01*
X436800Y1614880D01*
X432260Y1618520D01*
X427320Y1621579D01*
X422040Y1624000D01*
X416520Y1625760D01*
X414940Y1626060D01*
X413519Y1626620D01*
X412400Y1627700D01*
X411780Y1629100D01*
X411740Y1630640D01*
X412260Y1632080D01*
X413320Y1633220D01*
X414700Y1633880D01*
X419300Y1635020D01*
X424720Y1637120D01*
X429840Y1639880D01*
X434580Y1643240D01*
X438880Y1647140D01*
X442660Y1651560D01*
X445860Y1656399D01*
X448459Y1661600D01*
X450400Y1667080D01*
X451640Y1672760D01*
X452180Y1678540D01*
X452000Y1684360D01*
X451100Y1690100D01*
X449500Y1695680D01*
X447239Y1701040D01*
X444340Y1706060D01*
X440840Y1710700D01*
X436800Y1714880D01*
X432260Y1718520D01*
X427320Y1721579D01*
X422040Y1724000D01*
X416520Y1725760D01*
X414940Y1726060D01*
X413519Y1726620D01*
X412400Y1727700D01*
X411780Y1729100D01*
X411740Y1730640D01*
X412260Y1732080D01*
X413320Y1733220D01*
X414700Y1733880D01*
X419300Y1735020D01*
X424720Y1737120D01*
X429840Y1739880D01*
X434580Y1743240D01*
X438880Y1747140D01*
X442660Y1751560D01*
X445860Y1756399D01*
X448459Y1761600D01*
X450400Y1767080D01*
X451640Y1772760D01*
X452180Y1778540D01*
X452000Y1784360D01*
X451100Y1790100D01*
X449500Y1795680D01*
X447239Y1801040D01*
X444340Y1806060D01*
X440840Y1810700D01*
X436800Y1814880D01*
X432260Y1818520D01*
X427320Y1821579D01*
X422040Y1824000D01*
X416520Y1825760D01*
X414940Y1826060D01*
X413519Y1826620D01*
X412400Y1827700D01*
X411780Y1829100D01*
X411740Y1830640D01*
X412260Y1832080D01*
X413320Y1833220D01*
X414700Y1833880D01*
X419300Y1835020D01*
X424720Y1837120D01*
X429840Y1839880D01*
X434580Y1843240D01*
X438880Y1847140D01*
X442660Y1851560D01*
X445860Y1856399D01*
X448459Y1861600D01*
X450400Y1867080D01*
X451640Y1872760D01*
X452180Y1878540D01*
X452000Y1884360D01*
X451100Y1890100D01*
X449500Y1895680D01*
X447239Y1901040D01*
X444340Y1906060D01*
X440840Y1910700D01*
X436800Y1914880D01*
X432260Y1918520D01*
X427320Y1921579D01*
X422040Y1924000D01*
X416520Y1925760D01*
X414940Y1926060D01*
X413519Y1926620D01*
X412400Y1927700D01*
X411780Y1929100D01*
X411740Y1930640D01*
X412260Y1932080D01*
X413320Y1933220D01*
X414700Y1933880D01*
X419300Y1935020D01*
X424720Y1937120D01*
X429840Y1939880D01*
X434580Y1943240D01*
X438880Y1947140D01*
X442660Y1951560D01*
X445860Y1956399D01*
X448459Y1961600D01*
X450400Y1967080D01*
X451640Y1972760D01*
X452180Y1978540D01*
X452000Y1984360D01*
X451100Y1990100D01*
X449500Y1995680D01*
X447239Y2001040D01*
X444340Y2006060D01*
X440840Y2010700D01*
X436800Y2014880D01*
X432260Y2018520D01*
X427320Y2021579D01*
X422040Y2024000D01*
X416520Y2025760D01*
X414940Y2026060D01*
X413519Y2026620D01*
X412400Y2027700D01*
X411780Y2029100D01*
X411740Y2030640D01*
X412260Y2032080D01*
X413320Y2033220D01*
X414700Y2033880D01*
X419300Y2035020D01*
X424720Y2037120D01*
X429840Y2039880D01*
X434580Y2043240D01*
X438880Y2047140D01*
X442660Y2051560D01*
X445860Y2056399D01*
X448459Y2061600D01*
X450400Y2067080D01*
X451640Y2072760D01*
X452180Y2078540D01*
X452000Y2084360D01*
X451100Y2090100D01*
X449500Y2095680D01*
X447239Y2101040D01*
X444340Y2106060D01*
X440840Y2110700D01*
X436800Y2114880D01*
X432260Y2118520D01*
X427320Y2121580D01*
X422040Y2124000D01*
X416520Y2125760D01*
X414940Y2126060D01*
X413519Y2126620D01*
X412400Y2127700D01*
X411780Y2129100D01*
X411740Y2130640D01*
X412260Y2132080D01*
X413320Y2133220D01*
X414700Y2133880D01*
X419300Y2135020D01*
X424720Y2137120D01*
X429840Y2139880D01*
X434580Y2143240D01*
X438880Y2147140D01*
X442660Y2151560D01*
X445860Y2156400D01*
X448459Y2161600D01*
X450400Y2167080D01*
X451640Y2172760D01*
X452180Y2178540D01*
X452000Y2184360D01*
X451100Y2190100D01*
X449500Y2195680D01*
X447239Y2201040D01*
X444340Y2206060D01*
X440840Y2210700D01*
X436800Y2214880D01*
X432260Y2218520D01*
X427320Y2221580D01*
X422040Y2224000D01*
X416520Y2225760D01*
X414940Y2226060D01*
X413519Y2226620D01*
X412400Y2227700D01*
X411780Y2229100D01*
X411740Y2230640D01*
X412260Y2232080D01*
X413320Y2233220D01*
X414700Y2233880D01*
X419300Y2235020D01*
X424720Y2237120D01*
X429840Y2239880D01*
X434580Y2243240D01*
X438880Y2247140D01*
X442660Y2251560D01*
X445860Y2256400D01*
X448459Y2261600D01*
X450400Y2267080D01*
X451640Y2272760D01*
X452180Y2278540D01*
X452000Y2284360D01*
X451100Y2290100D01*
X449500Y2295680D01*
X447239Y2301040D01*
X444340Y2306060D01*
X440840Y2310700D01*
X436800Y2314880D01*
X432260Y2318520D01*
X427320Y2321580D01*
X422040Y2324000D01*
X416520Y2325760D01*
X414940Y2326060D01*
X413519Y2326620D01*
X412400Y2327700D01*
X411780Y2329100D01*
X411740Y2330640D01*
X412260Y2332080D01*
X413320Y2333220D01*
X414700Y2333880D01*
X419300Y2335020D01*
X424720Y2337120D01*
X429840Y2339880D01*
X434580Y2343240D01*
X438880Y2347140D01*
X442660Y2351560D01*
X445860Y2356400D01*
X448459Y2361600D01*
X450400Y2367080D01*
X451640Y2372760D01*
X452180Y2378540D01*
X452000Y2384360D01*
X451100Y2390100D01*
X449500Y2395680D01*
X447239Y2401040D01*
X444340Y2406060D01*
X440840Y2410700D01*
X436800Y2414880D01*
X432260Y2418520D01*
X427320Y2421580D01*
X422040Y2424000D01*
X416520Y2425760D01*
X414940Y2426060D01*
X413519Y2426620D01*
X412400Y2427700D01*
X411780Y2429100D01*
X411740Y2430640D01*
X412260Y2432080D01*
X413320Y2433220D01*
X414700Y2433880D01*
X419300Y2435020D01*
X424720Y2437120D01*
X429840Y2439880D01*
X434580Y2443240D01*
X438880Y2447140D01*
X442660Y2451560D01*
X445860Y2456400D01*
X448459Y2461600D01*
X450400Y2467080D01*
X451640Y2472760D01*
X452180Y2478540D01*
X452000Y2484360D01*
X451100Y2490100D01*
X449500Y2495680D01*
X447239Y2501040D01*
X444340Y2506060D01*
X440840Y2510700D01*
X436800Y2514880D01*
X432260Y2518520D01*
X427320Y2521580D01*
X422040Y2524000D01*
X416520Y2525760D01*
X414940Y2526060D01*
X413519Y2526620D01*
X412400Y2527700D01*
X411780Y2529100D01*
X411740Y2530640D01*
X412260Y2532080D01*
X413320Y2533220D01*
X414700Y2533880D01*
X419300Y2535020D01*
X424720Y2537120D01*
X429840Y2539880D01*
X434580Y2543240D01*
X438880Y2547140D01*
X442660Y2551560D01*
X445860Y2556400D01*
X448459Y2561600D01*
X450400Y2567080D01*
X451640Y2572760D01*
X452180Y2578540D01*
X452000Y2584360D01*
X451100Y2590100D01*
X449500Y2595680D01*
X447239Y2601040D01*
X444340Y2606060D01*
X440840Y2610700D01*
X436800Y2614880D01*
X432260Y2618519D01*
X427320Y2621580D01*
X422040Y2624000D01*
X416520Y2625760D01*
X414940Y2626060D01*
X413519Y2626620D01*
X412400Y2627700D01*
X411780Y2629100D01*
X411740Y2630640D01*
X412260Y2632080D01*
X413320Y2633220D01*
X414700Y2633880D01*
X419300Y2635020D01*
X424720Y2637120D01*
X429840Y2639880D01*
X434580Y2643240D01*
X438880Y2647140D01*
X442660Y2651560D01*
X445860Y2656400D01*
X448459Y2661600D01*
X450400Y2667080D01*
X451640Y2672760D01*
X452180Y2678540D01*
X452000Y2684360D01*
X451100Y2690100D01*
X449500Y2695680D01*
X447239Y2701040D01*
X444340Y2706060D01*
X440840Y2710700D01*
X436800Y2714880D01*
X432260Y2718519D01*
X427320Y2721580D01*
X422040Y2724000D01*
X416520Y2725760D01*
X414940Y2726060D01*
X413519Y2726620D01*
X412400Y2727700D01*
X411780Y2729100D01*
X411740Y2730640D01*
X412260Y2732080D01*
X413320Y2733220D01*
X414700Y2733880D01*
X419300Y2735020D01*
X424720Y2737120D01*
X429840Y2739880D01*
X434580Y2743240D01*
X438880Y2747140D01*
X442660Y2751560D01*
X445860Y2756400D01*
X448459Y2761600D01*
X450400Y2767080D01*
X451640Y2772760D01*
X452180Y2778540D01*
X452000Y2784360D01*
X451100Y2790100D01*
X449500Y2795680D01*
X447239Y2801040D01*
X444340Y2806060D01*
X440840Y2810700D01*
X436800Y2814880D01*
X432260Y2818519D01*
X427320Y2821580D01*
X422040Y2824000D01*
X416520Y2825760D01*
X410800Y2826840D01*
X405000Y2827200D01*
X399200Y2826840D01*
X393480Y2825760D01*
X387960Y2824000D01*
X382680Y2821580D01*
X377740Y2818519D01*
X373200Y2814880D01*
X369159Y2810700D01*
X365660Y2806060D01*
X362760Y2801040D01*
X360500Y2795680D01*
X358840Y2789920D01*
X358040Y2788399D01*
X356680Y2787380D01*
X355000Y2787000D01*
X353320Y2787380D01*
X351960Y2788399D01*
X351160Y2789920D01*
X349500Y2795680D01*
X347239Y2801040D01*
X344340Y2806060D01*
X340840Y2810700D01*
X336800Y2814880D01*
X332260Y2818519D01*
X327320Y2821580D01*
X322040Y2824000D01*
X316520Y2825760D01*
X310800Y2826840D01*
X305000Y2827200D01*
X299200Y2826840D01*
X293480Y2825760D01*
X287960Y2824000D01*
X282680Y2821580D01*
X277740Y2818519D01*
X273200Y2814880D01*
X269160Y2810700D01*
X265660Y2806060D01*
X262760Y2801040D01*
X260500Y2795680D01*
X258900Y2790100D01*
X258000Y2784360D01*
X257840Y2778540D01*
X258359Y2772760D01*
X259600Y2767080D01*
X261540Y2761600D01*
X264140Y2756400D01*
X267340Y2751560D01*
X271120Y2747140D01*
X275420Y2743240D01*
X280160Y2739880D01*
X285280Y2737120D01*
X290700Y2735020D01*
X295300Y2733880D01*
X296680Y2733220D01*
X297740Y2732080D01*
X298260Y2730640D01*
X298220Y2729100D01*
X297600Y2727700D01*
X296480Y2726620D01*
X295060Y2726060D01*
X293480Y2725760D01*
X287960Y2724000D01*
X282680Y2721580D01*
X277740Y2718519D01*
X273200Y2714880D01*
X269160Y2710700D01*
X265660Y2706060D01*
X262760Y2701040D01*
X260500Y2695680D01*
X258900Y2690100D01*
X258000Y2684360D01*
X257840Y2678540D01*
X258359Y2672760D01*
X259600Y2667080D01*
X261540Y2661600D01*
X264140Y2656400D01*
X267340Y2651560D01*
X271120Y2647140D01*
X275420Y2643240D01*
X280160Y2639880D01*
X285280Y2637120D01*
X290700Y2635020D01*
X295300Y2633880D01*
X296680Y2633220D01*
X297740Y2632080D01*
X298260Y2630640D01*
X298220Y2629100D01*
X297600Y2627700D01*
X296480Y2626620D01*
X295060Y2626060D01*
X293480Y2625760D01*
X287960Y2624000D01*
X282680Y2621580D01*
X277740Y2618519D01*
X273200Y2614880D01*
X269160Y2610700D01*
X265660Y2606060D01*
X262760Y2601040D01*
X260500Y2595680D01*
X258900Y2590100D01*
X258000Y2584360D01*
X257840Y2578540D01*
X258359Y2572760D01*
X259600Y2567080D01*
X261540Y2561600D01*
X264140Y2556400D01*
X267340Y2551560D01*
X271120Y2547140D01*
X275420Y2543240D01*
X280160Y2539880D01*
X285280Y2537120D01*
X290700Y2535020D01*
X295300Y2533880D01*
X296680Y2533220D01*
X297740Y2532080D01*
X298260Y2530640D01*
X298220Y2529100D01*
X297600Y2527700D01*
X296480Y2526620D01*
X295060Y2526060D01*
X293480Y2525760D01*
X287960Y2524000D01*
X282680Y2521580D01*
X277740Y2518520D01*
X273200Y2514880D01*
X269160Y2510700D01*
X265660Y2506060D01*
X262760Y2501040D01*
X260500Y2495680D01*
X258900Y2490100D01*
X258000Y2484360D01*
X257840Y2478540D01*
X258359Y2472760D01*
X259600Y2467080D01*
X261540Y2461600D01*
X264140Y2456400D01*
X267340Y2451560D01*
X271120Y2447140D01*
X275420Y2443240D01*
X280160Y2439880D01*
X285280Y2437120D01*
X290700Y2435020D01*
X295300Y2433880D01*
X296680Y2433220D01*
X297740Y2432080D01*
X298260Y2430640D01*
X298220Y2429100D01*
X297600Y2427700D01*
X296480Y2426620D01*
X295060Y2426060D01*
X293480Y2425760D01*
X287960Y2424000D01*
X282680Y2421580D01*
X277740Y2418520D01*
X273200Y2414880D01*
X269160Y2410700D01*
X265660Y2406060D01*
X262760Y2401040D01*
X260500Y2395680D01*
X258900Y2390100D01*
X258000Y2384360D01*
X257840Y2378540D01*
X258359Y2372760D01*
X259600Y2367080D01*
X261540Y2361600D01*
X264140Y2356400D01*
X267340Y2351560D01*
X271120Y2347140D01*
X275420Y2343240D01*
X280160Y2339880D01*
X285280Y2337120D01*
X290700Y2335020D01*
X295300Y2333880D01*
X296680Y2333220D01*
X297740Y2332080D01*
X298260Y2330640D01*
X298220Y2329100D01*
X297600Y2327700D01*
X296480Y2326620D01*
X295060Y2326060D01*
X293480Y2325760D01*
X287960Y2324000D01*
X282680Y2321580D01*
X277740Y2318520D01*
X273200Y2314880D01*
X269160Y2310700D01*
X265660Y2306060D01*
X262760Y2301040D01*
X260500Y2295680D01*
X258900Y2290100D01*
X258000Y2284360D01*
X257840Y2278540D01*
X258359Y2272760D01*
X259600Y2267080D01*
X261540Y2261600D01*
X264140Y2256400D01*
X267340Y2251560D01*
X271120Y2247140D01*
X275420Y2243240D01*
X280160Y2239880D01*
X285280Y2237120D01*
X290700Y2235020D01*
X295300Y2233880D01*
X296680Y2233220D01*
X297740Y2232080D01*
X298260Y2230640D01*
X298220Y2229100D01*
X297600Y2227700D01*
X296480Y2226620D01*
X295060Y2226060D01*
X293480Y2225760D01*
X287960Y2224000D01*
X282680Y2221580D01*
X277740Y2218520D01*
X273200Y2214880D01*
X269160Y2210700D01*
X265660Y2206060D01*
X262760Y2201040D01*
X260500Y2195680D01*
X258900Y2190100D01*
X258000Y2184360D01*
X257840Y2178540D01*
X258359Y2172760D01*
X259600Y2167080D01*
X261540Y2161600D01*
X264140Y2156400D01*
X267340Y2151560D01*
X271120Y2147140D01*
X275420Y2143240D01*
X280160Y2139880D01*
X285280Y2137120D01*
X290700Y2135020D01*
X295300Y2133880D01*
X296680Y2133220D01*
X297740Y2132080D01*
X298260Y2130640D01*
X298220Y2129100D01*
X297600Y2127700D01*
X296480Y2126620D01*
X295060Y2126060D01*
X293480Y2125760D01*
X287960Y2124000D01*
X282680Y2121580D01*
X277740Y2118520D01*
X273200Y2114880D01*
X269160Y2110700D01*
X265660Y2106060D01*
X262760Y2101040D01*
X260500Y2095680D01*
X258900Y2090100D01*
X258000Y2084360D01*
X257840Y2078540D01*
X258359Y2072760D01*
X259600Y2067080D01*
X261540Y2061600D01*
X264140Y2056399D01*
X267340Y2051560D01*
X271120Y2047140D01*
X275420Y2043240D01*
X280160Y2039880D01*
X285280Y2037120D01*
X290700Y2035020D01*
X295300Y2033880D01*
X296680Y2033220D01*
X297740Y2032080D01*
X298260Y2030640D01*
X298220Y2029100D01*
X297600Y2027700D01*
X296480Y2026620D01*
X295060Y2026060D01*
X293480Y2025760D01*
X287960Y2024000D01*
X282680Y2021579D01*
X277740Y2018520D01*
X273200Y2014880D01*
X269160Y2010700D01*
X265660Y2006060D01*
X262760Y2001040D01*
X260500Y1995680D01*
X258900Y1990100D01*
X258000Y1984360D01*
X257840Y1978540D01*
X258359Y1972760D01*
X259600Y1967080D01*
X261540Y1961600D01*
X264140Y1956399D01*
X267340Y1951560D01*
X271120Y1947140D01*
X275420Y1943240D01*
X280160Y1939880D01*
X285280Y1937120D01*
X290700Y1935020D01*
X295300Y1933880D01*
X296680Y1933220D01*
X297740Y1932080D01*
X298260Y1930640D01*
X298220Y1929100D01*
X297600Y1927700D01*
X296480Y1926620D01*
X295060Y1926060D01*
X293480Y1925760D01*
X287960Y1924000D01*
X282680Y1921579D01*
X277740Y1918520D01*
X273200Y1914880D01*
X269160Y1910700D01*
X265660Y1906060D01*
X262760Y1901040D01*
X260500Y1895680D01*
X258900Y1890100D01*
X258000Y1884360D01*
X257840Y1878540D01*
X258359Y1872760D01*
X259600Y1867080D01*
X261540Y1861600D01*
X264140Y1856399D01*
X267340Y1851560D01*
X271120Y1847140D01*
X275420Y1843240D01*
X280160Y1839880D01*
X285280Y1837120D01*
X290700Y1835020D01*
X295300Y1833880D01*
X296680Y1833220D01*
X297740Y1832080D01*
X298260Y1830640D01*
X298220Y1829100D01*
X297600Y1827700D01*
X296480Y1826620D01*
X295060Y1826060D01*
X293480Y1825760D01*
X287960Y1824000D01*
X282680Y1821579D01*
X277740Y1818520D01*
X273200Y1814880D01*
X269160Y1810700D01*
X265660Y1806060D01*
X262760Y1801040D01*
X260500Y1795680D01*
X258900Y1790100D01*
X258000Y1784360D01*
X257840Y1778540D01*
X258359Y1772760D01*
X259600Y1767080D01*
X261540Y1761600D01*
X264140Y1756399D01*
X267340Y1751560D01*
X271120Y1747140D01*
X275420Y1743240D01*
X280160Y1739880D01*
X285280Y1737120D01*
X290700Y1735020D01*
X295300Y1733880D01*
X296680Y1733220D01*
X297740Y1732080D01*
X298260Y1730640D01*
X298220Y1729100D01*
X297600Y1727700D01*
X296480Y1726620D01*
X295060Y1726060D01*
X293480Y1725760D01*
X287960Y1724000D01*
X282680Y1721579D01*
X277740Y1718520D01*
X273200Y1714880D01*
X269160Y1710700D01*
X265660Y1706060D01*
X262760Y1701040D01*
X260500Y1695680D01*
X258900Y1690100D01*
X258000Y1684360D01*
X257840Y1678540D01*
X258359Y1672760D01*
X259600Y1667080D01*
X261540Y1661600D01*
X264140Y1656399D01*
X267340Y1651560D01*
X271120Y1647140D01*
X275420Y1643240D01*
X280160Y1639880D01*
X285280Y1637120D01*
X290700Y1635020D01*
X295300Y1633880D01*
X296680Y1633220D01*
X297740Y1632080D01*
X298260Y1630640D01*
X298220Y1629100D01*
X297600Y1627700D01*
X296480Y1626620D01*
X295060Y1626060D01*
X293480Y1625760D01*
X287960Y1624000D01*
X282680Y1621579D01*
X277740Y1618520D01*
X273200Y1614880D01*
X269160Y1610700D01*
X265660Y1606060D01*
X262760Y1601040D01*
X260500Y1595680D01*
X258900Y1590100D01*
X258000Y1584360D01*
X257840Y1578540D01*
X258359Y1572760D01*
X259600Y1567080D01*
X261540Y1561600D01*
X264140Y1556399D01*
X267340Y1551560D01*
X271120Y1547140D01*
X275420Y1543240D01*
X280160Y1539880D01*
X285280Y1537120D01*
X290700Y1535020D01*
X295300Y1533880D01*
X296680Y1533220D01*
X297740Y1532080D01*
X298260Y1530640D01*
X298220Y1529100D01*
X297600Y1527700D01*
X296480Y1526620D01*
X295060Y1526060D01*
X293480Y1525760D01*
X287960Y1524000D01*
X282680Y1521579D01*
X277740Y1518520D01*
X273200Y1514880D01*
X269160Y1510700D01*
X265660Y1506060D01*
X262760Y1501040D01*
X260500Y1495680D01*
X258900Y1490100D01*
X258000Y1484360D01*
X257840Y1478540D01*
X258359Y1472760D01*
X259600Y1467080D01*
X261540Y1461600D01*
X264140Y1456399D01*
X267340Y1451560D01*
X271120Y1447140D01*
X275420Y1443240D01*
X280160Y1439880D01*
X285280Y1437120D01*
X290700Y1435020D01*
X295300Y1433880D01*
X296680Y1433220D01*
X297740Y1432080D01*
X298260Y1430640D01*
X298220Y1429100D01*
X297600Y1427700D01*
X296480Y1426620D01*
X295060Y1426060D01*
X293480Y1425760D01*
X287960Y1424000D01*
X282680Y1421579D01*
X277740Y1418520D01*
X273200Y1414880D01*
X269160Y1410700D01*
X265660Y1406060D01*
X262760Y1401040D01*
X260500Y1395680D01*
X258900Y1390100D01*
X258000Y1384360D01*
X257840Y1378540D01*
X258359Y1372760D01*
X259600Y1367080D01*
X261540Y1361600D01*
X264140Y1356399D01*
X267340Y1351560D01*
X271120Y1347140D01*
X275420Y1343240D01*
X280160Y1339880D01*
X285280Y1337120D01*
X290700Y1335020D01*
X295300Y1333880D01*
X296680Y1333220D01*
X297740Y1332080D01*
X298260Y1330640D01*
X298220Y1329100D01*
X297600Y1327700D01*
X296480Y1326620D01*
X295060Y1326060D01*
X293480Y1325760D01*
X287960Y1324000D01*
X282680Y1321579D01*
X277740Y1318520D01*
X273200Y1314880D01*
X269160Y1310700D01*
X265660Y1306060D01*
X262760Y1301040D01*
X260500Y1295680D01*
X258900Y1290100D01*
X258000Y1284360D01*
X257840Y1278540D01*
X258359Y1272760D01*
X259600Y1267080D01*
X261540Y1261600D01*
X264140Y1256400D01*
X267340Y1251560D01*
X271120Y1247140D01*
X275420Y1243240D01*
X280160Y1239880D01*
X285280Y1237120D01*
X290700Y1235020D01*
X295300Y1233880D01*
X296680Y1233220D01*
X297740Y1232080D01*
X298260Y1230640D01*
X298220Y1229100D01*
X297600Y1227700D01*
X296480Y1226620D01*
X295060Y1226060D01*
X293480Y1225760D01*
X287960Y1224000D01*
X282680Y1221580D01*
X277740Y1218520D01*
X273200Y1214880D01*
X269160Y1210700D01*
X265660Y1206060D01*
X262760Y1201040D01*
X260500Y1195680D01*
X258900Y1190100D01*
X258000Y1184360D01*
X257840Y1178540D01*
X258359Y1172760D01*
X259600Y1167080D01*
X261540Y1161600D01*
X264140Y1156400D01*
X267340Y1151560D01*
X271120Y1147140D01*
X275420Y1143240D01*
X280160Y1139880D01*
X285280Y1137120D01*
X290700Y1135020D01*
X295300Y1133880D01*
X296680Y1133220D01*
X297740Y1132080D01*
X298260Y1130640D01*
X298220Y1129100D01*
X297600Y1127700D01*
X296480Y1126620D01*
X295060Y1126060D01*
X293480Y1125760D01*
X287960Y1124000D01*
X282680Y1121580D01*
X277740Y1118520D01*
X273200Y1114880D01*
X269160Y1110700D01*
X265660Y1106060D01*
X262760Y1101040D01*
X260500Y1095680D01*
X258900Y1090100D01*
X258000Y1084360D01*
X257840Y1078540D01*
X258359Y1072760D01*
X259600Y1067080D01*
X261540Y1061600D01*
X264140Y1056400D01*
X267340Y1051560D01*
X271120Y1047140D01*
X275420Y1043240D01*
X280160Y1039880D01*
X285280Y1037120D01*
X290700Y1035020D01*
X295300Y1033880D01*
X296680Y1033220D01*
X297740Y1032080D01*
X298260Y1030639D01*
X298220Y1029100D01*
X297600Y1027700D01*
X296480Y1026620D01*
X295060Y1026060D01*
X293480Y1025759D01*
X287960Y1024000D01*
X282680Y1021580D01*
X277740Y1018520D01*
X273200Y1014880D01*
X269160Y1010699D01*
X265660Y1006060D01*
X262760Y1001040D01*
X260500Y995680D01*
X258900Y990100D01*
X258000Y984360D01*
X257840Y978540D01*
X258359Y972760D01*
X259600Y967080D01*
X261540Y961600D01*
X264140Y956400D01*
X267340Y951560D01*
X271120Y947140D01*
X275420Y943240D01*
X280160Y939880D01*
X285280Y937120D01*
X290700Y935020D01*
X295300Y933880D01*
X296680Y933220D01*
X297740Y932080D01*
X298260Y930639D01*
X298220Y929100D01*
X297600Y927700D01*
X296480Y926620D01*
X295060Y926060D01*
X293480Y925759D01*
X287960Y924000D01*
X282680Y921580D01*
X277740Y918520D01*
X273200Y914880D01*
X269160Y910699D01*
X265660Y906060D01*
X262760Y901040D01*
X260500Y895680D01*
X258900Y890100D01*
X258000Y884360D01*
X257840Y878540D01*
X258359Y872760D01*
X259600Y867080D01*
X261540Y861600D01*
X264140Y856400D01*
X267340Y851560D01*
X271120Y847140D01*
X275420Y843240D01*
X280160Y839880D01*
X285280Y837120D01*
X290700Y835020D01*
X295300Y833880D01*
X296680Y833220D01*
X297740Y832080D01*
X298260Y830639D01*
X298220Y829100D01*
X297600Y827700D01*
X296480Y826620D01*
X295060Y826060D01*
X293480Y825759D01*
X287960Y824000D01*
X282680Y821580D01*
X277740Y818520D01*
X273200Y814880D01*
X269160Y810699D01*
X265660Y806060D01*
X262760Y801040D01*
X260500Y795680D01*
X258900Y790100D01*
X258000Y784360D01*
X257840Y778540D01*
X258359Y772760D01*
X259600Y767080D01*
X261540Y761600D01*
X264140Y756400D01*
X267340Y751560D01*
X271120Y747140D01*
X275420Y743240D01*
X280160Y739880D01*
X285280Y737120D01*
X290700Y735020D01*
X295300Y733880D01*
X296680Y733220D01*
X297740Y732080D01*
X298260Y730639D01*
X298220Y729100D01*
X297600Y727700D01*
X296480Y726620D01*
X295060Y726060D01*
X293480Y725759D01*
X287960Y724000D01*
X282680Y721580D01*
X277740Y718520D01*
X273200Y714880D01*
X269160Y710699D01*
X265660Y706060D01*
X262760Y701040D01*
X260500Y695680D01*
X258900Y690100D01*
X258000Y684360D01*
X257840Y678540D01*
X258359Y672760D01*
X259600Y667080D01*
X261540Y661600D01*
X264140Y656400D01*
X267340Y651560D01*
X271120Y647140D01*
X275420Y643240D01*
X280160Y639880D01*
X285280Y637120D01*
X290700Y635020D01*
X295300Y633880D01*
X296680Y633220D01*
X297740Y632080D01*
X298260Y630640D01*
X298220Y629100D01*
X297600Y627700D01*
X296480Y626620D01*
X295060Y626060D01*
X293480Y625760D01*
X287960Y624000D01*
X282680Y621580D01*
X277740Y618520D01*
X273200Y614880D01*
X269160Y610700D01*
X265660Y606060D01*
X262760Y601040D01*
X260500Y595680D01*
X258900Y590100D01*
X258000Y584360D01*
X257840Y578540D01*
X258359Y572760D01*
X259600Y567080D01*
X261540Y561600D01*
X264140Y556400D01*
X267340Y551560D01*
X271120Y547140D01*
X275420Y543240D01*
X280160Y539880D01*
X285280Y537120D01*
X290700Y535020D01*
X296320Y533620D01*
X302100Y532900D01*
X307900Y532900D01*
X313680Y533620D01*
X319300Y535020D01*
X324720Y537120D01*
X329840Y539880D01*
X334580Y543240D01*
X338880Y547140D01*
X342660Y551560D01*
X345860Y556400D01*
X348459Y561600D01*
X350020Y566060D01*
X350840Y567420D01*
X352120Y568360D01*
X353680Y568720D01*
X355240Y568460D01*
X356580Y567600D01*
X357480Y566280D01*
X357800Y564720D01*
X357800Y543220D01*
X358080Y540740D01*
X358840Y538580D01*
X360040Y536660D01*
X361659Y535040D01*
X363579Y533840D01*
X365740Y533080D01*
G37*
G36*
X2184000Y537820D02*
G01*
X2184000Y559000D01*
X2162840Y559000D01*
X2164140Y556400D01*
X2167340Y551560D01*
X2171120Y547140D01*
X2175420Y543240D01*
X2180160Y539880D01*
G37*
G36*
X2226000Y537820D02*
G01*
X2229840Y539880D01*
X2234580Y543240D01*
X2238880Y547140D01*
X2242660Y551560D01*
X2245860Y556400D01*
X2247160Y559000D01*
X2226000Y559000D01*
G37*
G36*
X4535000Y558800D02*
G01*
X4540380Y559160D01*
X4545660Y560220D01*
X4550760Y561940D01*
X4555600Y564320D01*
X4560080Y567320D01*
X4564120Y570880D01*
X4567680Y574920D01*
X4570680Y579400D01*
X4573060Y584240D01*
X4574780Y589340D01*
X4575840Y594620D01*
X4576200Y600000D01*
X4575840Y605380D01*
X4574780Y610660D01*
X4573060Y615760D01*
X4570680Y620600D01*
X4567680Y625080D01*
X4564120Y629120D01*
X4560080Y632680D01*
X4555600Y635680D01*
X4550760Y638060D01*
X4545660Y639780D01*
X4540380Y640840D01*
X4535000Y641200D01*
X4529620Y640840D01*
X4524340Y639780D01*
X4519240Y638060D01*
X4514400Y635680D01*
X4509920Y632680D01*
X4505880Y629120D01*
X4502320Y625080D01*
X4499320Y620600D01*
X4496940Y615760D01*
X4495220Y610660D01*
X4494160Y605380D01*
X4493800Y600000D01*
X4494160Y594620D01*
X4495220Y589340D01*
X4496940Y584240D01*
X4499320Y579400D01*
X4502320Y574920D01*
X4505880Y570880D01*
X4509920Y567320D01*
X4514400Y564320D01*
X4519240Y561940D01*
X4524340Y560220D01*
X4529620Y559160D01*
G37*
G36*
X3037700Y590300D02*
G01*
X3096259Y590300D01*
X3098740Y590580D01*
X3100899Y591340D01*
X3102820Y592540D01*
X3104440Y594160D01*
X3105659Y596080D01*
X3106400Y598240D01*
X3106680Y600720D01*
X3106680Y659280D01*
X3106400Y661760D01*
X3105659Y663920D01*
X3104440Y665840D01*
X3102820Y667460D01*
X3100899Y668660D01*
X3098740Y669419D01*
X3096259Y669700D01*
X3037700Y669700D01*
X3035220Y669419D01*
X3033080Y668660D01*
X3031139Y667460D01*
X3029540Y665840D01*
X3028320Y663920D01*
X3027559Y661760D01*
X3027280Y659280D01*
X3027280Y600720D01*
X3027559Y598240D01*
X3028320Y596080D01*
X3029540Y594160D01*
X3031139Y592540D01*
X3033080Y591340D01*
X3035220Y590580D01*
G37*
G36*
X3465659Y590340D02*
G01*
X3470960Y590500D01*
X3476180Y591400D01*
X3481259Y592960D01*
X3486060Y595200D01*
X3490520Y598040D01*
X3494580Y601460D01*
X3498140Y605400D01*
X3501139Y609780D01*
X3503519Y614500D01*
X3505260Y619520D01*
X3506320Y624700D01*
X3506680Y630000D01*
X3506320Y635300D01*
X3505260Y640480D01*
X3503519Y645500D01*
X3501139Y650220D01*
X3498140Y654599D01*
X3494580Y658540D01*
X3490520Y661960D01*
X3486060Y664800D01*
X3481259Y667039D01*
X3476180Y668600D01*
X3470960Y669500D01*
X3465659Y669659D01*
X3460380Y669140D01*
X3455220Y667900D01*
X3450280Y666000D01*
X3445620Y663460D01*
X3441360Y660320D01*
X3437540Y656620D01*
X3434260Y652460D01*
X3431560Y647900D01*
X3429500Y643020D01*
X3428080Y637900D01*
X3427380Y632660D01*
X3427380Y627340D01*
X3428080Y622100D01*
X3429500Y616980D01*
X3431560Y612100D01*
X3434260Y607540D01*
X3437540Y603380D01*
X3441360Y599680D01*
X3445620Y596540D01*
X3450280Y594000D01*
X3455220Y592100D01*
X3460380Y590860D01*
G37*
G36*
X3565659Y590340D02*
G01*
X3570960Y590500D01*
X3576180Y591400D01*
X3581259Y592960D01*
X3586060Y595200D01*
X3590520Y598040D01*
X3594580Y601460D01*
X3598140Y605400D01*
X3601139Y609780D01*
X3603519Y614500D01*
X3605260Y619520D01*
X3606320Y624700D01*
X3606680Y630000D01*
X3606320Y635300D01*
X3605260Y640480D01*
X3603519Y645500D01*
X3601139Y650220D01*
X3598140Y654599D01*
X3594580Y658540D01*
X3590520Y661960D01*
X3586060Y664800D01*
X3581259Y667039D01*
X3576180Y668600D01*
X3570960Y669500D01*
X3565659Y669659D01*
X3560380Y669140D01*
X3555220Y667900D01*
X3550280Y666000D01*
X3545620Y663460D01*
X3541360Y660320D01*
X3537540Y656620D01*
X3534260Y652460D01*
X3531560Y647900D01*
X3529500Y643020D01*
X3528080Y637900D01*
X3527380Y632660D01*
X3527380Y627340D01*
X3528080Y622100D01*
X3529500Y616980D01*
X3531560Y612100D01*
X3534260Y607540D01*
X3537540Y603380D01*
X3541360Y599680D01*
X3545620Y596540D01*
X3550280Y594000D01*
X3555220Y592100D01*
X3560380Y590860D01*
G37*
G36*
X3365659Y590340D02*
G01*
X3370960Y590500D01*
X3376180Y591400D01*
X3381259Y592960D01*
X3386060Y595200D01*
X3390520Y598040D01*
X3394580Y601460D01*
X3398140Y605400D01*
X3401139Y609780D01*
X3403519Y614500D01*
X3405260Y619520D01*
X3406320Y624700D01*
X3406680Y630000D01*
X3406320Y635300D01*
X3405260Y640480D01*
X3403519Y645500D01*
X3401139Y650220D01*
X3398140Y654599D01*
X3394580Y658540D01*
X3390520Y661960D01*
X3386060Y664800D01*
X3381259Y667039D01*
X3376180Y668600D01*
X3370960Y669500D01*
X3365659Y669659D01*
X3360380Y669140D01*
X3355220Y667900D01*
X3350280Y666000D01*
X3345620Y663460D01*
X3341360Y660320D01*
X3337540Y656620D01*
X3334260Y652460D01*
X3331560Y647900D01*
X3329500Y643020D01*
X3328080Y637900D01*
X3327380Y632660D01*
X3327380Y627340D01*
X3328080Y622100D01*
X3329500Y616980D01*
X3331560Y612100D01*
X3334260Y607540D01*
X3337540Y603380D01*
X3341360Y599680D01*
X3345620Y596540D01*
X3350280Y594000D01*
X3355220Y592100D01*
X3360380Y590860D01*
G37*
G36*
X3665659Y590340D02*
G01*
X3670960Y590500D01*
X3676180Y591400D01*
X3681259Y592960D01*
X3686060Y595200D01*
X3690520Y598040D01*
X3694580Y601460D01*
X3698140Y605400D01*
X3701139Y609780D01*
X3703519Y614500D01*
X3705260Y619520D01*
X3706320Y624700D01*
X3706680Y630000D01*
X3706320Y635300D01*
X3705260Y640480D01*
X3703519Y645500D01*
X3701139Y650220D01*
X3698140Y654599D01*
X3694580Y658540D01*
X3690520Y661960D01*
X3686060Y664800D01*
X3681259Y667039D01*
X3676180Y668600D01*
X3670960Y669500D01*
X3665659Y669659D01*
X3660380Y669140D01*
X3655220Y667900D01*
X3650280Y666000D01*
X3645620Y663460D01*
X3641360Y660320D01*
X3637540Y656620D01*
X3634260Y652460D01*
X3631560Y647900D01*
X3629500Y643020D01*
X3628080Y637900D01*
X3627380Y632660D01*
X3627380Y627340D01*
X3628080Y622100D01*
X3629500Y616980D01*
X3631560Y612100D01*
X3634260Y607540D01*
X3637540Y603380D01*
X3641360Y599680D01*
X3645620Y596540D01*
X3650280Y594000D01*
X3655220Y592100D01*
X3660380Y590860D01*
G37*
G36*
X3965659Y590340D02*
G01*
X3970960Y590500D01*
X3976180Y591400D01*
X3981259Y592960D01*
X3986060Y595200D01*
X3990520Y598040D01*
X3994580Y601460D01*
X3998140Y605400D01*
X4001139Y609780D01*
X4003519Y614500D01*
X4005260Y619520D01*
X4006320Y624700D01*
X4006680Y630000D01*
X4006320Y635300D01*
X4005260Y640480D01*
X4003519Y645500D01*
X4001139Y650220D01*
X3998140Y654599D01*
X3994580Y658540D01*
X3990520Y661960D01*
X3986060Y664800D01*
X3981259Y667039D01*
X3976180Y668600D01*
X3970960Y669500D01*
X3965659Y669659D01*
X3960380Y669140D01*
X3955220Y667900D01*
X3950280Y666000D01*
X3945620Y663460D01*
X3941360Y660320D01*
X3937540Y656620D01*
X3934260Y652460D01*
X3931560Y647900D01*
X3929500Y643020D01*
X3928080Y637900D01*
X3927380Y632660D01*
X3927380Y627340D01*
X3928080Y622100D01*
X3929500Y616980D01*
X3931560Y612100D01*
X3934260Y607540D01*
X3937540Y603380D01*
X3941360Y599680D01*
X3945620Y596540D01*
X3950280Y594000D01*
X3955220Y592100D01*
X3960380Y590860D01*
G37*
G36*
X3265659Y590340D02*
G01*
X3270960Y590500D01*
X3276180Y591400D01*
X3281259Y592960D01*
X3286060Y595200D01*
X3290520Y598040D01*
X3294580Y601460D01*
X3298140Y605400D01*
X3301139Y609780D01*
X3303519Y614500D01*
X3305260Y619520D01*
X3306320Y624700D01*
X3306680Y630000D01*
X3306320Y635300D01*
X3305260Y640480D01*
X3303519Y645500D01*
X3301139Y650220D01*
X3298140Y654599D01*
X3294580Y658540D01*
X3290520Y661960D01*
X3286060Y664800D01*
X3281259Y667039D01*
X3276180Y668600D01*
X3270960Y669500D01*
X3265659Y669659D01*
X3260380Y669140D01*
X3255220Y667900D01*
X3250280Y666000D01*
X3245620Y663460D01*
X3241360Y660320D01*
X3237540Y656620D01*
X3234260Y652460D01*
X3231560Y647900D01*
X3229500Y643020D01*
X3228080Y637900D01*
X3227380Y632660D01*
X3227380Y627340D01*
X3228080Y622100D01*
X3229500Y616980D01*
X3231560Y612100D01*
X3234260Y607540D01*
X3237540Y603380D01*
X3241360Y599680D01*
X3245620Y596540D01*
X3250280Y594000D01*
X3255220Y592100D01*
X3260380Y590860D01*
G37*
G36*
X3865659Y590340D02*
G01*
X3870960Y590500D01*
X3876180Y591400D01*
X3881259Y592960D01*
X3886060Y595200D01*
X3890520Y598040D01*
X3894580Y601460D01*
X3898140Y605400D01*
X3901139Y609780D01*
X3903519Y614500D01*
X3905260Y619520D01*
X3906320Y624700D01*
X3906680Y630000D01*
X3906320Y635300D01*
X3905260Y640480D01*
X3903519Y645500D01*
X3901139Y650220D01*
X3898140Y654599D01*
X3894580Y658540D01*
X3890520Y661960D01*
X3886060Y664800D01*
X3881259Y667039D01*
X3876180Y668600D01*
X3870960Y669500D01*
X3865659Y669659D01*
X3860380Y669140D01*
X3855220Y667900D01*
X3850280Y666000D01*
X3845620Y663460D01*
X3841360Y660320D01*
X3837540Y656620D01*
X3834260Y652460D01*
X3831560Y647900D01*
X3829500Y643020D01*
X3828080Y637900D01*
X3827380Y632660D01*
X3827380Y627340D01*
X3828080Y622100D01*
X3829500Y616980D01*
X3831560Y612100D01*
X3834260Y607540D01*
X3837540Y603380D01*
X3841360Y599680D01*
X3845620Y596540D01*
X3850280Y594000D01*
X3855220Y592100D01*
X3860380Y590860D01*
G37*
G36*
X3765659Y590340D02*
G01*
X3770960Y590500D01*
X3776180Y591400D01*
X3781259Y592960D01*
X3786060Y595200D01*
X3790520Y598040D01*
X3794580Y601460D01*
X3798140Y605400D01*
X3801139Y609780D01*
X3803519Y614500D01*
X3805260Y619520D01*
X3806320Y624700D01*
X3806680Y630000D01*
X3806320Y635300D01*
X3805260Y640480D01*
X3803519Y645500D01*
X3801139Y650220D01*
X3798140Y654599D01*
X3794580Y658540D01*
X3790520Y661960D01*
X3786060Y664800D01*
X3781259Y667039D01*
X3776180Y668600D01*
X3770960Y669500D01*
X3765659Y669659D01*
X3760380Y669140D01*
X3755220Y667900D01*
X3750280Y666000D01*
X3745620Y663460D01*
X3741360Y660320D01*
X3737540Y656620D01*
X3734260Y652460D01*
X3731560Y647900D01*
X3729500Y643020D01*
X3728080Y637900D01*
X3727380Y632660D01*
X3727380Y627340D01*
X3728080Y622100D01*
X3729500Y616980D01*
X3731560Y612100D01*
X3734260Y607540D01*
X3737540Y603380D01*
X3741360Y599680D01*
X3745620Y596540D01*
X3750280Y594000D01*
X3755220Y592100D01*
X3760380Y590860D01*
G37*
G36*
X3165659Y590340D02*
G01*
X3170960Y590500D01*
X3176180Y591400D01*
X3181259Y592960D01*
X3186060Y595200D01*
X3190520Y598040D01*
X3194580Y601460D01*
X3198140Y605400D01*
X3201139Y609780D01*
X3203519Y614500D01*
X3205260Y619520D01*
X3206320Y624700D01*
X3206680Y630000D01*
X3206320Y635300D01*
X3205260Y640480D01*
X3203519Y645500D01*
X3201139Y650220D01*
X3198140Y654599D01*
X3194580Y658540D01*
X3190520Y661960D01*
X3186060Y664800D01*
X3181259Y667039D01*
X3176180Y668600D01*
X3170960Y669500D01*
X3165659Y669659D01*
X3160380Y669140D01*
X3155220Y667900D01*
X3150280Y666000D01*
X3145620Y663460D01*
X3141360Y660320D01*
X3137540Y656620D01*
X3134260Y652460D01*
X3131560Y647900D01*
X3129500Y643020D01*
X3128080Y637900D01*
X3127380Y632660D01*
X3127380Y627340D01*
X3128080Y622100D01*
X3129500Y616980D01*
X3131560Y612100D01*
X3134260Y607540D01*
X3137540Y603380D01*
X3141360Y599680D01*
X3145620Y596540D01*
X3150280Y594000D01*
X3155220Y592100D01*
X3160380Y590860D01*
G37*
G36*
X4165659Y590340D02*
G01*
X4170960Y590500D01*
X4176180Y591400D01*
X4181259Y592960D01*
X4186060Y595200D01*
X4190520Y598040D01*
X4194580Y601460D01*
X4198140Y605400D01*
X4201140Y609780D01*
X4203520Y614500D01*
X4205260Y619520D01*
X4206320Y624700D01*
X4206680Y630000D01*
X4206320Y635300D01*
X4205260Y640480D01*
X4203520Y645500D01*
X4201140Y650220D01*
X4198140Y654599D01*
X4194580Y658540D01*
X4190520Y661960D01*
X4186060Y664800D01*
X4181259Y667039D01*
X4176180Y668600D01*
X4170960Y669500D01*
X4165659Y669659D01*
X4160380Y669140D01*
X4155220Y667900D01*
X4150280Y666000D01*
X4145620Y663460D01*
X4141360Y660320D01*
X4137540Y656620D01*
X4134260Y652460D01*
X4131560Y647900D01*
X4129500Y643020D01*
X4128080Y637900D01*
X4127380Y632660D01*
X4127380Y627340D01*
X4128080Y622100D01*
X4129500Y616980D01*
X4131560Y612100D01*
X4134260Y607540D01*
X4137540Y603380D01*
X4141360Y599680D01*
X4145620Y596540D01*
X4150280Y594000D01*
X4155220Y592100D01*
X4160380Y590860D01*
G37*
G36*
X4065659Y590340D02*
G01*
X4070960Y590500D01*
X4076180Y591400D01*
X4081259Y592960D01*
X4086060Y595200D01*
X4090520Y598040D01*
X4094580Y601460D01*
X4098140Y605400D01*
X4101139Y609780D01*
X4103519Y614500D01*
X4105260Y619520D01*
X4106320Y624700D01*
X4106680Y630000D01*
X4106320Y635300D01*
X4105260Y640480D01*
X4103519Y645500D01*
X4101139Y650220D01*
X4098140Y654599D01*
X4094580Y658540D01*
X4090520Y661960D01*
X4086060Y664800D01*
X4081259Y667039D01*
X4076180Y668600D01*
X4070960Y669500D01*
X4065659Y669659D01*
X4060380Y669140D01*
X4055220Y667900D01*
X4050280Y666000D01*
X4045620Y663460D01*
X4041360Y660320D01*
X4037540Y656620D01*
X4034260Y652460D01*
X4031560Y647900D01*
X4029500Y643020D01*
X4028080Y637900D01*
X4027380Y632660D01*
X4027380Y627340D01*
X4028080Y622100D01*
X4029500Y616980D01*
X4031560Y612100D01*
X4034260Y607540D01*
X4037540Y603380D01*
X4041360Y599680D01*
X4045620Y596540D01*
X4050280Y594000D01*
X4055220Y592100D01*
X4060380Y590860D01*
G37*
G36*
X2226000Y601000D02*
G01*
X2247260Y601000D01*
X2244340Y606060D01*
X2240840Y610700D01*
X2236800Y614880D01*
X2232260Y618520D01*
X2227320Y621580D01*
X2226000Y622180D01*
G37*
G36*
X2162740Y601000D02*
G01*
X2184000Y601000D01*
X2184000Y622180D01*
X2182680Y621580D01*
X2177740Y618520D01*
X2173200Y614880D01*
X2169160Y610700D01*
X2165660Y606060D01*
G37*
G36*
X2257800Y601000D02*
G01*
X2284000Y601000D01*
X2284000Y627200D01*
X2268220Y627200D01*
X2265740Y626920D01*
X2263580Y626160D01*
X2261660Y624960D01*
X2260040Y623340D01*
X2258840Y621420D01*
X2258080Y619260D01*
X2257800Y616780D01*
G37*
G36*
X2326000Y601000D02*
G01*
X2352200Y601000D01*
X2352200Y616780D01*
X2351920Y619260D01*
X2351160Y621420D01*
X2349960Y623340D01*
X2348340Y624960D01*
X2346420Y626160D01*
X2344260Y626920D01*
X2341780Y627200D01*
X2326000Y627200D01*
G37*
G36*
X2202100Y632900D02*
G01*
X2207900Y632900D01*
X2213680Y633620D01*
X2219300Y635020D01*
X2224720Y637120D01*
X2229840Y639880D01*
X2234580Y643240D01*
X2238880Y647140D01*
X2242660Y651560D01*
X2245860Y656400D01*
X2248460Y661600D01*
X2250400Y667080D01*
X2251100Y670280D01*
X2251700Y671700D01*
X2252800Y672780D01*
X2254240Y673360D01*
X2255760Y673360D01*
X2257200Y672780D01*
X2258300Y671700D01*
X2258900Y670280D01*
X2259600Y667080D01*
X2261540Y661600D01*
X2264140Y656400D01*
X2267340Y651560D01*
X2271120Y647140D01*
X2275420Y643240D01*
X2280160Y639880D01*
X2285280Y637120D01*
X2290720Y635020D01*
X2296320Y633620D01*
X2302100Y632900D01*
X2307900Y632900D01*
X2313680Y633620D01*
X2319300Y635020D01*
X2324720Y637120D01*
X2329840Y639880D01*
X2334580Y643240D01*
X2338880Y647140D01*
X2342660Y651560D01*
X2345860Y656400D01*
X2349480Y663520D01*
X2350820Y664460D01*
X2352420Y664800D01*
X2864800Y664800D01*
X2867960Y665120D01*
X2870800Y665980D01*
X2873440Y667380D01*
X2875880Y669400D01*
X3020120Y813620D01*
X3021420Y814500D01*
X3022960Y814800D01*
X3432280Y814800D01*
X3433820Y814500D01*
X3435120Y813620D01*
X3435740Y813000D01*
X3438900Y810780D01*
X3442420Y809160D01*
X3446139Y808160D01*
X3450000Y807820D01*
X3453860Y808160D01*
X3457580Y809160D01*
X3461100Y810780D01*
X3464260Y813000D01*
X3467000Y815740D01*
X3469220Y818900D01*
X3470840Y822420D01*
X3471840Y826140D01*
X3472120Y829300D01*
X3472480Y830639D01*
X3473279Y831780D01*
X3505120Y863620D01*
X3506420Y864500D01*
X3507960Y864800D01*
X3542280Y864800D01*
X3543820Y864500D01*
X3545120Y863620D01*
X3545740Y863000D01*
X3548900Y860780D01*
X3552420Y859160D01*
X3556139Y858160D01*
X3560000Y857820D01*
X3563860Y858160D01*
X3567580Y859160D01*
X3571100Y860780D01*
X3574260Y863000D01*
X3577000Y865740D01*
X3579220Y868900D01*
X3580840Y872420D01*
X3581840Y876140D01*
X3582120Y879300D01*
X3582480Y880639D01*
X3583279Y881780D01*
X3600120Y898620D01*
X3601420Y899500D01*
X3602960Y899800D01*
X3647280Y899800D01*
X3648820Y899500D01*
X3650120Y898620D01*
X3650740Y898000D01*
X3653900Y895780D01*
X3657420Y894160D01*
X3661139Y893160D01*
X3665000Y892820D01*
X3668860Y893160D01*
X3672580Y894160D01*
X3676100Y895780D01*
X3679260Y898000D01*
X3682000Y900740D01*
X3684220Y903900D01*
X3685840Y907420D01*
X3686840Y911140D01*
X3687180Y915000D01*
X3686840Y918860D01*
X3685840Y922580D01*
X3684220Y926100D01*
X3682000Y929260D01*
X3679260Y932000D01*
X3676100Y934220D01*
X3672580Y935840D01*
X3668860Y936840D01*
X3665000Y937180D01*
X3661139Y936840D01*
X3657420Y935840D01*
X3653900Y934220D01*
X3650740Y932000D01*
X3650120Y931380D01*
X3648820Y930500D01*
X3647280Y930200D01*
X3595200Y930200D01*
X3592040Y929880D01*
X3589200Y929020D01*
X3586560Y927620D01*
X3584120Y925600D01*
X3561780Y903280D01*
X3560640Y902480D01*
X3559300Y902120D01*
X3556139Y901840D01*
X3552420Y900840D01*
X3548900Y899220D01*
X3545740Y897000D01*
X3545120Y896380D01*
X3543820Y895500D01*
X3542280Y895200D01*
X3500200Y895200D01*
X3497040Y894880D01*
X3494200Y894020D01*
X3491560Y892620D01*
X3489120Y890600D01*
X3451780Y853280D01*
X3450640Y852480D01*
X3449300Y852120D01*
X3446139Y851840D01*
X3442420Y850840D01*
X3438900Y849220D01*
X3435740Y847000D01*
X3435120Y846380D01*
X3433820Y845500D01*
X3432280Y845200D01*
X3015200Y845200D01*
X3012040Y844880D01*
X3009200Y844020D01*
X3006560Y842620D01*
X3004120Y840600D01*
X2859880Y696380D01*
X2858580Y695500D01*
X2857040Y695200D01*
X2352360Y695200D01*
X2350840Y695500D01*
X2349560Y696360D01*
X2348680Y697640D01*
X2347240Y701040D01*
X2344340Y706060D01*
X2340840Y710699D01*
X2336800Y714880D01*
X2332260Y718520D01*
X2327320Y721580D01*
X2322040Y724000D01*
X2316520Y725759D01*
X2314940Y726060D01*
X2313520Y726620D01*
X2312400Y727700D01*
X2311780Y729100D01*
X2311740Y730639D01*
X2312260Y732080D01*
X2313320Y733220D01*
X2314700Y733880D01*
X2319300Y735020D01*
X2324720Y737120D01*
X2329840Y739880D01*
X2334580Y743240D01*
X2338880Y747140D01*
X2342660Y751560D01*
X2345860Y756400D01*
X2348460Y761600D01*
X2350400Y767080D01*
X2351640Y772760D01*
X2352180Y778540D01*
X2352000Y784360D01*
X2351100Y790100D01*
X2349500Y795680D01*
X2347240Y801040D01*
X2344340Y806060D01*
X2340840Y810699D01*
X2336800Y814880D01*
X2332260Y818520D01*
X2327320Y821580D01*
X2322040Y824000D01*
X2316520Y825759D01*
X2314940Y826060D01*
X2313520Y826620D01*
X2312400Y827700D01*
X2311780Y829100D01*
X2311740Y830639D01*
X2312260Y832080D01*
X2313320Y833220D01*
X2314700Y833880D01*
X2319300Y835020D01*
X2324720Y837120D01*
X2329840Y839880D01*
X2334580Y843240D01*
X2338880Y847140D01*
X2342660Y851560D01*
X2345860Y856400D01*
X2348460Y861600D01*
X2350400Y867080D01*
X2351640Y872760D01*
X2352180Y878540D01*
X2352000Y884360D01*
X2351100Y890100D01*
X2349500Y895680D01*
X2347240Y901040D01*
X2344340Y906060D01*
X2340840Y910699D01*
X2336800Y914880D01*
X2332260Y918520D01*
X2327320Y921580D01*
X2322040Y924000D01*
X2316520Y925759D01*
X2314940Y926060D01*
X2313520Y926620D01*
X2312400Y927700D01*
X2311780Y929100D01*
X2311740Y930639D01*
X2312260Y932080D01*
X2313320Y933220D01*
X2314700Y933880D01*
X2319300Y935020D01*
X2324720Y937120D01*
X2329840Y939880D01*
X2334580Y943240D01*
X2338880Y947140D01*
X2342660Y951560D01*
X2345860Y956400D01*
X2348460Y961600D01*
X2350400Y967080D01*
X2351640Y972760D01*
X2352180Y978540D01*
X2352000Y984360D01*
X2351100Y990100D01*
X2349500Y995680D01*
X2347240Y1001040D01*
X2344340Y1006060D01*
X2340840Y1010699D01*
X2336800Y1014880D01*
X2332260Y1018520D01*
X2327320Y1021580D01*
X2322040Y1024000D01*
X2316520Y1025759D01*
X2314940Y1026060D01*
X2313520Y1026620D01*
X2312400Y1027700D01*
X2311780Y1029100D01*
X2311740Y1030639D01*
X2312260Y1032080D01*
X2313320Y1033220D01*
X2314700Y1033880D01*
X2319300Y1035020D01*
X2324720Y1037120D01*
X2329840Y1039880D01*
X2334580Y1043240D01*
X2338880Y1047140D01*
X2342660Y1051560D01*
X2345860Y1056400D01*
X2348460Y1061600D01*
X2350400Y1067080D01*
X2351640Y1072760D01*
X2352180Y1078540D01*
X2352000Y1084360D01*
X2351100Y1090100D01*
X2349500Y1095680D01*
X2347240Y1101040D01*
X2344340Y1106060D01*
X2340840Y1110700D01*
X2336800Y1114880D01*
X2332260Y1118520D01*
X2327320Y1121580D01*
X2322040Y1124000D01*
X2316520Y1125760D01*
X2314940Y1126060D01*
X2313520Y1126620D01*
X2312400Y1127700D01*
X2311780Y1129100D01*
X2311740Y1130640D01*
X2312260Y1132080D01*
X2313320Y1133220D01*
X2314700Y1133880D01*
X2319300Y1135020D01*
X2324720Y1137120D01*
X2329840Y1139880D01*
X2334580Y1143240D01*
X2338880Y1147140D01*
X2342660Y1151560D01*
X2345860Y1156400D01*
X2348460Y1161600D01*
X2350400Y1167080D01*
X2351640Y1172760D01*
X2352180Y1178540D01*
X2352000Y1184360D01*
X2351100Y1190100D01*
X2349500Y1195680D01*
X2347240Y1201040D01*
X2344340Y1206060D01*
X2340840Y1210700D01*
X2336800Y1214880D01*
X2332260Y1218520D01*
X2327320Y1221580D01*
X2322040Y1224000D01*
X2316520Y1225760D01*
X2314940Y1226060D01*
X2313520Y1226620D01*
X2312400Y1227700D01*
X2311780Y1229100D01*
X2311740Y1230640D01*
X2312260Y1232080D01*
X2313320Y1233220D01*
X2314700Y1233880D01*
X2319300Y1235020D01*
X2324720Y1237120D01*
X2329840Y1239880D01*
X2334580Y1243240D01*
X2338880Y1247140D01*
X2342660Y1251560D01*
X2345860Y1256400D01*
X2348460Y1261600D01*
X2350400Y1267080D01*
X2351640Y1272760D01*
X2352180Y1278540D01*
X2352000Y1284360D01*
X2351100Y1290100D01*
X2349500Y1295680D01*
X2347240Y1301040D01*
X2344340Y1306060D01*
X2340840Y1310700D01*
X2336800Y1314880D01*
X2332260Y1318520D01*
X2327320Y1321579D01*
X2322040Y1324000D01*
X2316520Y1325760D01*
X2314940Y1326060D01*
X2313520Y1326620D01*
X2312400Y1327700D01*
X2311780Y1329100D01*
X2311740Y1330640D01*
X2312260Y1332080D01*
X2313320Y1333220D01*
X2314700Y1333880D01*
X2319300Y1335020D01*
X2324720Y1337120D01*
X2329840Y1339880D01*
X2334580Y1343240D01*
X2338880Y1347140D01*
X2342660Y1351560D01*
X2345860Y1356399D01*
X2348460Y1361600D01*
X2350400Y1367080D01*
X2351640Y1372760D01*
X2352180Y1378540D01*
X2352000Y1384360D01*
X2351100Y1390100D01*
X2349500Y1395680D01*
X2347240Y1401040D01*
X2344340Y1406060D01*
X2340840Y1410700D01*
X2336800Y1414880D01*
X2332260Y1418520D01*
X2327320Y1421579D01*
X2322040Y1424000D01*
X2316520Y1425760D01*
X2314940Y1426060D01*
X2313520Y1426620D01*
X2312400Y1427700D01*
X2311780Y1429100D01*
X2311740Y1430640D01*
X2312260Y1432080D01*
X2313320Y1433220D01*
X2314700Y1433880D01*
X2319300Y1435020D01*
X2324720Y1437120D01*
X2329840Y1439880D01*
X2334580Y1443240D01*
X2338880Y1447140D01*
X2342660Y1451560D01*
X2345860Y1456399D01*
X2348460Y1461600D01*
X2350400Y1467080D01*
X2351640Y1472760D01*
X2352180Y1478540D01*
X2352000Y1484360D01*
X2351100Y1490100D01*
X2349500Y1495680D01*
X2347240Y1501040D01*
X2344340Y1506060D01*
X2340840Y1510700D01*
X2336800Y1514880D01*
X2332260Y1518520D01*
X2327320Y1521579D01*
X2322040Y1524000D01*
X2316520Y1525760D01*
X2314940Y1526060D01*
X2313520Y1526620D01*
X2312400Y1527700D01*
X2311780Y1529100D01*
X2311740Y1530640D01*
X2312260Y1532080D01*
X2313320Y1533220D01*
X2314700Y1533880D01*
X2319300Y1535020D01*
X2324720Y1537120D01*
X2329840Y1539880D01*
X2334580Y1543240D01*
X2338880Y1547140D01*
X2342660Y1551560D01*
X2345860Y1556399D01*
X2348460Y1561600D01*
X2350400Y1567080D01*
X2351640Y1572760D01*
X2352180Y1578540D01*
X2352000Y1584360D01*
X2351100Y1590100D01*
X2349500Y1595680D01*
X2348380Y1598360D01*
X2348060Y1599900D01*
X2348360Y1601440D01*
X2349240Y1602740D01*
X2480120Y1733620D01*
X2481420Y1734500D01*
X2482960Y1734800D01*
X2857280Y1734800D01*
X2858820Y1734500D01*
X2860120Y1733620D01*
X2860740Y1733000D01*
X2863900Y1730780D01*
X2867420Y1729160D01*
X2871139Y1728160D01*
X2875000Y1727820D01*
X2878860Y1728160D01*
X2882580Y1729160D01*
X2886100Y1730780D01*
X2889260Y1733000D01*
X2892000Y1735740D01*
X2894220Y1738899D01*
X2895840Y1742420D01*
X2896840Y1746140D01*
X2897180Y1750000D01*
X2896840Y1753860D01*
X2895840Y1757580D01*
X2894220Y1761100D01*
X2892520Y1763500D01*
X2891860Y1765100D01*
X2891940Y1766840D01*
X2892740Y1768380D01*
X2894100Y1769420D01*
X2895800Y1769800D01*
X2902280Y1769800D01*
X2903820Y1769500D01*
X2905120Y1768620D01*
X2905740Y1768000D01*
X2908900Y1765780D01*
X2912420Y1764160D01*
X2916139Y1763160D01*
X2920000Y1762820D01*
X2923860Y1763160D01*
X2927580Y1764160D01*
X2931100Y1765780D01*
X2934260Y1768000D01*
X2937000Y1770740D01*
X2939220Y1773899D01*
X2940840Y1777420D01*
X2941840Y1781140D01*
X2942180Y1785000D01*
X2941840Y1788860D01*
X2940840Y1792580D01*
X2939220Y1796100D01*
X2937000Y1799259D01*
X2934260Y1802000D01*
X2931100Y1804220D01*
X2927580Y1805840D01*
X2923860Y1806840D01*
X2920000Y1807180D01*
X2916139Y1806840D01*
X2912420Y1805840D01*
X2908900Y1804220D01*
X2905740Y1802000D01*
X2905120Y1801380D01*
X2903820Y1800500D01*
X2902280Y1800200D01*
X2410200Y1800200D01*
X2407040Y1799880D01*
X2404200Y1799019D01*
X2401560Y1797620D01*
X2399120Y1795600D01*
X2327760Y1724259D01*
X2326420Y1723360D01*
X2324820Y1723080D01*
X2323260Y1723440D01*
X2322040Y1724000D01*
X2316520Y1725760D01*
X2314940Y1726060D01*
X2313520Y1726620D01*
X2312400Y1727700D01*
X2311780Y1729100D01*
X2311740Y1730640D01*
X2312260Y1732080D01*
X2313320Y1733220D01*
X2314700Y1733880D01*
X2319300Y1735020D01*
X2324720Y1737120D01*
X2329840Y1739880D01*
X2334580Y1743240D01*
X2338880Y1747140D01*
X2342660Y1751560D01*
X2345860Y1756399D01*
X2348460Y1761600D01*
X2350400Y1767080D01*
X2351640Y1772760D01*
X2352180Y1778540D01*
X2352000Y1784360D01*
X2351100Y1790100D01*
X2349500Y1795680D01*
X2347240Y1801040D01*
X2344340Y1806060D01*
X2340840Y1810700D01*
X2336800Y1814880D01*
X2332260Y1818520D01*
X2327320Y1821579D01*
X2322040Y1824000D01*
X2316520Y1825760D01*
X2314940Y1826060D01*
X2313520Y1826620D01*
X2312400Y1827700D01*
X2311780Y1829100D01*
X2311740Y1830640D01*
X2312260Y1832080D01*
X2313320Y1833220D01*
X2314700Y1833880D01*
X2319300Y1835020D01*
X2324720Y1837120D01*
X2329840Y1839880D01*
X2334580Y1843240D01*
X2338880Y1847140D01*
X2342660Y1851560D01*
X2345860Y1856399D01*
X2348460Y1861600D01*
X2350400Y1867080D01*
X2351640Y1872760D01*
X2352180Y1878540D01*
X2352000Y1884360D01*
X2351100Y1890100D01*
X2349500Y1895680D01*
X2347240Y1901040D01*
X2344340Y1906060D01*
X2340840Y1910700D01*
X2336800Y1914880D01*
X2332260Y1918520D01*
X2327320Y1921579D01*
X2322040Y1924000D01*
X2316520Y1925760D01*
X2314940Y1926060D01*
X2313520Y1926620D01*
X2312400Y1927700D01*
X2311780Y1929100D01*
X2311740Y1930640D01*
X2312260Y1932080D01*
X2313320Y1933220D01*
X2314700Y1933880D01*
X2319300Y1935020D01*
X2324720Y1937120D01*
X2329840Y1939880D01*
X2334580Y1943240D01*
X2338880Y1947140D01*
X2342660Y1951560D01*
X2345860Y1956399D01*
X2348460Y1961600D01*
X2350400Y1967080D01*
X2351640Y1972760D01*
X2352180Y1978540D01*
X2352000Y1984360D01*
X2351100Y1990100D01*
X2349500Y1995680D01*
X2347240Y2001040D01*
X2344340Y2006060D01*
X2340840Y2010700D01*
X2336800Y2014880D01*
X2332260Y2018520D01*
X2327320Y2021579D01*
X2322040Y2024000D01*
X2316520Y2025760D01*
X2314940Y2026060D01*
X2313520Y2026620D01*
X2312400Y2027700D01*
X2311780Y2029100D01*
X2311740Y2030640D01*
X2312260Y2032080D01*
X2313320Y2033220D01*
X2314700Y2033880D01*
X2319300Y2035020D01*
X2324720Y2037120D01*
X2329840Y2039880D01*
X2334580Y2043240D01*
X2338880Y2047140D01*
X2342660Y2051560D01*
X2345860Y2056399D01*
X2348460Y2061600D01*
X2350400Y2067080D01*
X2351640Y2072760D01*
X2352180Y2078540D01*
X2352000Y2084360D01*
X2351100Y2090100D01*
X2349500Y2095680D01*
X2347240Y2101040D01*
X2344340Y2106060D01*
X2340840Y2110700D01*
X2336800Y2114880D01*
X2332260Y2118520D01*
X2327320Y2121580D01*
X2322040Y2124000D01*
X2316520Y2125760D01*
X2314940Y2126060D01*
X2313520Y2126620D01*
X2312400Y2127700D01*
X2311780Y2129100D01*
X2311740Y2130640D01*
X2312260Y2132080D01*
X2313320Y2133220D01*
X2314700Y2133880D01*
X2319300Y2135020D01*
X2324720Y2137120D01*
X2329840Y2139880D01*
X2334580Y2143240D01*
X2338880Y2147140D01*
X2342660Y2151560D01*
X2345860Y2156400D01*
X2348460Y2161600D01*
X2350400Y2167080D01*
X2351640Y2172760D01*
X2352180Y2178540D01*
X2352000Y2184360D01*
X2351100Y2190100D01*
X2349500Y2195680D01*
X2347240Y2201040D01*
X2344340Y2206060D01*
X2340840Y2210700D01*
X2336800Y2214880D01*
X2332260Y2218520D01*
X2327320Y2221580D01*
X2322040Y2224000D01*
X2316520Y2225760D01*
X2314940Y2226060D01*
X2313520Y2226620D01*
X2312400Y2227700D01*
X2311780Y2229100D01*
X2311740Y2230640D01*
X2312260Y2232080D01*
X2313320Y2233220D01*
X2314700Y2233880D01*
X2319300Y2235020D01*
X2324720Y2237120D01*
X2329840Y2239880D01*
X2334580Y2243240D01*
X2338880Y2247140D01*
X2342660Y2251560D01*
X2345860Y2256400D01*
X2348460Y2261600D01*
X2350400Y2267080D01*
X2351640Y2272760D01*
X2352180Y2278540D01*
X2352000Y2284360D01*
X2351100Y2290100D01*
X2349500Y2295680D01*
X2347240Y2301040D01*
X2344340Y2306060D01*
X2340840Y2310700D01*
X2336800Y2314880D01*
X2332260Y2318520D01*
X2327320Y2321580D01*
X2322040Y2324000D01*
X2316520Y2325760D01*
X2314940Y2326060D01*
X2313520Y2326620D01*
X2312400Y2327700D01*
X2311780Y2329100D01*
X2311740Y2330640D01*
X2312260Y2332080D01*
X2313320Y2333220D01*
X2314700Y2333880D01*
X2319300Y2335020D01*
X2324720Y2337120D01*
X2329840Y2339880D01*
X2334580Y2343240D01*
X2338880Y2347140D01*
X2342660Y2351560D01*
X2345860Y2356400D01*
X2348460Y2361600D01*
X2350400Y2367080D01*
X2351640Y2372760D01*
X2352180Y2378540D01*
X2352000Y2384360D01*
X2351100Y2390100D01*
X2349500Y2395680D01*
X2347240Y2401040D01*
X2344340Y2406060D01*
X2340840Y2410700D01*
X2336800Y2414880D01*
X2332260Y2418520D01*
X2327320Y2421580D01*
X2322040Y2424000D01*
X2316520Y2425760D01*
X2314940Y2426060D01*
X2313520Y2426620D01*
X2312400Y2427700D01*
X2311780Y2429100D01*
X2311740Y2430640D01*
X2312260Y2432080D01*
X2313320Y2433220D01*
X2314700Y2433880D01*
X2319300Y2435020D01*
X2324720Y2437120D01*
X2329840Y2439880D01*
X2334580Y2443240D01*
X2338880Y2447140D01*
X2342660Y2451560D01*
X2345860Y2456400D01*
X2348460Y2461600D01*
X2350400Y2467080D01*
X2351640Y2472760D01*
X2352180Y2478540D01*
X2352000Y2484360D01*
X2351100Y2490100D01*
X2349500Y2495680D01*
X2347240Y2501040D01*
X2344340Y2506060D01*
X2340840Y2510700D01*
X2336800Y2514880D01*
X2332260Y2518520D01*
X2327320Y2521580D01*
X2322040Y2524000D01*
X2316520Y2525760D01*
X2314940Y2526060D01*
X2313520Y2526620D01*
X2312400Y2527700D01*
X2311780Y2529100D01*
X2311740Y2530640D01*
X2312260Y2532080D01*
X2313320Y2533220D01*
X2314700Y2533880D01*
X2319300Y2535020D01*
X2324720Y2537120D01*
X2329840Y2539880D01*
X2334580Y2543240D01*
X2338880Y2547140D01*
X2342660Y2551560D01*
X2345860Y2556400D01*
X2348460Y2561600D01*
X2350400Y2567080D01*
X2351640Y2572760D01*
X2352180Y2578540D01*
X2352000Y2584360D01*
X2351100Y2590100D01*
X2349500Y2595680D01*
X2347240Y2601040D01*
X2344340Y2606060D01*
X2340840Y2610700D01*
X2336800Y2614880D01*
X2332260Y2618519D01*
X2327320Y2621580D01*
X2322040Y2624000D01*
X2316520Y2625760D01*
X2310800Y2626840D01*
X2305000Y2627200D01*
X2299200Y2626840D01*
X2293480Y2625760D01*
X2287960Y2624000D01*
X2282680Y2621580D01*
X2277740Y2618519D01*
X2273200Y2614880D01*
X2269160Y2610700D01*
X2265660Y2606060D01*
X2262760Y2601040D01*
X2260500Y2595680D01*
X2258840Y2589920D01*
X2258040Y2588399D01*
X2256680Y2587380D01*
X2255000Y2587000D01*
X2253320Y2587380D01*
X2251960Y2588399D01*
X2251160Y2589920D01*
X2249500Y2595680D01*
X2247240Y2601040D01*
X2244340Y2606060D01*
X2240840Y2610700D01*
X2236800Y2614880D01*
X2232260Y2618519D01*
X2227320Y2621580D01*
X2222040Y2624000D01*
X2216520Y2625760D01*
X2210800Y2626840D01*
X2205000Y2627200D01*
X2199200Y2626840D01*
X2193480Y2625760D01*
X2187960Y2624000D01*
X2182680Y2621580D01*
X2177740Y2618519D01*
X2173200Y2614880D01*
X2169160Y2610700D01*
X2165660Y2606060D01*
X2162760Y2601040D01*
X2160500Y2595680D01*
X2158900Y2590100D01*
X2158000Y2584360D01*
X2157840Y2578540D01*
X2158360Y2572760D01*
X2159600Y2567080D01*
X2161540Y2561600D01*
X2164140Y2556400D01*
X2167340Y2551560D01*
X2171120Y2547140D01*
X2175420Y2543240D01*
X2180160Y2539880D01*
X2185280Y2537120D01*
X2190700Y2535020D01*
X2195300Y2533880D01*
X2196680Y2533220D01*
X2197740Y2532080D01*
X2198260Y2530640D01*
X2198220Y2529100D01*
X2197600Y2527700D01*
X2196480Y2526620D01*
X2195060Y2526060D01*
X2193480Y2525760D01*
X2187960Y2524000D01*
X2182680Y2521580D01*
X2177740Y2518520D01*
X2173200Y2514880D01*
X2169160Y2510700D01*
X2165660Y2506060D01*
X2162760Y2501040D01*
X2160500Y2495680D01*
X2158900Y2490100D01*
X2158000Y2484360D01*
X2157840Y2478540D01*
X2158360Y2472760D01*
X2159600Y2467080D01*
X2161540Y2461600D01*
X2164140Y2456400D01*
X2167340Y2451560D01*
X2171120Y2447140D01*
X2175420Y2443240D01*
X2180160Y2439880D01*
X2185280Y2437120D01*
X2190700Y2435020D01*
X2195300Y2433880D01*
X2196680Y2433220D01*
X2197740Y2432080D01*
X2198260Y2430640D01*
X2198220Y2429100D01*
X2197600Y2427700D01*
X2196480Y2426620D01*
X2195060Y2426060D01*
X2193480Y2425760D01*
X2187960Y2424000D01*
X2182680Y2421580D01*
X2177740Y2418520D01*
X2173200Y2414880D01*
X2169160Y2410700D01*
X2165660Y2406060D01*
X2162760Y2401040D01*
X2160500Y2395680D01*
X2158900Y2390100D01*
X2158000Y2384360D01*
X2157840Y2378540D01*
X2158360Y2372760D01*
X2159600Y2367080D01*
X2161540Y2361600D01*
X2164140Y2356400D01*
X2167340Y2351560D01*
X2171120Y2347140D01*
X2175420Y2343240D01*
X2180160Y2339880D01*
X2185280Y2337120D01*
X2190700Y2335020D01*
X2195300Y2333880D01*
X2196680Y2333220D01*
X2197740Y2332080D01*
X2198260Y2330640D01*
X2198220Y2329100D01*
X2197600Y2327700D01*
X2196480Y2326620D01*
X2195060Y2326060D01*
X2193480Y2325760D01*
X2187960Y2324000D01*
X2182680Y2321580D01*
X2177740Y2318520D01*
X2173200Y2314880D01*
X2169160Y2310700D01*
X2165660Y2306060D01*
X2162760Y2301040D01*
X2160500Y2295680D01*
X2158900Y2290100D01*
X2158000Y2284360D01*
X2157840Y2278540D01*
X2158360Y2272760D01*
X2159600Y2267080D01*
X2161540Y2261600D01*
X2164140Y2256400D01*
X2167340Y2251560D01*
X2171120Y2247140D01*
X2175420Y2243240D01*
X2180160Y2239880D01*
X2185280Y2237120D01*
X2190700Y2235020D01*
X2195300Y2233880D01*
X2196680Y2233220D01*
X2197740Y2232080D01*
X2198260Y2230640D01*
X2198220Y2229100D01*
X2197600Y2227700D01*
X2196480Y2226620D01*
X2195060Y2226060D01*
X2193480Y2225760D01*
X2187960Y2224000D01*
X2182680Y2221580D01*
X2177740Y2218520D01*
X2173200Y2214880D01*
X2169160Y2210700D01*
X2165660Y2206060D01*
X2162760Y2201040D01*
X2160500Y2195680D01*
X2158900Y2190100D01*
X2158000Y2184360D01*
X2157840Y2178540D01*
X2158360Y2172760D01*
X2159600Y2167080D01*
X2161540Y2161600D01*
X2164140Y2156400D01*
X2167340Y2151560D01*
X2171120Y2147140D01*
X2175420Y2143240D01*
X2180160Y2139880D01*
X2185280Y2137120D01*
X2190700Y2135020D01*
X2195300Y2133880D01*
X2196680Y2133220D01*
X2197740Y2132080D01*
X2198260Y2130640D01*
X2198220Y2129100D01*
X2197600Y2127700D01*
X2196480Y2126620D01*
X2195060Y2126060D01*
X2193480Y2125760D01*
X2187960Y2124000D01*
X2182680Y2121580D01*
X2177740Y2118520D01*
X2173200Y2114880D01*
X2169160Y2110700D01*
X2165660Y2106060D01*
X2162760Y2101040D01*
X2160500Y2095680D01*
X2158900Y2090100D01*
X2158000Y2084360D01*
X2157840Y2078540D01*
X2158360Y2072760D01*
X2159600Y2067080D01*
X2161540Y2061600D01*
X2164140Y2056399D01*
X2167340Y2051560D01*
X2171120Y2047140D01*
X2175420Y2043240D01*
X2180160Y2039880D01*
X2185280Y2037120D01*
X2190700Y2035020D01*
X2195300Y2033880D01*
X2196680Y2033220D01*
X2197740Y2032080D01*
X2198260Y2030640D01*
X2198220Y2029100D01*
X2197600Y2027700D01*
X2196480Y2026620D01*
X2195060Y2026060D01*
X2193480Y2025760D01*
X2187960Y2024000D01*
X2182680Y2021579D01*
X2177740Y2018520D01*
X2173200Y2014880D01*
X2169160Y2010700D01*
X2165660Y2006060D01*
X2162760Y2001040D01*
X2160500Y1995680D01*
X2158900Y1990100D01*
X2158000Y1984360D01*
X2157840Y1978540D01*
X2158360Y1972760D01*
X2159600Y1967080D01*
X2161540Y1961600D01*
X2164140Y1956399D01*
X2167340Y1951560D01*
X2171120Y1947140D01*
X2175420Y1943240D01*
X2180160Y1939880D01*
X2185280Y1937120D01*
X2190700Y1935020D01*
X2195300Y1933880D01*
X2196680Y1933220D01*
X2197740Y1932080D01*
X2198260Y1930640D01*
X2198220Y1929100D01*
X2197600Y1927700D01*
X2196480Y1926620D01*
X2195060Y1926060D01*
X2193480Y1925760D01*
X2187960Y1924000D01*
X2182680Y1921579D01*
X2177740Y1918520D01*
X2173200Y1914880D01*
X2169160Y1910700D01*
X2165660Y1906060D01*
X2162760Y1901040D01*
X2160500Y1895680D01*
X2158900Y1890100D01*
X2158000Y1884360D01*
X2157840Y1878540D01*
X2158360Y1872760D01*
X2159600Y1867080D01*
X2161540Y1861600D01*
X2164140Y1856399D01*
X2167340Y1851560D01*
X2171120Y1847140D01*
X2175420Y1843240D01*
X2180160Y1839880D01*
X2185280Y1837120D01*
X2190700Y1835020D01*
X2195300Y1833880D01*
X2196680Y1833220D01*
X2197740Y1832080D01*
X2198260Y1830640D01*
X2198220Y1829100D01*
X2197600Y1827700D01*
X2196480Y1826620D01*
X2195060Y1826060D01*
X2193480Y1825760D01*
X2187960Y1824000D01*
X2186740Y1823440D01*
X2185180Y1823080D01*
X2183580Y1823360D01*
X2182240Y1824259D01*
X2132100Y1874379D01*
X2131320Y1875520D01*
X2130960Y1876860D01*
X2131080Y1878260D01*
X2131840Y1881140D01*
X2132180Y1885000D01*
X2131840Y1888860D01*
X2130840Y1892580D01*
X2129220Y1896100D01*
X2127000Y1899259D01*
X2124260Y1902000D01*
X2121100Y1904220D01*
X2117580Y1905840D01*
X2113860Y1906840D01*
X2110000Y1907180D01*
X2106140Y1906840D01*
X2102420Y1905840D01*
X2098900Y1904220D01*
X2095740Y1902000D01*
X2093000Y1899259D01*
X2090780Y1896100D01*
X2089160Y1892580D01*
X2088160Y1888860D01*
X2087820Y1885000D01*
X2088160Y1881140D01*
X2089160Y1877420D01*
X2090780Y1873899D01*
X2093000Y1870740D01*
X2095740Y1868000D01*
X2097160Y1866819D01*
X2099400Y1864120D01*
X2160760Y1802740D01*
X2161640Y1801440D01*
X2161940Y1799900D01*
X2161620Y1798360D01*
X2160500Y1795680D01*
X2158900Y1790100D01*
X2158000Y1784360D01*
X2157840Y1778540D01*
X2158360Y1772760D01*
X2159600Y1767080D01*
X2161540Y1761600D01*
X2164140Y1756399D01*
X2167340Y1751560D01*
X2171120Y1747140D01*
X2175420Y1743240D01*
X2180160Y1739880D01*
X2185280Y1737120D01*
X2190700Y1735020D01*
X2195300Y1733880D01*
X2196680Y1733220D01*
X2197740Y1732080D01*
X2198260Y1730640D01*
X2198220Y1729100D01*
X2197600Y1727700D01*
X2196480Y1726620D01*
X2195060Y1726060D01*
X2193480Y1725760D01*
X2187960Y1724000D01*
X2182680Y1721579D01*
X2177740Y1718520D01*
X2173200Y1714880D01*
X2169160Y1710700D01*
X2165660Y1706060D01*
X2162760Y1701040D01*
X2160500Y1695680D01*
X2158900Y1690100D01*
X2158000Y1684360D01*
X2157840Y1678540D01*
X2158360Y1672760D01*
X2159600Y1667080D01*
X2161540Y1661600D01*
X2164140Y1656399D01*
X2167340Y1651560D01*
X2171120Y1647140D01*
X2175420Y1643240D01*
X2180160Y1639880D01*
X2185280Y1637120D01*
X2190700Y1635020D01*
X2195300Y1633880D01*
X2196680Y1633220D01*
X2197740Y1632080D01*
X2198260Y1630640D01*
X2198220Y1629100D01*
X2197600Y1627700D01*
X2196480Y1626620D01*
X2195060Y1626060D01*
X2193480Y1625760D01*
X2187960Y1624000D01*
X2182680Y1621579D01*
X2177740Y1618520D01*
X2173200Y1614880D01*
X2169160Y1610700D01*
X2165660Y1606060D01*
X2162760Y1601040D01*
X2160500Y1595680D01*
X2158900Y1590100D01*
X2158000Y1584360D01*
X2157840Y1578540D01*
X2158360Y1572760D01*
X2159600Y1567080D01*
X2161540Y1561600D01*
X2164140Y1556399D01*
X2167340Y1551560D01*
X2171120Y1547140D01*
X2175420Y1543240D01*
X2180160Y1539880D01*
X2185280Y1537120D01*
X2190700Y1535020D01*
X2195300Y1533880D01*
X2196680Y1533220D01*
X2197740Y1532080D01*
X2198260Y1530640D01*
X2198220Y1529100D01*
X2197600Y1527700D01*
X2196480Y1526620D01*
X2195060Y1526060D01*
X2193480Y1525760D01*
X2187960Y1524000D01*
X2182680Y1521579D01*
X2177740Y1518520D01*
X2173200Y1514880D01*
X2169160Y1510700D01*
X2165660Y1506060D01*
X2162760Y1501040D01*
X2160500Y1495680D01*
X2158900Y1490100D01*
X2158000Y1484360D01*
X2157840Y1478540D01*
X2158360Y1472760D01*
X2159600Y1467080D01*
X2161540Y1461600D01*
X2164140Y1456399D01*
X2167340Y1451560D01*
X2171120Y1447140D01*
X2175420Y1443240D01*
X2180160Y1439880D01*
X2185280Y1437120D01*
X2190700Y1435020D01*
X2195300Y1433880D01*
X2196680Y1433220D01*
X2197740Y1432080D01*
X2198260Y1430640D01*
X2198220Y1429100D01*
X2197600Y1427700D01*
X2196480Y1426620D01*
X2195060Y1426060D01*
X2193480Y1425760D01*
X2187960Y1424000D01*
X2182680Y1421579D01*
X2177740Y1418520D01*
X2173200Y1414880D01*
X2169160Y1410700D01*
X2165660Y1406060D01*
X2162760Y1401040D01*
X2160500Y1395680D01*
X2158900Y1390100D01*
X2158000Y1384360D01*
X2157840Y1378540D01*
X2158360Y1372760D01*
X2159600Y1367080D01*
X2161540Y1361600D01*
X2164140Y1356399D01*
X2167340Y1351560D01*
X2171120Y1347140D01*
X2175420Y1343240D01*
X2180160Y1339880D01*
X2185280Y1337120D01*
X2190700Y1335020D01*
X2195300Y1333880D01*
X2196680Y1333220D01*
X2197740Y1332080D01*
X2198260Y1330640D01*
X2198220Y1329100D01*
X2197600Y1327700D01*
X2196480Y1326620D01*
X2195060Y1326060D01*
X2193480Y1325760D01*
X2187960Y1324000D01*
X2182680Y1321579D01*
X2177740Y1318520D01*
X2173200Y1314880D01*
X2169160Y1310700D01*
X2165660Y1306060D01*
X2162760Y1301040D01*
X2160500Y1295680D01*
X2158900Y1290100D01*
X2158000Y1284360D01*
X2157840Y1278540D01*
X2158360Y1272760D01*
X2159600Y1267080D01*
X2161540Y1261600D01*
X2164140Y1256400D01*
X2167340Y1251560D01*
X2171120Y1247140D01*
X2175420Y1243240D01*
X2180160Y1239880D01*
X2185280Y1237120D01*
X2190700Y1235020D01*
X2195300Y1233880D01*
X2196680Y1233220D01*
X2197740Y1232080D01*
X2198260Y1230640D01*
X2198220Y1229100D01*
X2197600Y1227700D01*
X2196480Y1226620D01*
X2195060Y1226060D01*
X2193480Y1225760D01*
X2187960Y1224000D01*
X2182680Y1221580D01*
X2177740Y1218520D01*
X2173200Y1214880D01*
X2169160Y1210700D01*
X2165660Y1206060D01*
X2162760Y1201040D01*
X2160500Y1195680D01*
X2158900Y1190100D01*
X2158000Y1184360D01*
X2157840Y1178540D01*
X2158360Y1172760D01*
X2159600Y1167080D01*
X2161540Y1161600D01*
X2164140Y1156400D01*
X2167340Y1151560D01*
X2171120Y1147140D01*
X2175420Y1143240D01*
X2180160Y1139880D01*
X2185280Y1137120D01*
X2190700Y1135020D01*
X2195300Y1133880D01*
X2196680Y1133220D01*
X2197740Y1132080D01*
X2198260Y1130640D01*
X2198220Y1129100D01*
X2197600Y1127700D01*
X2196480Y1126620D01*
X2195060Y1126060D01*
X2193480Y1125760D01*
X2187960Y1124000D01*
X2182680Y1121580D01*
X2177740Y1118520D01*
X2173200Y1114880D01*
X2169160Y1110700D01*
X2165660Y1106060D01*
X2162760Y1101040D01*
X2160500Y1095680D01*
X2158900Y1090100D01*
X2158000Y1084360D01*
X2157840Y1078540D01*
X2158360Y1072760D01*
X2159600Y1067080D01*
X2161540Y1061600D01*
X2164140Y1056400D01*
X2167340Y1051560D01*
X2171120Y1047140D01*
X2175420Y1043240D01*
X2180160Y1039880D01*
X2185280Y1037120D01*
X2190700Y1035020D01*
X2195300Y1033880D01*
X2196680Y1033220D01*
X2197740Y1032080D01*
X2198260Y1030639D01*
X2198220Y1029100D01*
X2197600Y1027700D01*
X2196480Y1026620D01*
X2195060Y1026060D01*
X2193480Y1025759D01*
X2187960Y1024000D01*
X2182680Y1021580D01*
X2177740Y1018520D01*
X2173200Y1014880D01*
X2169160Y1010699D01*
X2165660Y1006060D01*
X2162760Y1001040D01*
X2160500Y995680D01*
X2158900Y990100D01*
X2158000Y984360D01*
X2157840Y978540D01*
X2158360Y972760D01*
X2159600Y967080D01*
X2161540Y961600D01*
X2164140Y956400D01*
X2167340Y951560D01*
X2171120Y947140D01*
X2175420Y943240D01*
X2180160Y939880D01*
X2185280Y937120D01*
X2190700Y935020D01*
X2195300Y933880D01*
X2196680Y933220D01*
X2197740Y932080D01*
X2198260Y930639D01*
X2198220Y929100D01*
X2197600Y927700D01*
X2196480Y926620D01*
X2195060Y926060D01*
X2193480Y925759D01*
X2187960Y924000D01*
X2182680Y921580D01*
X2177740Y918520D01*
X2173200Y914880D01*
X2169160Y910699D01*
X2165660Y906060D01*
X2162760Y901040D01*
X2160500Y895680D01*
X2158900Y890100D01*
X2158000Y884360D01*
X2157840Y878540D01*
X2158360Y872760D01*
X2159600Y867080D01*
X2161540Y861600D01*
X2164140Y856400D01*
X2167340Y851560D01*
X2171120Y847140D01*
X2175420Y843240D01*
X2180160Y839880D01*
X2185280Y837120D01*
X2190700Y835020D01*
X2195300Y833880D01*
X2196680Y833220D01*
X2197740Y832080D01*
X2198260Y830639D01*
X2198220Y829100D01*
X2197600Y827700D01*
X2196480Y826620D01*
X2195060Y826060D01*
X2193480Y825759D01*
X2187960Y824000D01*
X2182680Y821580D01*
X2177740Y818520D01*
X2173200Y814880D01*
X2169160Y810699D01*
X2165660Y806060D01*
X2162760Y801040D01*
X2160500Y795680D01*
X2158900Y790100D01*
X2158000Y784360D01*
X2157840Y778540D01*
X2158360Y772760D01*
X2159600Y767080D01*
X2161540Y761600D01*
X2164140Y756400D01*
X2167340Y751560D01*
X2171120Y747140D01*
X2175420Y743240D01*
X2180160Y739880D01*
X2185280Y737120D01*
X2190700Y735020D01*
X2195300Y733880D01*
X2196680Y733220D01*
X2197740Y732080D01*
X2198260Y730639D01*
X2198220Y729100D01*
X2197600Y727700D01*
X2196480Y726620D01*
X2195060Y726060D01*
X2193480Y725759D01*
X2187960Y724000D01*
X2182680Y721580D01*
X2177740Y718520D01*
X2173200Y714880D01*
X2169160Y710699D01*
X2165660Y706060D01*
X2162760Y701040D01*
X2160500Y695680D01*
X2158900Y690100D01*
X2158000Y684360D01*
X2157840Y678540D01*
X2158360Y672760D01*
X2159600Y667080D01*
X2161540Y661600D01*
X2164140Y656400D01*
X2167340Y651560D01*
X2171120Y647140D01*
X2175420Y643240D01*
X2180160Y639880D01*
X2185280Y637120D01*
X2190700Y635020D01*
X2196320Y633620D01*
G37*
G36*
X2522000Y744820D02*
G01*
X2529960Y745380D01*
X2537840Y746700D01*
X2545560Y748740D01*
X2553060Y751480D01*
X2560280Y754920D01*
X2567120Y759020D01*
X2573560Y763740D01*
X2579540Y769060D01*
X2584980Y774900D01*
X2589860Y781220D01*
X2594120Y787980D01*
X2597720Y795100D01*
X2600640Y802540D01*
X2602860Y810200D01*
X2604360Y818060D01*
X2605100Y826000D01*
X2605100Y834000D01*
X2604360Y841940D01*
X2602860Y849800D01*
X2600640Y857460D01*
X2597720Y864900D01*
X2594120Y872020D01*
X2589860Y878780D01*
X2584980Y885100D01*
X2579540Y890939D01*
X2573560Y896260D01*
X2567120Y900980D01*
X2560280Y905080D01*
X2553060Y908520D01*
X2545560Y911260D01*
X2537840Y913300D01*
X2529960Y914620D01*
X2522000Y915180D01*
X2514020Y914980D01*
X2506080Y914060D01*
X2498280Y912380D01*
X2490660Y909980D01*
X2483300Y906880D01*
X2476260Y903100D01*
X2469600Y898680D01*
X2463400Y893660D01*
X2457680Y888080D01*
X2452520Y882000D01*
X2447940Y875440D01*
X2444000Y868500D01*
X2440720Y861220D01*
X2438160Y853660D01*
X2436300Y845879D01*
X2435180Y837980D01*
X2434800Y830000D01*
X2435180Y822020D01*
X2436300Y814120D01*
X2438160Y806340D01*
X2440720Y798780D01*
X2444000Y791500D01*
X2447940Y784560D01*
X2452520Y778000D01*
X2457680Y771919D01*
X2463400Y766340D01*
X2469600Y761320D01*
X2476260Y756900D01*
X2483300Y753120D01*
X2490660Y750020D01*
X2498280Y747620D01*
X2506080Y745939D01*
X2514020Y745020D01*
G37*
G36*
X4327000Y744820D02*
G01*
X4334960Y745380D01*
X4342840Y746700D01*
X4350560Y748740D01*
X4358060Y751480D01*
X4365280Y754920D01*
X4372120Y759020D01*
X4378560Y763740D01*
X4384540Y769060D01*
X4389980Y774900D01*
X4394860Y781220D01*
X4399120Y787980D01*
X4402720Y795100D01*
X4405640Y802540D01*
X4407860Y810200D01*
X4409360Y818060D01*
X4410100Y826000D01*
X4410100Y834000D01*
X4409360Y841940D01*
X4407860Y849800D01*
X4405640Y857460D01*
X4402720Y864900D01*
X4399120Y872020D01*
X4394860Y878780D01*
X4389980Y885100D01*
X4384540Y890939D01*
X4378560Y896260D01*
X4372120Y900980D01*
X4365280Y905080D01*
X4358060Y908520D01*
X4350560Y911260D01*
X4342840Y913300D01*
X4334960Y914620D01*
X4327000Y915180D01*
X4319020Y914980D01*
X4311080Y914060D01*
X4303280Y912380D01*
X4295660Y909980D01*
X4288300Y906880D01*
X4281260Y903100D01*
X4274600Y898680D01*
X4268400Y893660D01*
X4262680Y888080D01*
X4257520Y882000D01*
X4252940Y875440D01*
X4249000Y868500D01*
X4245720Y861220D01*
X4243160Y853660D01*
X4241300Y845879D01*
X4240180Y837980D01*
X4239800Y830000D01*
X4240180Y822020D01*
X4241300Y814120D01*
X4243160Y806340D01*
X4245720Y798780D01*
X4249000Y791500D01*
X4252940Y784560D01*
X4257520Y778000D01*
X4262680Y771919D01*
X4268400Y766340D01*
X4274600Y761320D01*
X4281260Y756900D01*
X4288300Y753120D01*
X4295660Y750020D01*
X4303280Y747620D01*
X4311080Y745939D01*
X4319020Y745020D01*
G37*
G36*
X1930000Y789820D02*
G01*
X1935000Y790160D01*
X1939920Y791240D01*
X1944620Y793000D01*
X1949019Y795400D01*
X1953040Y798400D01*
X1956600Y801960D01*
X1959600Y805980D01*
X1962000Y810380D01*
X1963760Y815080D01*
X1964840Y820000D01*
X1965200Y825140D01*
X1965200Y3123759D01*
X1965500Y3125299D01*
X1966380Y3126600D01*
X2008400Y3168620D01*
X2009700Y3169500D01*
X2011240Y3169800D01*
X4335800Y3169800D01*
X4337340Y3169500D01*
X4338620Y3168620D01*
X4339500Y3167340D01*
X4339800Y3165800D01*
X4339800Y2515020D01*
X4339500Y2513480D01*
X4338620Y2512200D01*
X4337340Y2511320D01*
X4335800Y2511020D01*
X4270900Y2511020D01*
X4268300Y2510920D01*
X4265820Y2510660D01*
X4263340Y2510220D01*
X4260900Y2509600D01*
X4258520Y2508800D01*
X4256200Y2507840D01*
X4253960Y2506720D01*
X4251800Y2505420D01*
X4249720Y2504000D01*
X4247780Y2502420D01*
X4245880Y2500660D01*
X4157420Y2412200D01*
X4156120Y2411320D01*
X4154580Y2411020D01*
X4106160Y2411020D01*
X4104800Y2411260D01*
X4103620Y2411940D01*
X4102640Y2412740D01*
X4097799Y2415800D01*
X4092620Y2418240D01*
X4087180Y2420020D01*
X4081540Y2421100D01*
X4075820Y2421460D01*
X4070100Y2421100D01*
X4064480Y2420020D01*
X4059040Y2418240D01*
X4053840Y2415800D01*
X4049000Y2412740D01*
X4044600Y2409080D01*
X4041100Y2405360D01*
X4039800Y2404440D01*
X4038260Y2404100D01*
X4036680Y2404400D01*
X4035360Y2405280D01*
X3862900Y2577740D01*
X3860419Y2579940D01*
X3856920Y2582200D01*
X3856139Y2582600D01*
X3853100Y2583860D01*
X3852260Y2584120D01*
X3848200Y2585000D01*
X3844880Y2585200D01*
X3555120Y2585200D01*
X3551800Y2585000D01*
X3547740Y2584120D01*
X3546900Y2583860D01*
X3543860Y2582600D01*
X3543080Y2582200D01*
X3539580Y2579940D01*
X3537100Y2577740D01*
X3486640Y2527280D01*
X3485360Y2526420D01*
X3482200Y2525120D01*
X3478440Y2522800D01*
X3475059Y2519940D01*
X3472200Y2516560D01*
X3469880Y2512800D01*
X3468200Y2508720D01*
X3467160Y2504400D01*
X3466820Y2500000D01*
X3467160Y2495600D01*
X3468200Y2491280D01*
X3469880Y2487200D01*
X3472200Y2483440D01*
X3475059Y2480060D01*
X3478440Y2477200D01*
X3482200Y2474880D01*
X3486280Y2473200D01*
X3490600Y2472160D01*
X3495000Y2471820D01*
X3499400Y2472160D01*
X3503720Y2473200D01*
X3507799Y2474880D01*
X3511560Y2477200D01*
X3514940Y2480060D01*
X3517799Y2483440D01*
X3520120Y2487200D01*
X3521420Y2490360D01*
X3522280Y2491640D01*
X3564260Y2533620D01*
X3565560Y2534500D01*
X3567100Y2534800D01*
X3832900Y2534800D01*
X3834440Y2534500D01*
X3835740Y2533620D01*
X4011259Y2358100D01*
X4014020Y2355700D01*
X4015000Y2354400D01*
X4015400Y2352820D01*
X4015120Y2351220D01*
X4014220Y2349860D01*
X3800740Y2136380D01*
X3799440Y2135500D01*
X3797919Y2135200D01*
X2670120Y2135200D01*
X2666800Y2135000D01*
X2662740Y2134120D01*
X2661900Y2133860D01*
X2658860Y2132600D01*
X2658080Y2132200D01*
X2654580Y2129940D01*
X2652100Y2127740D01*
X2602260Y2077900D01*
X2600059Y2075420D01*
X2597799Y2071920D01*
X2597400Y2071140D01*
X2596139Y2068100D01*
X2595880Y2067260D01*
X2595000Y2063200D01*
X2594800Y2059880D01*
X2594800Y2052140D01*
X2594560Y2050780D01*
X2590920Y2044940D01*
X2589060Y2040560D01*
X2587860Y2035940D01*
X2587340Y2031200D01*
X2587500Y2026420D01*
X2588380Y2021740D01*
X2589920Y2017220D01*
X2592100Y2012980D01*
X2594060Y2010240D01*
X2594600Y2009139D01*
X2594800Y2007900D01*
X2594800Y2002140D01*
X2594560Y2000780D01*
X2590920Y1994940D01*
X2589060Y1990560D01*
X2587860Y1985940D01*
X2587340Y1981200D01*
X2587500Y1976420D01*
X2588380Y1971740D01*
X2589920Y1967220D01*
X2592100Y1962980D01*
X2594880Y1959079D01*
X2598180Y1955660D01*
X2601960Y1952740D01*
X2606120Y1950400D01*
X2610580Y1948700D01*
X2615240Y1947660D01*
X2620000Y1947320D01*
X2624760Y1947660D01*
X2629420Y1948700D01*
X2633880Y1950400D01*
X2638039Y1952740D01*
X2643440Y1956879D01*
X2645000Y1957200D01*
X2646560Y1956879D01*
X2651960Y1952740D01*
X2656259Y1950360D01*
X2656259Y1966240D01*
X2655340Y1966240D01*
X2653860Y1966540D01*
X2652600Y1967360D01*
X2651720Y1968580D01*
X2651360Y1970040D01*
X2652500Y1976420D01*
X2652660Y1981200D01*
X2652140Y1985940D01*
X2651420Y1988740D01*
X2651300Y1990180D01*
X2651720Y1991579D01*
X2652620Y1992720D01*
X2653860Y1993480D01*
X2655280Y1993740D01*
X2656259Y1993740D01*
X2656259Y2016240D01*
X2655340Y2016240D01*
X2653860Y2016540D01*
X2652600Y2017360D01*
X2651720Y2018580D01*
X2651360Y2020040D01*
X2652500Y2026420D01*
X2652660Y2031200D01*
X2652140Y2035940D01*
X2651420Y2038740D01*
X2651300Y2040180D01*
X2651720Y2041579D01*
X2652620Y2042720D01*
X2653860Y2043480D01*
X2655280Y2043740D01*
X2656259Y2043740D01*
X2656259Y2058959D01*
X2656560Y2060480D01*
X2657420Y2061780D01*
X2679260Y2083620D01*
X2680560Y2084500D01*
X2682100Y2084800D01*
X3809880Y2084800D01*
X3813200Y2085000D01*
X3817280Y2085880D01*
X3818120Y2086140D01*
X3821160Y2087400D01*
X3824720Y2089540D01*
X3825419Y2090060D01*
X3827919Y2092260D01*
X4065340Y2329680D01*
X4066380Y2330440D01*
X4067620Y2330820D01*
X4068920Y2330780D01*
X4070100Y2330560D01*
X4075820Y2330200D01*
X4081540Y2330560D01*
X4087180Y2331640D01*
X4092620Y2333400D01*
X4097799Y2335840D01*
X4102640Y2338920D01*
X4103600Y2339700D01*
X4104800Y2340380D01*
X4106139Y2340620D01*
X4170740Y2340620D01*
X4173340Y2340720D01*
X4175820Y2340980D01*
X4178300Y2341420D01*
X4180740Y2342040D01*
X4183120Y2342840D01*
X4185440Y2343800D01*
X4187679Y2344920D01*
X4189840Y2346200D01*
X4191920Y2347640D01*
X4193860Y2349220D01*
X4195760Y2350980D01*
X4284220Y2439440D01*
X4285520Y2440320D01*
X4287060Y2440620D01*
X4344720Y2440620D01*
X4346080Y2440380D01*
X4347280Y2439700D01*
X4348220Y2438920D01*
X4353060Y2435840D01*
X4358240Y2433400D01*
X4363700Y2431640D01*
X4369320Y2430560D01*
X4375040Y2430200D01*
X4380760Y2430560D01*
X4386380Y2431640D01*
X4391840Y2433400D01*
X4397020Y2435840D01*
X4401860Y2438920D01*
X4406280Y2442560D01*
X4410200Y2446740D01*
X4413560Y2451380D01*
X4416320Y2456400D01*
X4418440Y2461720D01*
X4419860Y2467280D01*
X4420580Y2472960D01*
X4420580Y2478700D01*
X4419860Y2484380D01*
X4418440Y2489920D01*
X4416320Y2495260D01*
X4413560Y2500280D01*
X4410960Y2503840D01*
X4410400Y2504960D01*
X4410200Y2506200D01*
X4410200Y3165800D01*
X4410500Y3167340D01*
X4411380Y3168620D01*
X4412660Y3169500D01*
X4414200Y3169800D01*
X4943760Y3169800D01*
X4945300Y3169500D01*
X4946600Y3168620D01*
X4988580Y3126640D01*
X4989460Y3125340D01*
X4989760Y3123800D01*
X4989760Y2915140D01*
X4990120Y2910000D01*
X4991040Y2905779D01*
X4991140Y2904940D01*
X4991140Y2891600D01*
X4991420Y2889120D01*
X4992160Y2886960D01*
X4993380Y2885040D01*
X4995000Y2883420D01*
X4996920Y2882220D01*
X4999060Y2881460D01*
X5001560Y2881180D01*
X5014880Y2881180D01*
X5015740Y2881080D01*
X5019960Y2880160D01*
X5025100Y2879800D01*
X5078760Y2879800D01*
X5080300Y2879500D01*
X5081600Y2878620D01*
X5148620Y2811600D01*
X5149500Y2810299D01*
X5149800Y2808759D01*
X5149800Y2541240D01*
X5149500Y2539700D01*
X5148620Y2538400D01*
X4988520Y2378300D01*
X4987460Y2377540D01*
X4986200Y2377160D01*
X4983460Y2376820D01*
X4977900Y2375400D01*
X4972580Y2373280D01*
X4967560Y2370520D01*
X4962920Y2367160D01*
X4958740Y2363240D01*
X4955080Y2358820D01*
X4952020Y2353980D01*
X4949580Y2348800D01*
X4947800Y2343340D01*
X4946680Y2337440D01*
X4946300Y2336320D01*
X4945580Y2335360D01*
X4915160Y2304940D01*
X4913400Y2303040D01*
X4911820Y2301100D01*
X4910400Y2299020D01*
X4909100Y2296860D01*
X4907980Y2294620D01*
X4907020Y2292300D01*
X4906220Y2289920D01*
X4905600Y2287480D01*
X4905160Y2285000D01*
X4904900Y2282520D01*
X4904800Y2279920D01*
X4904800Y2120080D01*
X4904900Y2117480D01*
X4905160Y2115000D01*
X4905600Y2112520D01*
X4906220Y2110080D01*
X4907020Y2107700D01*
X4907980Y2105380D01*
X4909100Y2103140D01*
X4910400Y2100980D01*
X4911820Y2098900D01*
X4913400Y2096960D01*
X4915160Y2095060D01*
X4945580Y2064640D01*
X4946300Y2063680D01*
X4946680Y2062560D01*
X4947800Y2056660D01*
X4949580Y2051200D01*
X4952020Y2046020D01*
X4955080Y2041180D01*
X4955880Y2040220D01*
X4956560Y2039019D01*
X4956800Y2037680D01*
X4956800Y1667240D01*
X4956500Y1665700D01*
X4955640Y1664420D01*
X4734720Y1443500D01*
X4733760Y1442780D01*
X4732620Y1442400D01*
X4724840Y1442380D01*
X4718540Y1441660D01*
X4712380Y1440220D01*
X4706400Y1438100D01*
X4700720Y1435300D01*
X4695400Y1431879D01*
X4690500Y1427860D01*
X4686080Y1423320D01*
X4682220Y1418300D01*
X4678940Y1412880D01*
X4676320Y1407120D01*
X4674360Y1401100D01*
X4673100Y1394900D01*
X4672560Y1388580D01*
X4672740Y1382260D01*
X4673640Y1375980D01*
X4675240Y1369860D01*
X4677540Y1363959D01*
X4680500Y1358360D01*
X4684080Y1353120D01*
X4688220Y1348340D01*
X4692880Y1344060D01*
X4698020Y1340340D01*
X4703520Y1337220D01*
X4709360Y1334760D01*
X4715440Y1332980D01*
X4721680Y1331900D01*
X4727200Y1331579D01*
X4728620Y1331240D01*
X4729800Y1330420D01*
X4738620Y1321600D01*
X4739500Y1320300D01*
X4739800Y1318760D01*
X4739800Y1186240D01*
X4739500Y1184700D01*
X4738620Y1183400D01*
X4734720Y1179500D01*
X4733760Y1178780D01*
X4732620Y1178400D01*
X4724840Y1178380D01*
X4718540Y1177660D01*
X4712380Y1176220D01*
X4706400Y1174100D01*
X4700720Y1171300D01*
X4695400Y1167880D01*
X4690500Y1163860D01*
X4686080Y1159320D01*
X4682220Y1154300D01*
X4678940Y1148880D01*
X4676320Y1143120D01*
X4674360Y1137100D01*
X4673100Y1130900D01*
X4672560Y1124580D01*
X4672740Y1118260D01*
X4673640Y1111980D01*
X4675240Y1105860D01*
X4677540Y1099960D01*
X4680500Y1094360D01*
X4684080Y1089120D01*
X4688220Y1084340D01*
X4692880Y1080060D01*
X4698020Y1076340D01*
X4703520Y1073220D01*
X4709360Y1070760D01*
X4715440Y1068980D01*
X4721680Y1067900D01*
X4728000Y1067540D01*
X4734320Y1067900D01*
X4740560Y1068980D01*
X4746640Y1070760D01*
X4752480Y1073220D01*
X4757980Y1076340D01*
X4763120Y1080060D01*
X4767780Y1084340D01*
X4771920Y1089120D01*
X4775500Y1094360D01*
X4778460Y1099960D01*
X4780760Y1105860D01*
X4782360Y1111980D01*
X4783260Y1118260D01*
X4783440Y1124580D01*
X4783280Y1126480D01*
X4783520Y1128200D01*
X4784440Y1129660D01*
X4799840Y1145060D01*
X4801600Y1146960D01*
X4803180Y1148900D01*
X4804620Y1150980D01*
X4805900Y1153140D01*
X4807020Y1155380D01*
X4807980Y1157700D01*
X4808780Y1160080D01*
X4809400Y1162520D01*
X4809840Y1165000D01*
X4810100Y1167480D01*
X4810200Y1170080D01*
X4810200Y1334920D01*
X4810100Y1337520D01*
X4809840Y1340000D01*
X4809400Y1342480D01*
X4808780Y1344920D01*
X4807980Y1347300D01*
X4807020Y1349620D01*
X4805900Y1351860D01*
X4804620Y1354019D01*
X4803180Y1356100D01*
X4801600Y1358040D01*
X4799840Y1359940D01*
X4783960Y1375820D01*
X4783240Y1376819D01*
X4782840Y1377980D01*
X4782820Y1379220D01*
X4783260Y1382260D01*
X4783440Y1388580D01*
X4783280Y1390480D01*
X4783520Y1392200D01*
X4784440Y1393660D01*
X4986680Y1595900D01*
X4987980Y1596759D01*
X4989500Y1597060D01*
X4991040Y1596759D01*
X4992320Y1595900D01*
X5093620Y1494600D01*
X5094500Y1493300D01*
X5094800Y1491759D01*
X5094800Y1351240D01*
X5094500Y1349700D01*
X5093620Y1348400D01*
X5056400Y1311180D01*
X5055440Y1310480D01*
X5054320Y1310080D01*
X5053120Y1310040D01*
X5050160Y1310380D01*
X5043840Y1310380D01*
X5037540Y1309660D01*
X5031380Y1308220D01*
X5025400Y1306100D01*
X5019720Y1303300D01*
X5014400Y1299880D01*
X5009500Y1295860D01*
X5005080Y1291320D01*
X5001220Y1286300D01*
X4997940Y1280880D01*
X4995320Y1275120D01*
X4993360Y1269100D01*
X4992100Y1262900D01*
X4991560Y1256580D01*
X4991740Y1250260D01*
X4992640Y1243980D01*
X4994240Y1237860D01*
X4996540Y1231960D01*
X4999500Y1226360D01*
X5003080Y1221120D01*
X5007220Y1216340D01*
X5011880Y1212060D01*
X5017020Y1208340D01*
X5022520Y1205220D01*
X5028360Y1202760D01*
X5034440Y1200980D01*
X5040680Y1199900D01*
X5047000Y1199540D01*
X5053320Y1199900D01*
X5059560Y1200980D01*
X5065640Y1202760D01*
X5071480Y1205220D01*
X5076980Y1208340D01*
X5082120Y1212060D01*
X5086780Y1216340D01*
X5090920Y1221120D01*
X5094500Y1226360D01*
X5097460Y1231960D01*
X5099760Y1237860D01*
X5101360Y1243980D01*
X5102260Y1250260D01*
X5102440Y1256100D01*
X5102760Y1257580D01*
X5103600Y1258820D01*
X5154840Y1310060D01*
X5156600Y1311960D01*
X5158180Y1313899D01*
X5159620Y1315980D01*
X5160900Y1318140D01*
X5162020Y1320380D01*
X5162980Y1322700D01*
X5163780Y1325080D01*
X5164400Y1327520D01*
X5164840Y1330000D01*
X5165100Y1332480D01*
X5165200Y1335080D01*
X5165200Y1507920D01*
X5165100Y1510520D01*
X5164840Y1513000D01*
X5164400Y1515480D01*
X5163780Y1517920D01*
X5162980Y1520300D01*
X5162020Y1522620D01*
X5160900Y1524860D01*
X5159620Y1527020D01*
X5158180Y1529100D01*
X5156600Y1531040D01*
X5154840Y1532940D01*
X5028380Y1659400D01*
X5027500Y1660700D01*
X5027200Y1662240D01*
X5027200Y2037680D01*
X5027440Y2039040D01*
X5028120Y2040220D01*
X5028920Y2041180D01*
X5031980Y2046020D01*
X5034420Y2051200D01*
X5036200Y2056660D01*
X5037260Y2062280D01*
X5037620Y2068000D01*
X5037260Y2073720D01*
X5036200Y2079340D01*
X5034420Y2084800D01*
X5031980Y2089980D01*
X5028920Y2094820D01*
X5025260Y2099240D01*
X5021080Y2103160D01*
X5016440Y2106520D01*
X5011420Y2109280D01*
X5006100Y2111400D01*
X5000540Y2112820D01*
X4997800Y2113160D01*
X4996540Y2113540D01*
X4995480Y2114300D01*
X4976380Y2133400D01*
X4975500Y2134700D01*
X4975200Y2136240D01*
X4975200Y2263760D01*
X4975500Y2265300D01*
X4976380Y2266600D01*
X4995480Y2285700D01*
X4996540Y2286460D01*
X4997800Y2286840D01*
X5000540Y2287180D01*
X5006100Y2288600D01*
X5011420Y2290720D01*
X5016440Y2293480D01*
X5021080Y2296840D01*
X5025260Y2300760D01*
X5028920Y2305180D01*
X5031980Y2310020D01*
X5034420Y2315200D01*
X5036200Y2320660D01*
X5037320Y2326560D01*
X5037700Y2327680D01*
X5038420Y2328640D01*
X5209840Y2500060D01*
X5211600Y2501960D01*
X5213180Y2503900D01*
X5214620Y2505980D01*
X5215900Y2508140D01*
X5217020Y2510380D01*
X5217980Y2512700D01*
X5218780Y2515080D01*
X5219400Y2517520D01*
X5219840Y2520000D01*
X5220100Y2522480D01*
X5220200Y2525080D01*
X5220200Y2824920D01*
X5220100Y2827520D01*
X5219840Y2830000D01*
X5219400Y2832480D01*
X5218780Y2834920D01*
X5217980Y2837300D01*
X5217020Y2839620D01*
X5215900Y2841860D01*
X5214620Y2844020D01*
X5213180Y2846100D01*
X5211600Y2848039D01*
X5209840Y2849940D01*
X5119940Y2939840D01*
X5118040Y2941600D01*
X5116100Y2943180D01*
X5114020Y2944600D01*
X5111860Y2945899D01*
X5109620Y2947020D01*
X5107300Y2947980D01*
X5104920Y2948780D01*
X5102480Y2949400D01*
X5100000Y2949840D01*
X5097520Y2950100D01*
X5094920Y2950200D01*
X5064160Y2950200D01*
X5062620Y2950500D01*
X5061340Y2951380D01*
X5060460Y2952660D01*
X5060160Y2954200D01*
X5060160Y3139960D01*
X5060060Y3142559D01*
X5059800Y3145040D01*
X5059360Y3147520D01*
X5058740Y3149960D01*
X5057940Y3152340D01*
X5056980Y3154660D01*
X5055860Y3156900D01*
X5054580Y3159060D01*
X5053140Y3161139D01*
X5051560Y3163080D01*
X5049800Y3164980D01*
X4984940Y3229840D01*
X4983040Y3231600D01*
X4981100Y3233180D01*
X4979020Y3234600D01*
X4976860Y3235899D01*
X4974620Y3237020D01*
X4972300Y3237980D01*
X4969920Y3238780D01*
X4967480Y3239400D01*
X4965000Y3239840D01*
X4962520Y3240100D01*
X4959920Y3240200D01*
X1995080Y3240200D01*
X1992480Y3240100D01*
X1990000Y3239840D01*
X1987520Y3239400D01*
X1985080Y3238780D01*
X1982700Y3237980D01*
X1980380Y3237020D01*
X1978140Y3235899D01*
X1975980Y3234600D01*
X1973899Y3233180D01*
X1971960Y3231600D01*
X1970060Y3229840D01*
X1905160Y3164940D01*
X1903400Y3163039D01*
X1901819Y3161100D01*
X1900400Y3159020D01*
X1899100Y3156860D01*
X1897980Y3154620D01*
X1897020Y3152300D01*
X1896220Y3149920D01*
X1895600Y3147480D01*
X1895160Y3145000D01*
X1894900Y3142520D01*
X1894800Y3139920D01*
X1894800Y825140D01*
X1895160Y820000D01*
X1896240Y815080D01*
X1898000Y810380D01*
X1900400Y805980D01*
X1903400Y801960D01*
X1906960Y798400D01*
X1910980Y795400D01*
X1915380Y793000D01*
X1920080Y791240D01*
X1925000Y790160D01*
G37*
G36*
X2521340Y944840D02*
G01*
X2526680Y945360D01*
X2531900Y946620D01*
X2536920Y948540D01*
X2541620Y951120D01*
X2545940Y954300D01*
X2549800Y958040D01*
X2553140Y962260D01*
X2555880Y966880D01*
X2557960Y971820D01*
X2559380Y977000D01*
X2560100Y982320D01*
X2560100Y987680D01*
X2559380Y993000D01*
X2557960Y998180D01*
X2555880Y1003120D01*
X2553140Y1007740D01*
X2549800Y1011960D01*
X2545940Y1015699D01*
X2541620Y1018880D01*
X2536920Y1021460D01*
X2531900Y1023379D01*
X2526680Y1024640D01*
X2521340Y1025160D01*
X2515980Y1024980D01*
X2510680Y1024100D01*
X2505560Y1022500D01*
X2500680Y1020240D01*
X2496160Y1017360D01*
X2492060Y1013900D01*
X2488460Y1009900D01*
X2485420Y1005480D01*
X2483000Y1000699D01*
X2481240Y995620D01*
X2480160Y990360D01*
X2479800Y985000D01*
X2480160Y979640D01*
X2481240Y974380D01*
X2483000Y969300D01*
X2485420Y964520D01*
X2488460Y960100D01*
X2492060Y956100D01*
X2496160Y952640D01*
X2500680Y949760D01*
X2505560Y947500D01*
X2510680Y945900D01*
X2515980Y945020D01*
G37*
G36*
X2521340Y1044840D02*
G01*
X2526680Y1045360D01*
X2531900Y1046620D01*
X2536920Y1048540D01*
X2541620Y1051120D01*
X2545940Y1054300D01*
X2549800Y1058040D01*
X2553140Y1062260D01*
X2555880Y1066880D01*
X2557960Y1071820D01*
X2559380Y1077000D01*
X2560100Y1082320D01*
X2560100Y1087680D01*
X2559380Y1093000D01*
X2557960Y1098180D01*
X2555880Y1103120D01*
X2553140Y1107740D01*
X2549800Y1111960D01*
X2545940Y1115700D01*
X2541620Y1118880D01*
X2536920Y1121460D01*
X2531900Y1123380D01*
X2526680Y1124640D01*
X2521340Y1125160D01*
X2515980Y1124980D01*
X2510680Y1124100D01*
X2505560Y1122500D01*
X2500680Y1120240D01*
X2496160Y1117360D01*
X2492060Y1113900D01*
X2488460Y1109900D01*
X2485420Y1105480D01*
X2483000Y1100700D01*
X2481240Y1095620D01*
X2480160Y1090360D01*
X2479800Y1085000D01*
X2480160Y1079640D01*
X2481240Y1074380D01*
X2483000Y1069300D01*
X2485420Y1064520D01*
X2488460Y1060100D01*
X2492060Y1056100D01*
X2496160Y1052640D01*
X2500680Y1049760D01*
X2505560Y1047500D01*
X2510680Y1045900D01*
X2515980Y1045020D01*
G37*
G36*
X4994380Y1067580D02*
G01*
X5000680Y1068220D01*
X5006860Y1069560D01*
X5012860Y1071600D01*
X5018580Y1074320D01*
X5023960Y1077660D01*
X5028920Y1081600D01*
X5033400Y1086080D01*
X5037340Y1091040D01*
X5040680Y1096420D01*
X5043400Y1102140D01*
X5045440Y1108140D01*
X5046780Y1114320D01*
X5047420Y1120620D01*
X5047320Y1126960D01*
X5046520Y1133240D01*
X5045000Y1139380D01*
X5042780Y1145320D01*
X5039900Y1150960D01*
X5036400Y1156240D01*
X5032320Y1161080D01*
X5027720Y1165440D01*
X5022660Y1169240D01*
X5017180Y1172420D01*
X5011380Y1174980D01*
X5005340Y1176840D01*
X4999100Y1178020D01*
X4992800Y1178460D01*
X4986460Y1178200D01*
X4980200Y1177200D01*
X4974100Y1175500D01*
X4968240Y1173120D01*
X4962680Y1170080D01*
X4957500Y1166440D01*
X4952780Y1162220D01*
X4948560Y1157500D01*
X4944920Y1152320D01*
X4941880Y1146760D01*
X4939500Y1140900D01*
X4937800Y1134800D01*
X4936800Y1128540D01*
X4936540Y1122200D01*
X4936980Y1115900D01*
X4938160Y1109660D01*
X4940020Y1103620D01*
X4942580Y1097820D01*
X4945760Y1092340D01*
X4949560Y1087280D01*
X4953920Y1082680D01*
X4958760Y1078600D01*
X4964040Y1075100D01*
X4969680Y1072220D01*
X4975620Y1070000D01*
X4981760Y1068480D01*
X4988040Y1067680D01*
G37*
G36*
X2537500Y1148860D02*
G01*
X2541620Y1151120D01*
X2545940Y1154300D01*
X2549800Y1158040D01*
X2553140Y1162260D01*
X2555880Y1166880D01*
X2556140Y1167500D01*
X2537500Y1167500D01*
G37*
G36*
X2502500Y1148920D02*
G01*
X2502500Y1167500D01*
X2483920Y1167500D01*
X2485420Y1164520D01*
X2488460Y1160100D01*
X2492060Y1156100D01*
X2496160Y1152640D01*
X2500680Y1149760D01*
G37*
G36*
X4673000Y1199540D02*
G01*
X4679320Y1199900D01*
X4685560Y1200980D01*
X4691640Y1202760D01*
X4697480Y1205220D01*
X4702980Y1208340D01*
X4708120Y1212060D01*
X4712780Y1216340D01*
X4716920Y1221120D01*
X4720500Y1226360D01*
X4723460Y1231960D01*
X4725760Y1237860D01*
X4727360Y1243980D01*
X4728260Y1250260D01*
X4728440Y1256580D01*
X4727900Y1262900D01*
X4726640Y1269100D01*
X4724680Y1275120D01*
X4722060Y1280880D01*
X4718780Y1286300D01*
X4714920Y1291320D01*
X4710500Y1295860D01*
X4705600Y1299880D01*
X4700280Y1303300D01*
X4694600Y1306100D01*
X4688620Y1308220D01*
X4682460Y1309660D01*
X4676160Y1310380D01*
X4669840Y1310380D01*
X4663540Y1309660D01*
X4657380Y1308220D01*
X4651400Y1306100D01*
X4645720Y1303300D01*
X4640400Y1299880D01*
X4635500Y1295860D01*
X4631080Y1291320D01*
X4627220Y1286300D01*
X4623940Y1280880D01*
X4621320Y1275120D01*
X4619360Y1269100D01*
X4618100Y1262900D01*
X4617560Y1256580D01*
X4617740Y1250260D01*
X4618640Y1243980D01*
X4620240Y1237860D01*
X4622540Y1231960D01*
X4625500Y1226360D01*
X4629080Y1221120D01*
X4633220Y1216340D01*
X4637880Y1212060D01*
X4643020Y1208340D01*
X4648520Y1205220D01*
X4654360Y1202760D01*
X4660440Y1200980D01*
X4666680Y1199900D01*
G37*
G36*
X2483920Y1202500D02*
G01*
X2502500Y1202500D01*
X2502500Y1221080D01*
X2500680Y1220240D01*
X2496160Y1217360D01*
X2492060Y1213900D01*
X2488460Y1209900D01*
X2485420Y1205480D01*
G37*
G36*
X2537500Y1202500D02*
G01*
X2556140Y1202500D01*
X2555880Y1203120D01*
X2553140Y1207740D01*
X2549800Y1211960D01*
X2545940Y1215700D01*
X2541620Y1218880D01*
X2537500Y1221140D01*
G37*
G36*
X2521340Y1244840D02*
G01*
X2526680Y1245360D01*
X2531900Y1246620D01*
X2536920Y1248540D01*
X2541620Y1251120D01*
X2545940Y1254300D01*
X2549800Y1258040D01*
X2553140Y1262260D01*
X2555880Y1266880D01*
X2557960Y1271820D01*
X2559380Y1277000D01*
X2560100Y1282320D01*
X2560100Y1287680D01*
X2559380Y1293000D01*
X2557860Y1298500D01*
X2557740Y1299900D01*
X2558100Y1301260D01*
X2558900Y1302400D01*
X2645600Y1389120D01*
X2647620Y1391560D01*
X2649020Y1394199D01*
X2649880Y1397040D01*
X2650200Y1400200D01*
X2650200Y1547280D01*
X2650500Y1548820D01*
X2651380Y1550120D01*
X2652000Y1550740D01*
X2654220Y1553899D01*
X2655840Y1557420D01*
X2656840Y1561140D01*
X2657180Y1565000D01*
X2656840Y1568860D01*
X2655840Y1572580D01*
X2654220Y1576100D01*
X2652000Y1579259D01*
X2649260Y1582000D01*
X2646100Y1584220D01*
X2642580Y1585840D01*
X2638860Y1586840D01*
X2635000Y1587180D01*
X2631139Y1586840D01*
X2627420Y1585840D01*
X2623900Y1584220D01*
X2620740Y1582000D01*
X2618000Y1579259D01*
X2615779Y1576100D01*
X2614160Y1572580D01*
X2613159Y1568860D01*
X2612820Y1565000D01*
X2613159Y1561140D01*
X2614160Y1557420D01*
X2615779Y1553899D01*
X2618000Y1550740D01*
X2618620Y1550120D01*
X2619500Y1548820D01*
X2619800Y1547280D01*
X2619800Y1407960D01*
X2619500Y1406420D01*
X2618620Y1405120D01*
X2537340Y1323839D01*
X2536080Y1322980D01*
X2534580Y1322660D01*
X2533080Y1322940D01*
X2531900Y1323380D01*
X2526680Y1324640D01*
X2521340Y1325160D01*
X2515980Y1324980D01*
X2510680Y1324100D01*
X2505560Y1322500D01*
X2500680Y1320240D01*
X2496160Y1317360D01*
X2492060Y1313899D01*
X2488460Y1309900D01*
X2485420Y1305480D01*
X2483000Y1300700D01*
X2481240Y1295620D01*
X2480160Y1290360D01*
X2479800Y1285000D01*
X2480160Y1279640D01*
X2481240Y1274380D01*
X2483000Y1269300D01*
X2485420Y1264520D01*
X2488460Y1260100D01*
X2492060Y1256100D01*
X2496160Y1252640D01*
X2500680Y1249760D01*
X2505560Y1247500D01*
X2510680Y1245900D01*
X2515980Y1245020D01*
G37*
G36*
X4992800Y1331540D02*
G01*
X4999100Y1331980D01*
X5005340Y1333160D01*
X5011380Y1335020D01*
X5017180Y1337580D01*
X5022660Y1340760D01*
X5027720Y1344560D01*
X5032320Y1348920D01*
X5036400Y1353760D01*
X5039900Y1359040D01*
X5042780Y1364680D01*
X5045000Y1370620D01*
X5046520Y1376759D01*
X5047320Y1383040D01*
X5047420Y1389379D01*
X5046780Y1395680D01*
X5045440Y1401860D01*
X5043400Y1407860D01*
X5040680Y1413580D01*
X5037340Y1418959D01*
X5033400Y1423920D01*
X5028920Y1428400D01*
X5023960Y1432340D01*
X5018580Y1435680D01*
X5012860Y1438400D01*
X5006860Y1440440D01*
X5000680Y1441780D01*
X4994380Y1442420D01*
X4988040Y1442320D01*
X4981760Y1441519D01*
X4975620Y1440000D01*
X4969680Y1437780D01*
X4964040Y1434900D01*
X4958760Y1431399D01*
X4953920Y1427320D01*
X4949560Y1422720D01*
X4945760Y1417660D01*
X4942580Y1412180D01*
X4940020Y1406380D01*
X4938160Y1400340D01*
X4936980Y1394100D01*
X4936540Y1387800D01*
X4936800Y1381459D01*
X4937800Y1375200D01*
X4939500Y1369100D01*
X4941880Y1363240D01*
X4944920Y1357680D01*
X4948560Y1352500D01*
X4952780Y1347780D01*
X4957500Y1343560D01*
X4962680Y1339920D01*
X4968240Y1336879D01*
X4974100Y1334500D01*
X4980200Y1332800D01*
X4986460Y1331800D01*
G37*
G36*
X2521340Y1344840D02*
G01*
X2526680Y1345360D01*
X2531900Y1346620D01*
X2536920Y1348540D01*
X2541620Y1351120D01*
X2545940Y1354300D01*
X2549800Y1358040D01*
X2553140Y1362260D01*
X2555880Y1366879D01*
X2557960Y1371819D01*
X2559380Y1377000D01*
X2560100Y1382320D01*
X2560100Y1387680D01*
X2559380Y1393000D01*
X2557960Y1398180D01*
X2555880Y1403120D01*
X2553140Y1407740D01*
X2549800Y1411960D01*
X2545940Y1415700D01*
X2541620Y1418880D01*
X2536920Y1421459D01*
X2531900Y1423380D01*
X2526680Y1424640D01*
X2521340Y1425160D01*
X2515980Y1424980D01*
X2510680Y1424100D01*
X2505560Y1422500D01*
X2500680Y1420240D01*
X2496160Y1417360D01*
X2492060Y1413899D01*
X2488460Y1409900D01*
X2485420Y1405480D01*
X2483000Y1400700D01*
X2481240Y1395620D01*
X2480160Y1390360D01*
X2479800Y1385000D01*
X2480160Y1379640D01*
X2481240Y1374379D01*
X2483000Y1369300D01*
X2485420Y1364520D01*
X2488460Y1360100D01*
X2492060Y1356100D01*
X2496160Y1352640D01*
X2500680Y1349760D01*
X2505560Y1347500D01*
X2510680Y1345900D01*
X2515980Y1345020D01*
G37*
G36*
X2521340Y1444840D02*
G01*
X2526680Y1445360D01*
X2531900Y1446620D01*
X2536920Y1448540D01*
X2541620Y1451120D01*
X2545940Y1454300D01*
X2549800Y1458040D01*
X2553140Y1462260D01*
X2555880Y1466879D01*
X2557960Y1471819D01*
X2559380Y1477000D01*
X2560100Y1482320D01*
X2560100Y1487680D01*
X2559380Y1493000D01*
X2557960Y1498180D01*
X2555880Y1503120D01*
X2553140Y1507740D01*
X2549800Y1511960D01*
X2545940Y1515700D01*
X2541620Y1518880D01*
X2536920Y1521459D01*
X2531900Y1523380D01*
X2526680Y1524640D01*
X2521340Y1525160D01*
X2515980Y1524980D01*
X2510680Y1524100D01*
X2505560Y1522500D01*
X2500680Y1520240D01*
X2496160Y1517360D01*
X2492060Y1513899D01*
X2488460Y1509900D01*
X2485420Y1505480D01*
X2483000Y1500700D01*
X2481240Y1495620D01*
X2480160Y1490360D01*
X2479800Y1485000D01*
X2480160Y1479640D01*
X2481240Y1474379D01*
X2483000Y1469300D01*
X2485420Y1464520D01*
X2488460Y1460100D01*
X2492060Y1456100D01*
X2496160Y1452640D01*
X2500680Y1449760D01*
X2505560Y1447500D01*
X2510680Y1445900D01*
X2515980Y1445020D01*
G37*
G36*
X4322000Y1544820D02*
G01*
X4329960Y1545380D01*
X4337840Y1546699D01*
X4345560Y1548740D01*
X4353060Y1551480D01*
X4360280Y1554920D01*
X4367120Y1559019D01*
X4373560Y1563740D01*
X4379540Y1569060D01*
X4384980Y1574900D01*
X4389860Y1581220D01*
X4394120Y1587980D01*
X4397720Y1595100D01*
X4400640Y1602540D01*
X4402860Y1610200D01*
X4404360Y1618060D01*
X4405100Y1626000D01*
X4405100Y1634000D01*
X4404360Y1641940D01*
X4402860Y1649800D01*
X4400640Y1657460D01*
X4397720Y1664900D01*
X4394120Y1672020D01*
X4389860Y1678779D01*
X4384980Y1685100D01*
X4379540Y1690940D01*
X4373560Y1696260D01*
X4367120Y1700980D01*
X4360280Y1705080D01*
X4353060Y1708520D01*
X4345560Y1711260D01*
X4337840Y1713300D01*
X4329960Y1714620D01*
X4322000Y1715180D01*
X4314020Y1714980D01*
X4306080Y1714060D01*
X4298280Y1712380D01*
X4290660Y1709980D01*
X4283300Y1706879D01*
X4276260Y1703100D01*
X4269600Y1698680D01*
X4263400Y1693660D01*
X4257680Y1688080D01*
X4252520Y1682000D01*
X4247940Y1675440D01*
X4244000Y1668500D01*
X4240720Y1661220D01*
X4238160Y1653660D01*
X4236300Y1645880D01*
X4235180Y1637980D01*
X4234800Y1630000D01*
X4235180Y1622020D01*
X4236300Y1614120D01*
X4238160Y1606339D01*
X4240720Y1598779D01*
X4244000Y1591500D01*
X4247940Y1584560D01*
X4252520Y1578000D01*
X4257680Y1571920D01*
X4263400Y1566339D01*
X4269600Y1561320D01*
X4276260Y1556900D01*
X4283300Y1553120D01*
X4290660Y1550020D01*
X4298280Y1547620D01*
X4306080Y1545940D01*
X4314020Y1545020D01*
G37*
G36*
X2522000Y1544820D02*
G01*
X2529960Y1545380D01*
X2537840Y1546699D01*
X2545560Y1548740D01*
X2553060Y1551480D01*
X2560280Y1554920D01*
X2567120Y1559019D01*
X2573560Y1563740D01*
X2579540Y1569060D01*
X2584980Y1574900D01*
X2589860Y1581220D01*
X2594120Y1587980D01*
X2597720Y1595100D01*
X2600640Y1602540D01*
X2602860Y1610200D01*
X2604360Y1618060D01*
X2605100Y1626000D01*
X2605100Y1634000D01*
X2604360Y1641940D01*
X2602860Y1649800D01*
X2600640Y1657460D01*
X2597720Y1664900D01*
X2594120Y1672020D01*
X2589860Y1678779D01*
X2584980Y1685100D01*
X2579540Y1690940D01*
X2573560Y1696260D01*
X2567120Y1700980D01*
X2560280Y1705080D01*
X2553060Y1708520D01*
X2545560Y1711260D01*
X2537840Y1713300D01*
X2529960Y1714620D01*
X2522000Y1715180D01*
X2514020Y1714980D01*
X2506080Y1714060D01*
X2498280Y1712380D01*
X2490660Y1709980D01*
X2483300Y1706879D01*
X2476260Y1703100D01*
X2469600Y1698680D01*
X2463400Y1693660D01*
X2457680Y1688080D01*
X2452520Y1682000D01*
X2447940Y1675440D01*
X2444000Y1668500D01*
X2440720Y1661220D01*
X2438160Y1653660D01*
X2436300Y1645880D01*
X2435180Y1637980D01*
X2434800Y1630000D01*
X2435180Y1622020D01*
X2436300Y1614120D01*
X2438160Y1606339D01*
X2440720Y1598779D01*
X2444000Y1591500D01*
X2447940Y1584560D01*
X2452520Y1578000D01*
X2457680Y1571920D01*
X2463400Y1566339D01*
X2469600Y1561320D01*
X2476260Y1556900D01*
X2483300Y1553120D01*
X2490660Y1550020D01*
X2498280Y1547620D01*
X2506080Y1545940D01*
X2514020Y1545020D01*
G37*
G36*
X2585000Y1837820D02*
G01*
X2588860Y1838160D01*
X2592580Y1839160D01*
X2596100Y1840780D01*
X2599260Y1843000D01*
X2599880Y1843620D01*
X2601180Y1844500D01*
X2602720Y1844800D01*
X2874800Y1844800D01*
X2877960Y1845120D01*
X2880800Y1845980D01*
X2883440Y1847380D01*
X2885880Y1849400D01*
X2933220Y1896720D01*
X2934360Y1897520D01*
X2935700Y1897880D01*
X2938860Y1898160D01*
X2942580Y1899160D01*
X2946100Y1900780D01*
X2949260Y1903000D01*
X2952000Y1905740D01*
X2954220Y1908899D01*
X2955840Y1912420D01*
X2956840Y1916140D01*
X2957180Y1920000D01*
X2956840Y1923860D01*
X2955840Y1927580D01*
X2954220Y1931100D01*
X2952000Y1934259D01*
X2949260Y1937000D01*
X2946100Y1939220D01*
X2942580Y1940840D01*
X2938860Y1941840D01*
X2935000Y1942180D01*
X2931139Y1941840D01*
X2927420Y1940840D01*
X2923900Y1939220D01*
X2920740Y1937000D01*
X2918000Y1934259D01*
X2915779Y1931100D01*
X2914160Y1927580D01*
X2913159Y1923860D01*
X2912880Y1920700D01*
X2912520Y1919360D01*
X2911720Y1918220D01*
X2869880Y1876380D01*
X2868580Y1875500D01*
X2867040Y1875200D01*
X2602720Y1875200D01*
X2601180Y1875500D01*
X2599880Y1876380D01*
X2599260Y1877000D01*
X2596100Y1879220D01*
X2592580Y1880840D01*
X2588860Y1881840D01*
X2585000Y1882180D01*
X2581139Y1881840D01*
X2577420Y1880840D01*
X2573900Y1879220D01*
X2570740Y1877000D01*
X2568000Y1874259D01*
X2565779Y1871100D01*
X2564160Y1867580D01*
X2563159Y1863860D01*
X2562820Y1860000D01*
X2563159Y1856140D01*
X2564160Y1852420D01*
X2565779Y1848899D01*
X2568000Y1845740D01*
X2570740Y1843000D01*
X2573900Y1840780D01*
X2577420Y1839160D01*
X2581139Y1838160D01*
G37*
G36*
X4375040Y1932560D02*
G01*
X4380760Y1932920D01*
X4386380Y1934000D01*
X4391840Y1935760D01*
X4397020Y1938200D01*
X4401860Y1941279D01*
X4406280Y1944920D01*
X4410200Y1949100D01*
X4413560Y1953740D01*
X4416320Y1958760D01*
X4418440Y1964100D01*
X4419860Y1969640D01*
X4420580Y1975320D01*
X4420580Y1981060D01*
X4419860Y1986740D01*
X4418440Y1992280D01*
X4416320Y1997620D01*
X4413560Y2002640D01*
X4410200Y2007280D01*
X4406280Y2011440D01*
X4401860Y2015100D01*
X4397020Y2018180D01*
X4391840Y2020620D01*
X4386380Y2022380D01*
X4380760Y2023460D01*
X4375040Y2023820D01*
X4369320Y2023460D01*
X4363700Y2022380D01*
X4358240Y2020620D01*
X4353060Y2018180D01*
X4348220Y2015100D01*
X4343800Y2011440D01*
X4339880Y2007280D01*
X4336520Y2002640D01*
X4333760Y1997620D01*
X4331640Y1992280D01*
X4330220Y1986740D01*
X4329500Y1981060D01*
X4329500Y1975320D01*
X4330220Y1969640D01*
X4331640Y1964100D01*
X4333760Y1958760D01*
X4336520Y1953740D01*
X4339880Y1949100D01*
X4343800Y1944920D01*
X4348220Y1941279D01*
X4353060Y1938200D01*
X4358240Y1935760D01*
X4363700Y1934000D01*
X4369320Y1932920D01*
G37*
G36*
X2720000Y1947320D02*
G01*
X2724760Y1947660D01*
X2729420Y1948700D01*
X2733880Y1950400D01*
X2738039Y1952740D01*
X2743440Y1956879D01*
X2745000Y1957200D01*
X2746560Y1956879D01*
X2751960Y1952740D01*
X2756120Y1950400D01*
X2760580Y1948700D01*
X2765240Y1947660D01*
X2770000Y1947320D01*
X2774760Y1947660D01*
X2779420Y1948700D01*
X2783880Y1950400D01*
X2788039Y1952740D01*
X2793440Y1956879D01*
X2795000Y1957200D01*
X2796560Y1956879D01*
X2801960Y1952740D01*
X2806120Y1950400D01*
X2810580Y1948700D01*
X2815240Y1947660D01*
X2820000Y1947320D01*
X2824760Y1947660D01*
X2829420Y1948700D01*
X2833880Y1950400D01*
X2838039Y1952740D01*
X2841820Y1955660D01*
X2845120Y1959079D01*
X2847900Y1962980D01*
X2850080Y1967220D01*
X2851620Y1971740D01*
X2852500Y1976420D01*
X2852660Y1981200D01*
X2852140Y1985940D01*
X2850940Y1990560D01*
X2849080Y1994940D01*
X2846580Y1999019D01*
X2843700Y2002480D01*
X2843000Y2003740D01*
X2842780Y2005180D01*
X2843100Y2006600D01*
X2843900Y2007820D01*
X2845120Y2009079D01*
X2847900Y2012980D01*
X2850080Y2017220D01*
X2851620Y2021740D01*
X2852500Y2026420D01*
X2852660Y2031200D01*
X2852140Y2035940D01*
X2850940Y2040560D01*
X2849080Y2044940D01*
X2846580Y2049019D01*
X2843540Y2052680D01*
X2839980Y2055880D01*
X2836000Y2058500D01*
X2831680Y2060540D01*
X2827100Y2061900D01*
X2822380Y2062600D01*
X2817620Y2062600D01*
X2812900Y2061900D01*
X2808320Y2060540D01*
X2804000Y2058500D01*
X2800020Y2055880D01*
X2797660Y2053760D01*
X2796420Y2053000D01*
X2795000Y2052740D01*
X2793580Y2053000D01*
X2792340Y2053760D01*
X2789980Y2055880D01*
X2786000Y2058500D01*
X2781680Y2060540D01*
X2777100Y2061900D01*
X2772380Y2062600D01*
X2767620Y2062600D01*
X2762900Y2061900D01*
X2758320Y2060540D01*
X2754000Y2058500D01*
X2750020Y2055880D01*
X2747660Y2053760D01*
X2746420Y2053000D01*
X2745000Y2052740D01*
X2743580Y2053000D01*
X2742340Y2053760D01*
X2739980Y2055880D01*
X2736000Y2058500D01*
X2731680Y2060540D01*
X2727100Y2061900D01*
X2722380Y2062600D01*
X2717620Y2062600D01*
X2712900Y2061900D01*
X2708320Y2060540D01*
X2704000Y2058500D01*
X2700020Y2055880D01*
X2697660Y2053760D01*
X2696420Y2053000D01*
X2695000Y2052740D01*
X2693580Y2053000D01*
X2692340Y2053760D01*
X2689980Y2055880D01*
X2686000Y2058500D01*
X2683759Y2059560D01*
X2683759Y2043740D01*
X2684720Y2043740D01*
X2686139Y2043480D01*
X2687380Y2042720D01*
X2688279Y2041579D01*
X2688700Y2040180D01*
X2688580Y2038740D01*
X2687860Y2035940D01*
X2687340Y2031200D01*
X2687500Y2026420D01*
X2688440Y2021540D01*
X2688639Y2020040D01*
X2688279Y2018580D01*
X2687400Y2017360D01*
X2686139Y2016540D01*
X2684660Y2016240D01*
X2683759Y2016240D01*
X2683759Y1993740D01*
X2684720Y1993740D01*
X2686139Y1993480D01*
X2687380Y1992720D01*
X2688279Y1991579D01*
X2688700Y1990180D01*
X2688580Y1988740D01*
X2687860Y1985940D01*
X2687340Y1981200D01*
X2687500Y1976420D01*
X2688440Y1971540D01*
X2688639Y1970040D01*
X2688279Y1968580D01*
X2687400Y1967360D01*
X2686139Y1966540D01*
X2684660Y1966240D01*
X2683759Y1966240D01*
X2683759Y1950360D01*
X2688039Y1952740D01*
X2693440Y1956879D01*
X2695000Y1957200D01*
X2696560Y1956879D01*
X2701960Y1952740D01*
X2706120Y1950400D01*
X2710580Y1948700D01*
X2715240Y1947660D01*
G37*
G36*
X4725140Y2022460D02*
G01*
X4730860Y2022460D01*
X4736540Y2023180D01*
X4742100Y2024600D01*
X4747420Y2026720D01*
X4752440Y2029480D01*
X4757080Y2032840D01*
X4761260Y2036759D01*
X4764920Y2041180D01*
X4767980Y2046020D01*
X4770420Y2051200D01*
X4772200Y2056660D01*
X4773260Y2062280D01*
X4773620Y2068000D01*
X4773260Y2073720D01*
X4772200Y2079340D01*
X4770420Y2084800D01*
X4767980Y2089980D01*
X4764920Y2094820D01*
X4761260Y2099240D01*
X4757080Y2103160D01*
X4752440Y2106520D01*
X4747420Y2109280D01*
X4742100Y2111400D01*
X4736540Y2112820D01*
X4730860Y2113540D01*
X4725140Y2113540D01*
X4719460Y2112820D01*
X4713900Y2111400D01*
X4708580Y2109280D01*
X4703560Y2106520D01*
X4698920Y2103160D01*
X4694740Y2099240D01*
X4691080Y2094820D01*
X4688020Y2089980D01*
X4685580Y2084800D01*
X4683800Y2079340D01*
X4682740Y2073720D01*
X4682380Y2068000D01*
X4682740Y2062280D01*
X4683800Y2056660D01*
X4685580Y2051200D01*
X4688020Y2046020D01*
X4691080Y2041180D01*
X4694740Y2036759D01*
X4698920Y2032840D01*
X4703560Y2029480D01*
X4708580Y2026720D01*
X4713900Y2024600D01*
X4719460Y2023180D01*
G37*
G36*
X4670140Y2154460D02*
G01*
X4675860Y2154460D01*
X4681540Y2155180D01*
X4687100Y2156600D01*
X4692420Y2158720D01*
X4697440Y2161480D01*
X4702080Y2164840D01*
X4706260Y2168760D01*
X4709920Y2173180D01*
X4712980Y2178020D01*
X4715420Y2183200D01*
X4717200Y2188660D01*
X4718260Y2194280D01*
X4718620Y2200000D01*
X4718260Y2205720D01*
X4717200Y2211340D01*
X4715420Y2216800D01*
X4712980Y2221980D01*
X4709920Y2226820D01*
X4706260Y2231240D01*
X4702080Y2235160D01*
X4697440Y2238520D01*
X4692420Y2241280D01*
X4687100Y2243400D01*
X4681540Y2244820D01*
X4675860Y2245540D01*
X4670140Y2245540D01*
X4664460Y2244820D01*
X4658900Y2243400D01*
X4653580Y2241280D01*
X4648560Y2238520D01*
X4643920Y2235160D01*
X4639740Y2231240D01*
X4636080Y2226820D01*
X4633020Y2221980D01*
X4630580Y2216800D01*
X4628800Y2211340D01*
X4627740Y2205720D01*
X4627380Y2200000D01*
X4627740Y2194280D01*
X4628800Y2188660D01*
X4630580Y2183200D01*
X4633020Y2178020D01*
X4636080Y2173180D01*
X4639740Y2168760D01*
X4643920Y2164840D01*
X4648560Y2161480D01*
X4653580Y2158720D01*
X4658900Y2156600D01*
X4664460Y2155180D01*
G37*
G36*
X5044140Y2154460D02*
G01*
X5049860Y2154460D01*
X5055540Y2155180D01*
X5061100Y2156600D01*
X5066420Y2158720D01*
X5071440Y2161480D01*
X5076080Y2164840D01*
X5080260Y2168760D01*
X5083920Y2173180D01*
X5086980Y2178020D01*
X5089420Y2183200D01*
X5091200Y2188660D01*
X5092260Y2194280D01*
X5092620Y2200000D01*
X5092260Y2205720D01*
X5091200Y2211340D01*
X5089420Y2216800D01*
X5086980Y2221980D01*
X5083920Y2226820D01*
X5080260Y2231240D01*
X5076080Y2235160D01*
X5071440Y2238520D01*
X5066420Y2241280D01*
X5061100Y2243400D01*
X5055540Y2244820D01*
X5049860Y2245540D01*
X5044140Y2245540D01*
X5038460Y2244820D01*
X5032900Y2243400D01*
X5027580Y2241280D01*
X5022560Y2238520D01*
X5017920Y2235160D01*
X5013740Y2231240D01*
X5010080Y2226820D01*
X5007020Y2221980D01*
X5004580Y2216800D01*
X5002800Y2211340D01*
X5001740Y2205720D01*
X5001380Y2200000D01*
X5001740Y2194280D01*
X5002800Y2188660D01*
X5004580Y2183200D01*
X5007020Y2178020D01*
X5010080Y2173180D01*
X5013740Y2168760D01*
X5017920Y2164840D01*
X5022560Y2161480D01*
X5027580Y2158720D01*
X5032900Y2156600D01*
X5038460Y2155180D01*
G37*
G36*
X4725140Y2286460D02*
G01*
X4730860Y2286460D01*
X4736540Y2287180D01*
X4742100Y2288600D01*
X4747420Y2290720D01*
X4752440Y2293480D01*
X4757080Y2296840D01*
X4761260Y2300760D01*
X4764920Y2305180D01*
X4767980Y2310020D01*
X4770420Y2315200D01*
X4772200Y2320660D01*
X4773260Y2326280D01*
X4773620Y2332000D01*
X4773260Y2337720D01*
X4772200Y2343340D01*
X4770420Y2348800D01*
X4767980Y2353980D01*
X4764920Y2358820D01*
X4761260Y2363240D01*
X4757080Y2367160D01*
X4752440Y2370520D01*
X4747420Y2373280D01*
X4742100Y2375400D01*
X4736540Y2376820D01*
X4730860Y2377540D01*
X4725140Y2377540D01*
X4719460Y2376820D01*
X4713900Y2375400D01*
X4708580Y2373280D01*
X4703560Y2370520D01*
X4698920Y2367160D01*
X4694740Y2363240D01*
X4691080Y2358820D01*
X4688020Y2353980D01*
X4685580Y2348800D01*
X4683800Y2343340D01*
X4682740Y2337720D01*
X4682380Y2332000D01*
X4682740Y2326280D01*
X4683800Y2320660D01*
X4685580Y2315200D01*
X4688020Y2310020D01*
X4691080Y2305180D01*
X4694740Y2300760D01*
X4698920Y2296840D01*
X4703560Y2293480D01*
X4708580Y2290720D01*
X4713900Y2288600D01*
X4719460Y2287180D01*
G37*
G36*
X4375040Y2330200D02*
G01*
X4380760Y2330560D01*
X4386380Y2331640D01*
X4391840Y2333400D01*
X4397020Y2335840D01*
X4401860Y2338920D01*
X4406280Y2342560D01*
X4410200Y2346740D01*
X4413560Y2351380D01*
X4416320Y2356400D01*
X4418440Y2361720D01*
X4419860Y2367280D01*
X4420580Y2372960D01*
X4420580Y2378700D01*
X4419860Y2384380D01*
X4418440Y2389920D01*
X4416320Y2395260D01*
X4413560Y2400280D01*
X4410200Y2404900D01*
X4406280Y2409080D01*
X4401860Y2412740D01*
X4397020Y2415800D01*
X4391840Y2418240D01*
X4386380Y2420020D01*
X4380760Y2421100D01*
X4375040Y2421460D01*
X4369320Y2421100D01*
X4363700Y2420020D01*
X4358240Y2418240D01*
X4353060Y2415800D01*
X4348220Y2412740D01*
X4343800Y2409080D01*
X4339880Y2404900D01*
X4336520Y2400280D01*
X4333760Y2395260D01*
X4331640Y2389920D01*
X4330220Y2384380D01*
X4329500Y2378700D01*
X4329500Y2372960D01*
X4330220Y2367280D01*
X4331640Y2361720D01*
X4333760Y2356400D01*
X4336520Y2351380D01*
X4339880Y2346740D01*
X4343800Y2342560D01*
X4348220Y2338920D01*
X4353060Y2335840D01*
X4358240Y2333400D01*
X4363700Y2331640D01*
X4369320Y2330560D01*
G37*
G36*
X4075820Y2430200D02*
G01*
X4081540Y2430560D01*
X4087180Y2431640D01*
X4092620Y2433400D01*
X4097799Y2435840D01*
X4102640Y2438920D01*
X4107060Y2442560D01*
X4110980Y2446740D01*
X4114340Y2451380D01*
X4117100Y2456400D01*
X4119220Y2461720D01*
X4120640Y2467280D01*
X4121360Y2472960D01*
X4121360Y2478700D01*
X4120640Y2484380D01*
X4119220Y2489920D01*
X4117100Y2495260D01*
X4114340Y2500280D01*
X4110980Y2504900D01*
X4107060Y2509080D01*
X4102640Y2512740D01*
X4097799Y2515800D01*
X4092620Y2518240D01*
X4087180Y2520020D01*
X4081540Y2521100D01*
X4075820Y2521460D01*
X4070100Y2521100D01*
X4064480Y2520020D01*
X4059040Y2518240D01*
X4053840Y2515800D01*
X4049000Y2512740D01*
X4044600Y2509080D01*
X4040680Y2504900D01*
X4037300Y2500280D01*
X4034540Y2495260D01*
X4032440Y2489920D01*
X4031019Y2484380D01*
X4030299Y2478700D01*
X4030299Y2472960D01*
X4031019Y2467280D01*
X4032440Y2461720D01*
X4034540Y2456400D01*
X4037300Y2451380D01*
X4040680Y2446740D01*
X4044600Y2442560D01*
X4049000Y2438920D01*
X4053840Y2435840D01*
X4059040Y2433400D01*
X4064480Y2431640D01*
X4070100Y2430560D01*
G37*
G36*
X2284000Y2637820D02*
G01*
X2284000Y2659000D01*
X2262840Y2659000D01*
X2264140Y2656400D01*
X2267340Y2651560D01*
X2271120Y2647140D01*
X2275420Y2643240D01*
X2280160Y2639880D01*
G37*
G36*
X2184000Y2637820D02*
G01*
X2184000Y2659000D01*
X2162840Y2659000D01*
X2164140Y2656400D01*
X2167340Y2651560D01*
X2171120Y2647140D01*
X2175420Y2643240D01*
X2180160Y2639880D01*
G37*
G36*
X2326000Y2637820D02*
G01*
X2329840Y2639880D01*
X2334580Y2643240D01*
X2338880Y2647140D01*
X2342660Y2651560D01*
X2345860Y2656400D01*
X2347160Y2659000D01*
X2326000Y2659000D01*
G37*
G36*
X2226000Y2637820D02*
G01*
X2229840Y2639880D01*
X2234580Y2643240D01*
X2238880Y2647140D01*
X2242660Y2651560D01*
X2245860Y2656400D01*
X2247160Y2659000D01*
X2226000Y2659000D01*
G37*
G36*
X2326000Y2701000D02*
G01*
X2347260Y2701000D01*
X2344340Y2706060D01*
X2340840Y2710700D01*
X2336800Y2714880D01*
X2332260Y2718519D01*
X2327320Y2721580D01*
X2326000Y2722180D01*
G37*
G36*
X2226000Y2701000D02*
G01*
X2247260Y2701000D01*
X2244340Y2706060D01*
X2240840Y2710700D01*
X2236800Y2714880D01*
X2232260Y2718519D01*
X2227320Y2721580D01*
X2226000Y2722180D01*
G37*
G36*
X2162740Y2701000D02*
G01*
X2184000Y2701000D01*
X2184000Y2722180D01*
X2182680Y2721580D01*
X2177740Y2718519D01*
X2173200Y2714880D01*
X2169160Y2710700D01*
X2165660Y2706060D01*
G37*
G36*
X2262740Y2701000D02*
G01*
X2284000Y2701000D01*
X2284000Y2722180D01*
X2282680Y2721580D01*
X2277740Y2718519D01*
X2273200Y2714880D01*
X2269160Y2710700D01*
X2265660Y2706060D01*
G37*
G36*
X2284000Y2737820D02*
G01*
X2284000Y2759000D01*
X2262840Y2759000D01*
X2264140Y2756400D01*
X2267340Y2751560D01*
X2271120Y2747140D01*
X2275420Y2743240D01*
X2280160Y2739880D01*
G37*
G36*
X2184000Y2737820D02*
G01*
X2184000Y2759000D01*
X2162840Y2759000D01*
X2164140Y2756400D01*
X2167340Y2751560D01*
X2171120Y2747140D01*
X2175420Y2743240D01*
X2180160Y2739880D01*
G37*
G36*
X2326000Y2737820D02*
G01*
X2329840Y2739880D01*
X2334580Y2743240D01*
X2338880Y2747140D01*
X2342660Y2751560D01*
X2345860Y2756400D01*
X2347160Y2759000D01*
X2326000Y2759000D01*
G37*
G36*
X2226000Y2737820D02*
G01*
X2229840Y2739880D01*
X2234580Y2743240D01*
X2238880Y2747140D01*
X2242660Y2751560D01*
X2245860Y2756400D01*
X2247160Y2759000D01*
X2226000Y2759000D01*
G37*
G36*
X2162740Y2801000D02*
G01*
X2184000Y2801000D01*
X2184000Y2822180D01*
X2182680Y2821580D01*
X2177740Y2818519D01*
X2173200Y2814880D01*
X2169160Y2810700D01*
X2165660Y2806060D01*
G37*
G36*
X2326000Y2801000D02*
G01*
X2347260Y2801000D01*
X2344340Y2806060D01*
X2340840Y2810700D01*
X2336800Y2814880D01*
X2332260Y2818519D01*
X2327320Y2821580D01*
X2326000Y2822180D01*
G37*
G36*
X2226000Y2801000D02*
G01*
X2247260Y2801000D01*
X2244340Y2806060D01*
X2240840Y2810700D01*
X2236800Y2814880D01*
X2232260Y2818519D01*
X2227320Y2821580D01*
X2226000Y2822180D01*
G37*
G36*
X2262740Y2801000D02*
G01*
X2284000Y2801000D01*
X2284000Y2822180D01*
X2282680Y2821580D01*
X2277740Y2818519D01*
X2273200Y2814880D01*
X2269160Y2810700D01*
X2265660Y2806060D01*
G37*
G36*
X4705000Y2881180D02*
G01*
X4709800Y2881540D01*
X4714520Y2882559D01*
X4719040Y2884240D01*
X4723280Y2886560D01*
X4727140Y2889440D01*
X4730540Y2892860D01*
X4733440Y2896720D01*
X4735760Y2900960D01*
X4737440Y2905480D01*
X4738460Y2910179D01*
X4738800Y2915000D01*
X4738460Y2919820D01*
X4737440Y2924520D01*
X4735760Y2929040D01*
X4733440Y2933279D01*
X4730540Y2937140D01*
X4727140Y2940560D01*
X4723280Y2943440D01*
X4719040Y2945760D01*
X4714520Y2947440D01*
X4709800Y2948460D01*
X4705000Y2948820D01*
X4700180Y2948460D01*
X4695480Y2947440D01*
X4690960Y2945760D01*
X4686720Y2943440D01*
X4682860Y2940560D01*
X4679440Y2937140D01*
X4676560Y2933279D01*
X4674240Y2929040D01*
X4672560Y2924520D01*
X4671520Y2919820D01*
X4671180Y2915000D01*
X4671520Y2910179D01*
X4672560Y2905480D01*
X4674240Y2900960D01*
X4676560Y2896720D01*
X4679440Y2892860D01*
X4682860Y2889440D01*
X4686720Y2886560D01*
X4690960Y2884240D01*
X4695480Y2882559D01*
X4700180Y2881540D01*
G37*

%LPD*%
D10*
X2875000Y1750000D02*
G01*
X2475000Y1750000D01*
X2305000Y1580000D01*
X2110000Y1885000D02*
G01*
X2110000Y1875000D01*
X2205000Y1780000D01*
X2920000Y1785000D02*
G01*
X2410000Y1785000D01*
X2305000Y1680000D01*
X2935000Y1920000D02*
G01*
X2875000Y1860000D01*
X2585000Y1860000D01*
X3450000Y830000D02*
G01*
X3015000Y830000D01*
X2865000Y680000D01*
X2305000Y680000D01*
X3560000Y880000D02*
G01*
X3500000Y880000D01*
X3450000Y830000D01*
X3665000Y915000D02*
G01*
X3595000Y915000D01*
X3560000Y880000D01*
X2635000Y1565000D02*
G01*
X2635000Y1400000D01*
X2520000Y1285000D01*
D40*
X1930000Y825000D02*
G01*
X1930000Y3140000D01*
X1995000Y3205000D01*
X4960000Y3205000D01*
X5024960Y3140039D01*
X5024960Y2915000D01*
X5024960Y2915000D02*
G01*
X5095000Y2915000D01*
X5185000Y2825000D01*
X5185000Y2525000D01*
X4991999Y2331999D01*
X4991999Y2331999D02*
G01*
X4940000Y2280000D01*
X4940000Y2120000D01*
X4991999Y2068000D01*
X4992002Y2068000D02*
G01*
X4992002Y1651001D01*
X4728000Y1386999D01*
X4727997Y1381999D02*
G01*
X4775000Y1335000D01*
X4775000Y1170000D01*
X4728000Y1123000D01*
X4992002Y1646001D02*
G01*
X5130000Y1508000D01*
X5130000Y1335000D01*
X5050000Y1255000D01*
X5046999Y1255000D01*
X4375039Y2475819D02*
G01*
X4270820Y2475819D01*
X4170820Y2375819D01*
X4075829Y2375819D01*
X4375000Y2475799D02*
G01*
X4375000Y3205000D01*
X4325600Y3205000D01*
D11*
X4075829Y2375819D02*
G01*
X4029179Y2375819D01*
X3845000Y2560000D01*
X3555000Y2560000D01*
X3495000Y2500000D01*
X4075829Y2375819D02*
G01*
X3810010Y2110000D01*
X2670000Y2110000D01*
X2620000Y2060000D01*
X2620000Y2030000D01*
X2620000Y1980000D02*
G01*
X2620000Y2030000D01*
G36*
X5048559Y2938600D02*
G01*
X5001360Y2938600D01*
X5001360Y2891399D01*
X5048559Y2891399D01*
G37*
D28*
G01*
X4705000Y2915000D03*
D29*
G01*
X4075829Y2475819D03*
G01*
X4375039Y2475819D03*
G01*
X4075829Y2375819D03*
G01*
X4375039Y2375819D03*
G01*
X4375039Y1978189D03*
G36*
X4503999Y-30999D02*
G01*
X4566000Y-30999D01*
X4566000Y30999D01*
X4503999Y30999D01*
G37*
D31*
G01*
X4535000Y100000D03*
G01*
X4535000Y200000D03*
G01*
X4535000Y300000D03*
G01*
X4535000Y400000D03*
G01*
X4535000Y500000D03*
G01*
X4535000Y600000D03*
D32*
G01*
X4673000Y1255000D03*
G01*
X5046999Y1255000D03*
G01*
X4728000Y1386999D03*
G01*
X4991999Y1386999D03*
G01*
X4728000Y1123000D03*
G01*
X4991999Y1123000D03*
D33*
G01*
X2520000Y985000D03*
G01*
X2520000Y1085000D03*
G01*
X2520000Y1185000D03*
G01*
X2520000Y1285000D03*
G01*
X2520000Y1385000D03*
G01*
X2520000Y1485000D03*
D34*
G01*
X2520000Y830000D03*
G01*
X2520000Y1630000D03*
G01*
X4325000Y830000D03*
G01*
X4320000Y1630000D03*
D29*
G01*
X4673000Y2200000D03*
G01*
X5046999Y2200000D03*
G01*
X4728000Y2068000D03*
G01*
X4728000Y2331999D03*
G01*
X4991999Y2331999D03*
G01*
X4991999Y2068000D03*
D35*
G01*
X2620000Y1980000D03*
G01*
X2670000Y1980000D03*
G01*
X2720000Y1980000D03*
G01*
X2770000Y1980000D03*
G01*
X2820000Y1980000D03*
G01*
X2620000Y2030000D03*
G01*
X2670000Y2030000D03*
G01*
X2720000Y2030000D03*
G01*
X2770000Y2030000D03*
G01*
X2820000Y2030000D03*
D36*
G01*
X4166989Y-170000D03*
D37*
G01*
X4066989Y-170000D03*
G01*
X3966989Y-170000D03*
G01*
X3866989Y-170000D03*
G01*
X3766989Y-170000D03*
G01*
X3666989Y-170000D03*
G01*
X3566989Y-170000D03*
G01*
X3466989Y-170000D03*
G01*
X3366989Y-170000D03*
G01*
X3266989Y-170000D03*
G01*
X3166989Y-170000D03*
G01*
X3066989Y-170000D03*
G01*
X2966989Y-170000D03*
G01*
X2866989Y-170000D03*
G01*
X2766989Y-170000D03*
G01*
X2666989Y-170000D03*
G01*
X4166989Y630000D03*
G01*
X4066989Y630000D03*
G01*
X3966989Y630000D03*
G01*
X3866989Y630000D03*
G01*
X3766989Y630000D03*
G01*
X3666989Y630000D03*
G01*
X3566989Y630000D03*
G01*
X3466989Y630000D03*
G01*
X3366989Y630000D03*
G01*
X3266989Y630000D03*
G01*
X3166989Y630000D03*
G36*
X3037484Y659499D02*
G01*
X3096485Y659499D01*
X3096485Y600500D01*
X3037484Y600500D01*
G37*
D38*
G01*
X2305000Y580000D03*
D39*
G01*
X2205000Y580000D03*
G01*
X2305000Y680000D03*
G01*
X2205000Y680000D03*
G01*
X2305000Y780000D03*
G01*
X2205000Y780000D03*
G01*
X2305000Y880000D03*
G01*
X2205000Y880000D03*
G01*
X2305000Y980000D03*
G01*
X2205000Y980000D03*
G01*
X2305000Y1080000D03*
G01*
X2205000Y1080000D03*
G01*
X2305000Y1180000D03*
G01*
X2205000Y1180000D03*
G01*
X2305000Y1280000D03*
G01*
X2205000Y1280000D03*
G01*
X2305000Y1380000D03*
G01*
X2205000Y1380000D03*
G01*
X2305000Y1480000D03*
G01*
X2205000Y1480000D03*
G01*
X2305000Y1580000D03*
G01*
X2205000Y1580000D03*
G01*
X2305000Y1680000D03*
G01*
X2205000Y1680000D03*
G01*
X2305000Y1780000D03*
G01*
X2205000Y1780000D03*
G01*
X2305000Y1880000D03*
G01*
X2205000Y1880000D03*
G01*
X2305000Y1980000D03*
G01*
X2205000Y1980000D03*
G01*
X2305000Y2080000D03*
G01*
X2205000Y2080000D03*
G01*
X2305000Y2180000D03*
G01*
X2205000Y2180000D03*
G01*
X2305000Y2280000D03*
G01*
X2205000Y2280000D03*
G01*
X2305000Y2380000D03*
G01*
X2205000Y2380000D03*
G01*
X2305000Y2480000D03*
G01*
X2205000Y2480000D03*
G01*
X2305000Y2580000D03*
G01*
X2205000Y2580000D03*
G01*
X2305000Y2680000D03*
G01*
X2205000Y2680000D03*
G01*
X2305000Y2780000D03*
G01*
X2205000Y2780000D03*
D38*
G01*
X405000Y580000D03*
D39*
G01*
X305000Y580000D03*
G01*
X405000Y680000D03*
G01*
X305000Y680000D03*
G01*
X405000Y780000D03*
G01*
X305000Y780000D03*
G01*
X405000Y880000D03*
G01*
X305000Y880000D03*
G01*
X405000Y980000D03*
G01*
X305000Y980000D03*
G01*
X405000Y1080000D03*
G01*
X305000Y1080000D03*
G01*
X405000Y1180000D03*
G01*
X305000Y1180000D03*
G01*
X405000Y1280000D03*
G01*
X305000Y1280000D03*
G01*
X405000Y1380000D03*
G01*
X305000Y1380000D03*
G01*
X405000Y1480000D03*
G01*
X305000Y1480000D03*
G01*
X405000Y1580000D03*
G01*
X305000Y1580000D03*
G01*
X405000Y1680000D03*
G01*
X305000Y1680000D03*
G01*
X405000Y1780000D03*
G01*
X305000Y1780000D03*
G01*
X405000Y1880000D03*
G01*
X305000Y1880000D03*
G01*
X405000Y1980000D03*
G01*
X305000Y1980000D03*
G01*
X405000Y2080000D03*
G01*
X305000Y2080000D03*
G01*
X405000Y2180000D03*
G01*
X305000Y2180000D03*
G01*
X405000Y2280000D03*
G01*
X305000Y2280000D03*
G01*
X405000Y2380000D03*
G01*
X305000Y2380000D03*
G01*
X405000Y2480000D03*
G01*
X305000Y2480000D03*
G01*
X405000Y2580000D03*
G01*
X305000Y2580000D03*
G01*
X405000Y2680000D03*
G01*
X305000Y2680000D03*
G01*
X405000Y2780000D03*
G01*
X305000Y2780000D03*
D15*
G01*
X2635000Y1565000D03*
G01*
X4015000Y2645000D03*
G01*
X4740000Y2690000D03*
G01*
X4800000Y2645000D03*
G01*
X5020000Y2705000D03*
G01*
X4455000Y3015000D03*
D16*
G01*
X4510000Y3055000D03*
G01*
X5045000Y2630000D03*
G01*
X4115000Y2650000D03*
G01*
X3555000Y2405000D03*
G01*
X3870000Y2400000D03*
G01*
X3615000Y2460000D03*
G01*
X1930000Y825000D03*
G01*
X3495000Y2500000D03*
D15*
G01*
X4505000Y1595000D03*
D16*
G01*
X4575000Y1605000D03*
D15*
G01*
X4810000Y1735000D03*
G01*
X4890000Y1655000D03*
G01*
X3450000Y830000D03*
G01*
X3560000Y880000D03*
G01*
X3665000Y915000D03*
G01*
X2585000Y1860000D03*
G01*
X2935000Y1920000D03*
G01*
X2110000Y1885000D03*
G01*
X2920000Y1785000D03*
G01*
X2875000Y1750000D03*
G01*
X2362749Y1132800D03*
G01*
X2362749Y1027689D03*
G01*
X2590810Y1087800D03*
G01*
X2790810Y1087800D03*
G01*
X2990810Y1087800D03*
G01*
X3190810Y1087800D03*
G01*
X3390810Y887800D03*
G01*
X1842200Y1582800D03*
G01*
X1842200Y1382800D03*
G01*
X1842200Y1182800D03*
G01*
X1842200Y982800D03*
G01*
X2042200Y1782800D03*
G01*
X2042200Y1582800D03*
G01*
X2042200Y1382800D03*
G01*
X2042200Y1182800D03*
G01*
X2042200Y982800D03*
G01*
X142199Y3057800D03*
G01*
X142199Y2857800D03*
G01*
X142199Y2657800D03*
G01*
X142199Y2457800D03*
G01*
X142199Y2257800D03*
G01*
X142199Y2057800D03*
G01*
X142199Y1857800D03*
G01*
X142199Y1657800D03*
G01*
X142199Y1457800D03*
G01*
X142199Y1257800D03*
G01*
X142199Y1057800D03*
G01*
X142199Y857800D03*
G01*
X142199Y657800D03*
G01*
X342199Y3257800D03*
G01*
X342199Y3057800D03*
G01*
X342199Y2857800D03*
G01*
X542199Y3257800D03*
G01*
X542199Y3057800D03*
G01*
X542199Y2857800D03*
G01*
X542199Y2657800D03*
G01*
X542199Y2457800D03*
G01*
X542199Y2257800D03*
G01*
X542199Y2057800D03*
G01*
X542199Y1857800D03*
G01*
X542199Y1657800D03*
G01*
X542199Y1457800D03*
G01*
X542199Y1257800D03*
G01*
X542199Y1057800D03*
G01*
X542199Y857800D03*
G01*
X542199Y657800D03*
G01*
X742199Y3257800D03*
G01*
X742199Y3057800D03*
G01*
X742199Y2857800D03*
G01*
X742199Y2657800D03*
G01*
X742199Y2457800D03*
G01*
X742199Y2257800D03*
G01*
X742199Y2057800D03*
G01*
X742199Y1857800D03*
G01*
X742199Y1657800D03*
G01*
X742199Y1457800D03*
G01*
X742199Y1257800D03*
G01*
X742199Y1057800D03*
G01*
X742199Y857800D03*
G01*
X942200Y3257800D03*
G01*
X942200Y3057800D03*
G01*
X942200Y2857800D03*
G01*
X942200Y2657800D03*
G01*
X942200Y2457800D03*
G01*
X942200Y2257800D03*
G01*
X942200Y2057800D03*
G01*
X942200Y1857800D03*
G01*
X942200Y1657800D03*
G01*
X942200Y1457800D03*
G01*
X942200Y1257800D03*
G01*
X942200Y1057800D03*
G01*
X942200Y857800D03*
G01*
X1142200Y3257800D03*
G01*
X1142200Y3057800D03*
G01*
X1142200Y2857800D03*
G01*
X1142200Y2657800D03*
G01*
X1142200Y2457800D03*
G01*
X1142200Y2257800D03*
G01*
X1142200Y2057800D03*
G01*
X1142200Y1857800D03*
G01*
X1142200Y1657800D03*
G01*
X1142200Y1457800D03*
G01*
X1142200Y1257800D03*
G01*
X1142200Y1057800D03*
G01*
X1142200Y857800D03*
G01*
X1342200Y3257800D03*
G01*
X1342200Y3057800D03*
G01*
X1342200Y2857800D03*
G01*
X1342200Y2657800D03*
G01*
X1342200Y2457800D03*
G01*
X1342200Y2257800D03*
G01*
X1342200Y2057800D03*
G01*
X1342200Y1857800D03*
G01*
X1342200Y1657800D03*
G01*
X1342200Y1457800D03*
G01*
X1342200Y1257800D03*
G01*
X1342200Y1057800D03*
G01*
X1342200Y857800D03*
G01*
X1542200Y3257800D03*
G01*
X1542200Y3057800D03*
G01*
X1542200Y2857800D03*
G01*
X1542200Y2657800D03*
G01*
X1542200Y2457800D03*
G01*
X1542200Y2257800D03*
G01*
X1542200Y2057800D03*
G01*
X1542200Y1857800D03*
G01*
X1542200Y1657800D03*
G01*
X1542200Y1457800D03*
G01*
X1542200Y1257800D03*
G01*
X1542200Y1057800D03*
G01*
X1542200Y857800D03*
G01*
X1742200Y3257800D03*
G01*
X1742200Y3057800D03*
G01*
X1742200Y2857800D03*
G01*
X1742200Y2657800D03*
G01*
X1742200Y2457800D03*
G01*
X1742200Y2257800D03*
G01*
X1742200Y2057800D03*
G01*
X1742200Y1857800D03*
G01*
X1742200Y1657800D03*
G01*
X1742200Y1457800D03*
G01*
X1742200Y1257800D03*
G01*
X1742200Y1057800D03*
G01*
X1742200Y857800D03*
G01*
X1942200Y3257800D03*
G01*
X2142200Y3057800D03*
G01*
X2342200Y3057800D03*
G01*
X2342200Y2857800D03*
G01*
X2342200Y457800D03*
G01*
X2542200Y3057800D03*
G01*
X2542200Y2857800D03*
G01*
X2542200Y2257800D03*
G01*
X2542200Y2057800D03*
G01*
X2542200Y457800D03*
G01*
X2542200Y257800D03*
G01*
X2542200Y57800D03*
G01*
X2742200Y3057800D03*
G01*
X2742200Y2857800D03*
G01*
X2742200Y1457800D03*
G01*
X2742200Y857800D03*
G01*
X2942200Y3057800D03*
G01*
X2942200Y2857800D03*
G01*
X2942200Y2257800D03*
G01*
X2942200Y1857800D03*
G01*
X2942200Y1657800D03*
G01*
X2942200Y1457800D03*
G01*
X2942200Y857800D03*
G01*
X2942200Y657800D03*
G01*
X2942200Y457800D03*
G01*
X2942200Y257800D03*
G01*
X2942200Y57800D03*
G01*
X3142200Y3057800D03*
G01*
X3142200Y2857800D03*
G01*
X3142200Y2257800D03*
G01*
X3142200Y2057800D03*
G01*
X3142200Y1857800D03*
G01*
X3142200Y1657800D03*
G01*
X3142200Y1457800D03*
G01*
X3142200Y457800D03*
G01*
X3142200Y257800D03*
G01*
X3142200Y57800D03*
G01*
X3342200Y3057800D03*
G01*
X3342200Y2857800D03*
G01*
X3342200Y2057800D03*
G01*
X3342200Y1857800D03*
G01*
X3342200Y1657800D03*
G01*
X3342200Y1457800D03*
G01*
X3342200Y457800D03*
G01*
X3342200Y257800D03*
G01*
X3342200Y57800D03*
G01*
X3542200Y3057800D03*
G01*
X3542200Y2857800D03*
G01*
X3542200Y1857800D03*
G01*
X3542200Y1657800D03*
G01*
X3542200Y1457800D03*
G01*
X3542200Y457800D03*
G01*
X3542200Y257800D03*
G01*
X3542200Y57800D03*
G01*
X3742200Y3057800D03*
G01*
X3742200Y2857800D03*
G01*
X3742200Y1857800D03*
G01*
X3742200Y1657800D03*
G01*
X3742200Y1457800D03*
G01*
X3742200Y1257800D03*
G01*
X3742200Y457800D03*
G01*
X3742200Y257800D03*
G01*
X3742200Y57800D03*
G01*
X3942200Y3057800D03*
G01*
X3942200Y2857800D03*
G01*
X3942200Y1857800D03*
G01*
X3942200Y1657800D03*
G01*
X3942200Y1457800D03*
G01*
X3942200Y1257800D03*
G01*
X3942200Y1057800D03*
G01*
X3942200Y457800D03*
G01*
X3942200Y257800D03*
G01*
X3942200Y57800D03*
G01*
X4142200Y3057800D03*
G01*
X4142200Y2857800D03*
G01*
X4142200Y1857800D03*
G01*
X4142200Y1657800D03*
G01*
X4142200Y1457800D03*
G01*
X4142200Y1257800D03*
G01*
X4142200Y1057800D03*
G01*
X4142200Y857800D03*
G01*
X4142200Y457800D03*
G01*
X4142200Y257800D03*
G01*
X4142200Y57800D03*
G01*
X4342200Y1857800D03*
G01*
X4342200Y1457800D03*
G01*
X4342200Y1257800D03*
G01*
X4342200Y1057800D03*
G01*
X4342200Y457800D03*
G01*
X4342200Y257800D03*
G01*
X4342200Y57800D03*
G01*
X4542200Y2857800D03*
G01*
X4542200Y1857800D03*
G01*
X4542200Y1457800D03*
G01*
X4542200Y1257800D03*
G01*
X4542200Y1057800D03*
G01*
X4542200Y857800D03*
G01*
X4542200Y-142199D03*
G01*
X4742200Y3057800D03*
G01*
X4742200Y2857800D03*
G01*
X4742200Y2657800D03*
G01*
X4742200Y2457800D03*
G01*
X4742200Y1857800D03*
G01*
X4742200Y1657800D03*
G01*
X4742200Y857800D03*
G01*
X4742200Y657800D03*
G01*
X4742200Y457800D03*
G01*
X4742200Y257800D03*
G01*
X4742200Y57800D03*
G01*
X4742200Y-142199D03*
G01*
X4942200Y3057800D03*
G01*
X4942200Y2857800D03*
G01*
X4942200Y2657800D03*
G01*
X4942200Y2457800D03*
G01*
X4942200Y1457800D03*
G01*
X4942200Y1057800D03*
G01*
X4942200Y857800D03*
G01*
X4942200Y657800D03*
G01*
X4942200Y457800D03*
G01*
X4942200Y257800D03*
G01*
X4942200Y57800D03*
G01*
X4942200Y-142199D03*
G01*
X5142200Y3057800D03*
G01*
X5142200Y2057800D03*
G01*
X5142200Y1857800D03*
G01*
X5142200Y1657800D03*
G01*
X5142200Y1257800D03*
G01*
X5142200Y1057800D03*
G01*
X5142200Y857800D03*
G01*
X5142200Y657800D03*
G01*
X5142200Y457800D03*
G01*
X5142200Y257800D03*
G01*
X5142200Y57800D03*
G01*
X5142200Y-142199D03*
M02*
