G04 Layer: BottomSolderMaskLayer*
G04 EasyEDA v6.4.25, 2021-11-15T20:25:19--5:00*
G04 f133b9dff01e4a4db271285c1a4d3a4a,c6d70c2b7c21449b8329efc8d1611fca,10*
G04 Gerber Generator version 0.2*
G04 Scale: 100 percent, Rotated: No, Reflected: No *
G04 Dimensions in inches *
G04 leading zeros omitted , absolute positions ,3 integer and 6 decimal *
%FSLAX36Y36*%
%MOIN*%

%ADD47C,0.0552*%
%ADD48C,0.0789*%
%ADD50C,0.0700*%
%ADD51C,0.0946*%
%ADD52C,0.0680*%
%ADD53C,0.1580*%
%ADD54C,0.0748*%
%ADD55C,0.0520*%
%ADD60C,0.0670*%
%ADD65R,0.0820X0.0820*%
%ADD66C,0.0820*%

%LPD*%
G36*
X4997399Y2887399D02*
G01*
X4997399Y2942600D01*
X5052600Y2942600D01*
X5052600Y2887399D01*
G37*
D47*
G01*
X4705000Y2915000D03*
D48*
G01*
X4075829Y2475819D03*
G01*
X4375039Y2475819D03*
G01*
X4075829Y2375819D03*
G01*
X4375039Y2375819D03*
G01*
X4375039Y1978189D03*
G36*
X4500000Y-35000D02*
G01*
X4500000Y35000D01*
X4570000Y35000D01*
X4570000Y-35000D01*
G37*
D50*
G01*
X4535000Y100000D03*
G01*
X4535000Y200000D03*
G01*
X4535000Y300000D03*
G01*
X4535000Y400000D03*
G01*
X4535000Y500000D03*
G01*
X4535000Y600000D03*
D51*
G01*
X4673000Y1255000D03*
G01*
X5046999Y1255000D03*
G01*
X4728000Y1386999D03*
G01*
X4991999Y1386999D03*
G01*
X4728000Y1123000D03*
G01*
X4991999Y1123000D03*
D52*
G01*
X2520000Y985000D03*
G01*
X2520000Y1085000D03*
G01*
X2520000Y1185000D03*
G01*
X2520000Y1285000D03*
G01*
X2520000Y1385000D03*
G01*
X2520000Y1485000D03*
D53*
G01*
X2520000Y830000D03*
G01*
X2520000Y1630000D03*
G01*
X4325000Y830000D03*
G01*
X4320000Y1630000D03*
D54*
G01*
X4673000Y2200000D03*
G01*
X5046999Y2200000D03*
G01*
X4728000Y2068000D03*
G01*
X4728000Y2331999D03*
G01*
X4991999Y2331999D03*
G01*
X4991999Y2068000D03*
D55*
G01*
X2620000Y1980000D03*
G01*
X2670000Y1980000D03*
G01*
X2720000Y1980000D03*
G01*
X2770000Y1980000D03*
G01*
X2820000Y1980000D03*
G01*
X2620000Y2030000D03*
G01*
X2670000Y2030000D03*
G01*
X2720000Y2030000D03*
G01*
X2770000Y2030000D03*
G01*
X2820000Y2030000D03*
G36*
X4133500Y-203499D02*
G01*
X4133500Y-136500D01*
X4200500Y-136500D01*
X4200500Y-203499D01*
G37*
D60*
G01*
X4066989Y-170000D03*
G01*
X3966989Y-170000D03*
G01*
X3866989Y-170000D03*
G01*
X3766989Y-170000D03*
G01*
X3666989Y-170000D03*
G01*
X3566989Y-170000D03*
G01*
X3466989Y-170000D03*
G01*
X3366989Y-170000D03*
G01*
X3266989Y-170000D03*
G01*
X3166989Y-170000D03*
G01*
X3066989Y-170000D03*
G01*
X2966989Y-170000D03*
G01*
X2866989Y-170000D03*
G01*
X2766989Y-170000D03*
G01*
X2666989Y-170000D03*
G01*
X4166989Y630000D03*
G01*
X4066989Y630000D03*
G01*
X3966989Y630000D03*
G01*
X3866989Y630000D03*
G01*
X3766989Y630000D03*
G01*
X3666989Y630000D03*
G01*
X3566989Y630000D03*
G01*
X3466989Y630000D03*
G01*
X3366989Y630000D03*
G01*
X3266989Y630000D03*
G01*
X3166989Y630000D03*
G36*
X3033500Y596500D02*
G01*
X3033500Y663499D01*
X3100500Y663499D01*
X3100500Y596500D01*
G37*
D65*
G01*
X2305000Y580000D03*
D66*
G01*
X2205000Y580000D03*
G01*
X2305000Y680000D03*
G01*
X2205000Y680000D03*
G01*
X2305000Y780000D03*
G01*
X2205000Y780000D03*
G01*
X2305000Y880000D03*
G01*
X2205000Y880000D03*
G01*
X2305000Y980000D03*
G01*
X2205000Y980000D03*
G01*
X2305000Y1080000D03*
G01*
X2205000Y1080000D03*
G01*
X2305000Y1180000D03*
G01*
X2205000Y1180000D03*
G01*
X2305000Y1280000D03*
G01*
X2205000Y1280000D03*
G01*
X2305000Y1380000D03*
G01*
X2205000Y1380000D03*
G01*
X2305000Y1480000D03*
G01*
X2205000Y1480000D03*
G01*
X2305000Y1580000D03*
G01*
X2205000Y1580000D03*
G01*
X2305000Y1680000D03*
G01*
X2205000Y1680000D03*
G01*
X2305000Y1780000D03*
G01*
X2205000Y1780000D03*
G01*
X2305000Y1880000D03*
G01*
X2205000Y1880000D03*
G01*
X2305000Y1980000D03*
G01*
X2205000Y1980000D03*
G01*
X2305000Y2080000D03*
G01*
X2205000Y2080000D03*
G01*
X2305000Y2180000D03*
G01*
X2205000Y2180000D03*
G01*
X2305000Y2280000D03*
G01*
X2205000Y2280000D03*
G01*
X2305000Y2380000D03*
G01*
X2205000Y2380000D03*
G01*
X2305000Y2480000D03*
G01*
X2205000Y2480000D03*
G01*
X2305000Y2580000D03*
G01*
X2205000Y2580000D03*
G01*
X2305000Y2680000D03*
G01*
X2205000Y2680000D03*
G01*
X2305000Y2780000D03*
G01*
X2205000Y2780000D03*
D65*
G01*
X405000Y580000D03*
D66*
G01*
X305000Y580000D03*
G01*
X405000Y680000D03*
G01*
X305000Y680000D03*
G01*
X405000Y780000D03*
G01*
X305000Y780000D03*
G01*
X405000Y880000D03*
G01*
X305000Y880000D03*
G01*
X405000Y980000D03*
G01*
X305000Y980000D03*
G01*
X405000Y1080000D03*
G01*
X305000Y1080000D03*
G01*
X405000Y1180000D03*
G01*
X305000Y1180000D03*
G01*
X405000Y1280000D03*
G01*
X305000Y1280000D03*
G01*
X405000Y1380000D03*
G01*
X305000Y1380000D03*
G01*
X405000Y1480000D03*
G01*
X305000Y1480000D03*
G01*
X405000Y1580000D03*
G01*
X305000Y1580000D03*
G01*
X405000Y1680000D03*
G01*
X305000Y1680000D03*
G01*
X405000Y1780000D03*
G01*
X305000Y1780000D03*
G01*
X405000Y1880000D03*
G01*
X305000Y1880000D03*
G01*
X405000Y1980000D03*
G01*
X305000Y1980000D03*
G01*
X405000Y2080000D03*
G01*
X305000Y2080000D03*
G01*
X405000Y2180000D03*
G01*
X305000Y2180000D03*
G01*
X405000Y2280000D03*
G01*
X305000Y2280000D03*
G01*
X405000Y2380000D03*
G01*
X305000Y2380000D03*
G01*
X405000Y2480000D03*
G01*
X305000Y2480000D03*
G01*
X405000Y2580000D03*
G01*
X305000Y2580000D03*
G01*
X405000Y2680000D03*
G01*
X305000Y2680000D03*
G01*
X405000Y2780000D03*
G01*
X305000Y2780000D03*
M02*
