G04 Layer: BottomSilkLayer*
G04 EasyEDA v6.4.25, 2021-11-15T20:25:19--5:00*
G04 f133b9dff01e4a4db271285c1a4d3a4a,c6d70c2b7c21449b8329efc8d1611fca,10*
G04 Gerber Generator version 0.2*
G04 Scale: 100 percent, Rotated: No, Reflected: No *
G04 Dimensions in inches *
G04 leading zeros omitted , absolute positions ,3 integer and 6 decimal *
%FSLAX36Y36*%
%MOIN*%

%ADD10C,0.0100*%
%ADD42C,0.0060*%
%ADD45C,0.0080*%

%LPD*%
D45*
X5136300Y100000D02*
G01*
X5060000Y100000D01*
X5136300Y100000D02*
G01*
X5136300Y132699D01*
X5132700Y143600D01*
X5129099Y147300D01*
X5121800Y150900D01*
X5114499Y150900D01*
X5107200Y147300D01*
X5103599Y143600D01*
X5100000Y132699D01*
X5100000Y100000D02*
G01*
X5100000Y132699D01*
X5096300Y143600D01*
X5092700Y147300D01*
X5085400Y150900D01*
X5074499Y150900D01*
X5067200Y147300D01*
X5063599Y143600D01*
X5060000Y132699D01*
X5060000Y100000D01*
X5136300Y174899D02*
G01*
X5060000Y174899D01*
X5136300Y174899D02*
G01*
X5060000Y204000D01*
X5136300Y233099D02*
G01*
X5060000Y204000D01*
X5136300Y233099D02*
G01*
X5060000Y233099D01*
X5136300Y257100D02*
G01*
X5060000Y257100D01*
X5136300Y257100D02*
G01*
X5136300Y304400D01*
X5100000Y257100D02*
G01*
X5100000Y286199D01*
X5060000Y257100D02*
G01*
X5060000Y304400D01*
X5125400Y371999D02*
G01*
X5132700Y368400D01*
X5136300Y357500D01*
X5136300Y350199D01*
X5132700Y339299D01*
X5121800Y331999D01*
X5103599Y328400D01*
X5085400Y328400D01*
X5070900Y331999D01*
X5063599Y339299D01*
X5060000Y350199D01*
X5060000Y353800D01*
X5063599Y364699D01*
X5070900Y371999D01*
X5081800Y375599D01*
X5085400Y375599D01*
X5096300Y371999D01*
X5103599Y364699D01*
X5107200Y353800D01*
X5107200Y350199D01*
X5103599Y339299D01*
X5096300Y331999D01*
X5085400Y328400D01*
X5136300Y417800D02*
G01*
X5132700Y406900D01*
X5125400Y403299D01*
X5118199Y403299D01*
X5110900Y406900D01*
X5107200Y414200D01*
X5103599Y428699D01*
X5100000Y439600D01*
X5092700Y446900D01*
X5085400Y450500D01*
X5074499Y450500D01*
X5067200Y446900D01*
X5063599Y443299D01*
X5060000Y432399D01*
X5060000Y417800D01*
X5063599Y406900D01*
X5067200Y403299D01*
X5074499Y399600D01*
X5085400Y399600D01*
X5092700Y403299D01*
X5100000Y410500D01*
X5103599Y421500D01*
X5107200Y435999D01*
X5110900Y443299D01*
X5118199Y446900D01*
X5125400Y446900D01*
X5132700Y443299D01*
X5136300Y432399D01*
X5136300Y417800D01*
X5136300Y496399D02*
G01*
X5132700Y485500D01*
X5121800Y478200D01*
X5103599Y474499D01*
X5092700Y474499D01*
X5074499Y478200D01*
X5063599Y485500D01*
X5060000Y496399D01*
X5060000Y503600D01*
X5063599Y514499D01*
X5074499Y521799D01*
X5092700Y525500D01*
X5103599Y525500D01*
X5121800Y521799D01*
X5132700Y514499D01*
X5136300Y503600D01*
X5136300Y496399D01*
X2600000Y946300D02*
G01*
X2629099Y1022600D01*
X2658199Y946300D02*
G01*
X2629099Y1022600D01*
X2736700Y964499D02*
G01*
X2733100Y957199D01*
X2725799Y949899D01*
X2718500Y946300D01*
X2703999Y946300D01*
X2696700Y949899D01*
X2689499Y957199D01*
X2685799Y964499D01*
X2682200Y975399D01*
X2682200Y993499D01*
X2685799Y1004499D01*
X2689499Y1011700D01*
X2696700Y1019000D01*
X2703999Y1022600D01*
X2718500Y1022600D01*
X2725799Y1019000D01*
X2733100Y1011700D01*
X2736700Y1004499D01*
X2815299Y964499D02*
G01*
X2811599Y957199D01*
X2804399Y949899D01*
X2797100Y946300D01*
X2782500Y946300D01*
X2775299Y949899D01*
X2768000Y957199D01*
X2764399Y964499D01*
X2760699Y975399D01*
X2760699Y993499D01*
X2764399Y1004499D01*
X2768000Y1011700D01*
X2775299Y1019000D01*
X2782500Y1022600D01*
X2797100Y1022600D01*
X2804399Y1019000D01*
X2811599Y1011700D01*
X2815299Y1004499D01*
X2607299Y1048299D02*
G01*
X2647299Y1048299D01*
X2625500Y1077399D01*
X2636400Y1077399D01*
X2643599Y1080999D01*
X2647299Y1084600D01*
X2650900Y1095500D01*
X2650900Y1102800D01*
X2647299Y1113699D01*
X2640000Y1120999D01*
X2629099Y1124600D01*
X2618199Y1124600D01*
X2607299Y1120999D01*
X2603599Y1117399D01*
X2600000Y1110100D01*
X2674899Y1048299D02*
G01*
X2703999Y1124600D01*
X2733100Y1048299D02*
G01*
X2703999Y1124600D01*
X2775299Y1073699D02*
G01*
X2768000Y1077399D01*
X2760699Y1084600D01*
X2757100Y1095500D01*
X2757100Y1102800D01*
X2760699Y1113699D01*
X2768000Y1120999D01*
X2775299Y1124600D01*
X2786199Y1124600D01*
X2793500Y1120999D01*
X2800699Y1113699D01*
X2804399Y1102800D01*
X2804399Y1095500D01*
X2800699Y1084600D01*
X2793500Y1077399D01*
X2786199Y1073699D01*
X2775299Y1073699D01*
X2654499Y1168499D02*
G01*
X2650900Y1161199D01*
X2643599Y1153899D01*
X2636400Y1150300D01*
X2621800Y1150300D01*
X2614499Y1153899D01*
X2607299Y1161199D01*
X2603599Y1168499D01*
X2600000Y1179400D01*
X2600000Y1197500D01*
X2603599Y1208499D01*
X2607299Y1215700D01*
X2614499Y1223000D01*
X2621800Y1226599D01*
X2636400Y1226599D01*
X2643599Y1223000D01*
X2650900Y1215700D01*
X2654499Y1208499D01*
X2654499Y1197500D01*
X2636400Y1197500D02*
G01*
X2654499Y1197500D01*
X2678500Y1150300D02*
G01*
X2678500Y1226599D01*
X2678500Y1150300D02*
G01*
X2729499Y1226599D01*
X2729499Y1150300D02*
G01*
X2729499Y1226599D01*
X2753500Y1150300D02*
G01*
X2753500Y1226599D01*
X2753500Y1150300D02*
G01*
X2778900Y1150300D01*
X2789799Y1153899D01*
X2797100Y1161199D01*
X2800699Y1168499D01*
X2804399Y1179400D01*
X2804399Y1197500D01*
X2800699Y1208499D01*
X2797100Y1215700D01*
X2789799Y1223000D01*
X2778900Y1226599D01*
X2753500Y1226599D01*
X2650900Y1263200D02*
G01*
X2643599Y1255900D01*
X2632700Y1252300D01*
X2618199Y1252300D01*
X2607299Y1255900D01*
X2600000Y1263200D01*
X2600000Y1270500D01*
X2603599Y1277699D01*
X2607299Y1281399D01*
X2614499Y1285000D01*
X2636400Y1292300D01*
X2643599Y1295900D01*
X2647299Y1299499D01*
X2650900Y1306799D01*
X2650900Y1317699D01*
X2643599Y1325000D01*
X2632700Y1328600D01*
X2618199Y1328600D01*
X2607299Y1325000D01*
X2600000Y1317699D01*
X2729499Y1270500D02*
G01*
X2725799Y1263200D01*
X2718500Y1255900D01*
X2711300Y1252300D01*
X2696700Y1252300D01*
X2689499Y1255900D01*
X2682200Y1263200D01*
X2678500Y1270500D01*
X2674899Y1281399D01*
X2674899Y1299499D01*
X2678500Y1310500D01*
X2682200Y1317699D01*
X2689499Y1325000D01*
X2696700Y1328600D01*
X2711300Y1328600D01*
X2718500Y1325000D01*
X2725799Y1317699D01*
X2729499Y1310500D01*
X2753500Y1252300D02*
G01*
X2753500Y1328600D01*
X2753500Y1328600D02*
G01*
X2797100Y1328600D01*
X2650900Y1365199D02*
G01*
X2643599Y1357899D01*
X2632700Y1354299D01*
X2618199Y1354299D01*
X2607299Y1357899D01*
X2600000Y1365199D01*
X2600000Y1372500D01*
X2603599Y1379699D01*
X2607299Y1383400D01*
X2614499Y1386999D01*
X2636400Y1394299D01*
X2643599Y1397899D01*
X2647299Y1401500D01*
X2650900Y1408800D01*
X2650900Y1419699D01*
X2643599Y1426999D01*
X2632700Y1430599D01*
X2618199Y1430599D01*
X2607299Y1426999D01*
X2600000Y1419699D01*
X2674899Y1354299D02*
G01*
X2674899Y1430599D01*
X2674899Y1354299D02*
G01*
X2700399Y1354299D01*
X2711300Y1357899D01*
X2718500Y1365199D01*
X2722200Y1372500D01*
X2725799Y1383400D01*
X2725799Y1401500D01*
X2722200Y1412500D01*
X2718500Y1419699D01*
X2711300Y1426999D01*
X2700399Y1430599D01*
X2674899Y1430599D01*
X2778900Y1354299D02*
G01*
X2749799Y1430599D01*
X2778900Y1354299D02*
G01*
X2808000Y1430599D01*
X2760699Y1405199D02*
G01*
X2797100Y1405199D01*
X2600000Y1456300D02*
G01*
X2600000Y1532600D01*
X2600000Y1456300D02*
G01*
X2632700Y1456300D01*
X2643599Y1459899D01*
X2647299Y1463499D01*
X2650900Y1470799D01*
X2650900Y1478099D01*
X2647299Y1485399D01*
X2643599Y1489000D01*
X2632700Y1492600D01*
X2600000Y1492600D01*
X2625500Y1492600D02*
G01*
X2650900Y1532600D01*
X2674899Y1456300D02*
G01*
X2674899Y1532600D01*
X2674899Y1456300D02*
G01*
X2700399Y1456300D01*
X2711300Y1459899D01*
X2718500Y1467199D01*
X2722200Y1474499D01*
X2725799Y1485399D01*
X2725799Y1503499D01*
X2722200Y1514499D01*
X2718500Y1521700D01*
X2711300Y1529000D01*
X2700399Y1532600D01*
X2674899Y1532600D01*
X2749799Y1456300D02*
G01*
X2778900Y1492600D01*
X2778900Y1532600D01*
X2808000Y1456300D02*
G01*
X2778900Y1492600D01*
X3885900Y1605199D02*
G01*
X3878599Y1597899D01*
X3867700Y1594299D01*
X3853199Y1594299D01*
X3842299Y1597899D01*
X3835000Y1605199D01*
X3835000Y1612500D01*
X3838599Y1619699D01*
X3842299Y1623400D01*
X3849499Y1626999D01*
X3871400Y1634299D01*
X3878599Y1637899D01*
X3882299Y1641500D01*
X3885900Y1648800D01*
X3885900Y1659699D01*
X3878599Y1666999D01*
X3867700Y1670599D01*
X3853199Y1670599D01*
X3842299Y1666999D01*
X3835000Y1659699D01*
X3964499Y1612500D02*
G01*
X3960799Y1605199D01*
X3953500Y1597899D01*
X3946300Y1594299D01*
X3931700Y1594299D01*
X3924499Y1597899D01*
X3917200Y1605199D01*
X3913500Y1612500D01*
X3909899Y1623400D01*
X3909899Y1641500D01*
X3913500Y1652500D01*
X3917200Y1659699D01*
X3924499Y1666999D01*
X3931700Y1670599D01*
X3946300Y1670599D01*
X3953500Y1666999D01*
X3960799Y1659699D01*
X3964499Y1652500D01*
X3988500Y1594299D02*
G01*
X3988500Y1670599D01*
X3988500Y1594299D02*
G01*
X4013900Y1594299D01*
X4024799Y1597899D01*
X4032100Y1605199D01*
X4035699Y1612500D01*
X4039399Y1623400D01*
X4039399Y1641500D01*
X4035699Y1652500D01*
X4032100Y1659699D01*
X4024799Y1666999D01*
X4013900Y1670599D01*
X3988500Y1670599D01*
X4070600Y1594299D02*
G01*
X4110600Y1594299D01*
X4088800Y1623400D01*
X4099700Y1623400D01*
X4106999Y1626999D01*
X4110600Y1630599D01*
X4114300Y1641500D01*
X4114300Y1648800D01*
X4110600Y1659699D01*
X4103400Y1666999D01*
X4092500Y1670599D01*
X4081499Y1670599D01*
X4070600Y1666999D01*
X4066999Y1663400D01*
X4063400Y1656100D01*
X4160100Y1594299D02*
G01*
X4149200Y1597899D01*
X4141899Y1608800D01*
X4138299Y1626999D01*
X4138299Y1637899D01*
X4141899Y1656100D01*
X4149200Y1666999D01*
X4160100Y1670599D01*
X4167399Y1670599D01*
X4178299Y1666999D01*
X4185500Y1656100D01*
X4189200Y1637899D01*
X4189200Y1626999D01*
X4185500Y1608800D01*
X4178299Y1597899D01*
X4167399Y1594299D01*
X4160100Y1594299D01*
D42*
X338600Y480000D02*
G01*
X367300Y480000D01*
X338600Y480000D02*
G01*
X338600Y492300D01*
X340000Y496399D01*
X341399Y497699D01*
X344099Y499099D01*
X348200Y499099D01*
X350900Y497699D01*
X352300Y496399D01*
X353600Y492300D01*
X353600Y480000D01*
X338600Y514899D02*
G01*
X340000Y510799D01*
X342699Y509499D01*
X345500Y509499D01*
X348200Y510799D01*
X349499Y513499D01*
X350900Y519000D01*
X352300Y523099D01*
X355000Y525799D01*
X357699Y527199D01*
X361799Y527199D01*
X364499Y525799D01*
X365900Y524499D01*
X367300Y520399D01*
X367300Y514899D01*
X365900Y510799D01*
X364499Y509499D01*
X361799Y508099D01*
X357699Y508099D01*
X355000Y509499D01*
X352300Y512199D01*
X350900Y516300D01*
X349499Y521700D01*
X348200Y524499D01*
X345500Y525799D01*
X342699Y525799D01*
X340000Y524499D01*
X338600Y520399D01*
X338600Y514899D01*
X2238599Y480000D02*
G01*
X2267299Y480000D01*
X2238599Y480000D02*
G01*
X2238599Y492300D01*
X2240000Y496399D01*
X2241400Y497699D01*
X2244099Y499099D01*
X2248199Y499099D01*
X2250900Y497699D01*
X2252299Y496399D01*
X2253599Y492300D01*
X2253599Y480000D01*
X2248199Y525799D02*
G01*
X2252299Y524499D01*
X2255000Y521700D01*
X2256400Y517600D01*
X2256400Y516300D01*
X2255000Y512199D01*
X2252299Y509499D01*
X2248199Y508099D01*
X2246800Y508099D01*
X2242700Y509499D01*
X2240000Y512199D01*
X2238599Y516300D01*
X2238599Y517600D01*
X2240000Y521700D01*
X2242700Y524499D01*
X2248199Y525799D01*
X2255000Y525799D01*
X2261800Y524499D01*
X2265900Y521700D01*
X2267299Y517600D01*
X2267299Y514899D01*
X2265900Y510799D01*
X2263199Y509499D01*
X394099Y530000D02*
G01*
X392699Y532699D01*
X388600Y536799D01*
X417300Y536799D01*
X2297700Y530000D02*
G01*
X2296800Y531799D01*
X2294099Y534499D01*
X2313199Y534499D01*
X2198599Y530900D02*
G01*
X2197700Y530900D01*
X2195900Y531799D01*
X2195000Y532699D01*
X2194099Y534499D01*
X2194099Y538200D01*
X2195000Y540000D01*
X2195900Y540900D01*
X2197700Y541799D01*
X2199499Y541799D01*
X2201400Y540900D01*
X2204099Y539099D01*
X2213199Y530000D01*
X2213199Y542699D01*
X298600Y530900D02*
G01*
X297699Y530900D01*
X295900Y531799D01*
X295000Y532699D01*
X294099Y534499D01*
X294099Y538200D01*
X295000Y540000D01*
X295900Y540900D01*
X297699Y541799D01*
X299499Y541799D01*
X301399Y540900D01*
X304099Y539099D01*
X313200Y530000D01*
X313200Y542699D01*
X294099Y2889099D02*
G01*
X306799Y2880000D01*
X306799Y2893600D01*
X294099Y2889099D02*
G01*
X313200Y2889099D01*
X296799Y2910500D02*
G01*
X295000Y2909600D01*
X294099Y2906900D01*
X294099Y2905100D01*
X295000Y2902399D01*
X297699Y2900500D01*
X302300Y2899600D01*
X306799Y2899600D01*
X310500Y2900500D01*
X312300Y2902399D01*
X313200Y2905100D01*
X313200Y2905999D01*
X312300Y2908699D01*
X310500Y2910500D01*
X307699Y2911500D01*
X306799Y2911500D01*
X304099Y2910500D01*
X302300Y2908699D01*
X301399Y2905999D01*
X301399Y2905100D01*
X302300Y2902399D01*
X304099Y2900500D01*
X306799Y2899600D01*
X394099Y2889099D02*
G01*
X406799Y2880000D01*
X406799Y2893600D01*
X394099Y2889099D02*
G01*
X413200Y2889099D01*
X394099Y2910500D02*
G01*
X394099Y2901500D01*
X402300Y2900500D01*
X401399Y2901500D01*
X400500Y2904200D01*
X400500Y2906900D01*
X401399Y2909600D01*
X403200Y2911500D01*
X405900Y2912399D01*
X407699Y2912399D01*
X410500Y2911500D01*
X412300Y2909600D01*
X413200Y2906900D01*
X413200Y2904200D01*
X412300Y2901500D01*
X411399Y2900500D01*
X409499Y2899600D01*
X2294099Y2889099D02*
G01*
X2306800Y2880000D01*
X2306800Y2893600D01*
X2294099Y2889099D02*
G01*
X2313199Y2889099D01*
X2294099Y2910500D02*
G01*
X2294099Y2901500D01*
X2302299Y2900500D01*
X2301400Y2901500D01*
X2300500Y2904200D01*
X2300500Y2906900D01*
X2301400Y2909600D01*
X2303199Y2911500D01*
X2305900Y2912399D01*
X2307700Y2912399D01*
X2310500Y2911500D01*
X2312299Y2909600D01*
X2313199Y2906900D01*
X2313199Y2904200D01*
X2312299Y2901500D01*
X2311400Y2900500D01*
X2309499Y2899600D01*
X2194099Y2889099D02*
G01*
X2206800Y2880000D01*
X2206800Y2893600D01*
X2194099Y2889099D02*
G01*
X2213199Y2889099D01*
X2196800Y2910500D02*
G01*
X2195000Y2909600D01*
X2194099Y2906900D01*
X2194099Y2905100D01*
X2195000Y2902399D01*
X2197700Y2900500D01*
X2202299Y2899600D01*
X2206800Y2899600D01*
X2210500Y2900500D01*
X2212299Y2902399D01*
X2213199Y2905100D01*
X2213199Y2905999D01*
X2212299Y2908699D01*
X2210500Y2910500D01*
X2207700Y2911500D01*
X2206800Y2911500D01*
X2204099Y2910500D01*
X2202299Y2908699D01*
X2201400Y2905999D01*
X2201400Y2905100D01*
X2202299Y2902399D01*
X2204099Y2900500D01*
X2206800Y2899600D01*
D10*
X4965006Y2985000D02*
G01*
X4925006Y2985000D01*
X4945006Y3010000D02*
G01*
X4945006Y2960000D01*
X4010870Y2540003D02*
G01*
X4010870Y1914023D01*
X4440000Y1914023D01*
X4440000Y2540003D01*
X4010870Y2540003D01*
X5235000Y-50000D02*
G01*
X4485000Y-50000D01*
X4485000Y650000D01*
X5235000Y650000D01*
X5235000Y-50000D01*
X2425000Y730000D02*
G01*
X4425000Y730000D01*
X4425000Y1730000D01*
X2425000Y1730000D01*
X2425000Y730000D01*
X3920787Y1788465D02*
G01*
X3920787Y3166417D01*
X2424723Y3166417D01*
X2424723Y1788465D02*
G01*
X2424723Y3166415D01*
X2424723Y1788465D02*
G01*
X3920787Y1788465D01*
X2870000Y2005000D02*
G01*
X2870000Y2080000D01*
X2570000Y2080000D01*
X2570000Y1930000D01*
X2870000Y1930000D01*
X2870000Y2005000D01*
G75*
G01*
X4855000Y2875000D02*
G02*
X4859169Y2874183I10003J39999D01*
G75*
G01*
X4645000Y2915000D02*
G02*
X4645069Y2909867I216535J344D01*
G75*
G01
X4627680Y0D02*
G03X4627680Y0I-17680J0D01*
G75*
G01
X5234020Y1255000D02*
G03X5234020Y1255000I-374020J0D01*
G75*
G01
X5194650Y1255000D02*
G03X5194650Y1255000I-334650J0D01*
G75*
G01
X5015000Y1040000D02*
G03X5015000Y1040000I-15000J0D01*
G75*
G01
X5005000Y1040000D02*
G03X5005000Y1040000I-5000J0D01*
G75*
G01
X5191000Y2200000D02*
G03X5191000Y2200000I-331000J0D01*
G75*
G01
X5145430Y2200000D02*
G03X5145430Y2200000I-285430J0D01*
G75*
G01
X4760000Y2405000D02*
G03X4760000Y2405000I-5000J0D01*
G75*
G01
X4770000Y2405000D02*
G03X4770000Y2405000I-15000J0D01*
M02*
