M48
INCH,LZ
;FILE_FORMAT=2:4
;TYPE=PLATED
;Layer: Drill PTH
;EasyEDA v6.4.25, 2021-11-15T20:25:19--5:00
;f133b9dff01e4a4db271285c1a4d3a4a,c6d70c2b7c21449b8329efc8d1611fca,10
;Gerber Generator version 0.2
;Holesize 1 = 0.0120 inch
T01C0.0120
;Holesize 2 = 0.0200 inch
T02C0.0200
;Holesize 3 = 0.0280 inch
T03C0.0280
;Holesize 4 = 0.0280 inch
T04C0.0280
;Holesize 5 = 0.0350 inch
T05C0.0350
;Holesize 6 = 0.0360 inch
T06C0.0360
;Holesize 7 = 0.0400 inch
T07C0.0400
;Holesize 8 = 0.0400 inch
T08C0.0400
;Holesize 9 = 0.0470 inch
T09C0.0470
;Holesize 10 = 0.0590 inch
T10C0.0590
;Holesize 11 = 0.1000 inch
T11C0.1000
%
G05
G90
T01
X026350Y015650
X040150Y026450
X047400Y026900
X048000Y026450
X050200Y027050
X044550Y030150
X045050Y015950
X048100Y017350
X048900Y016550
X034500Y008300
X035600Y008800
X036650Y009150
X025850Y018600
X029350Y019200
X021100Y018850
X029200Y017850
X028750Y017500
X023627Y011328
X023627Y010277
X025908Y010878
X027908Y010878
X029908Y010878
X031908Y010878
X033908Y008878
X018422Y015828
X018422Y013828
X018422Y011828
X018422Y009828
X020422Y017828
X020422Y015828
X020422Y013828
X020422Y011828
X020422Y009828
X001422Y030578
X001422Y028578
X001422Y026578
X001422Y024578
X001422Y022578
X001422Y020578
X001422Y018578
X001422Y016578
X001422Y014578
X001422Y012578
X001422Y010578
X001422Y008578
X001422Y006578
X003422Y032578
X003422Y030578
X003422Y028578
X005422Y032578
X005422Y030578
X005422Y028578
X005422Y026578
X005422Y024578
X005422Y022578
X005422Y020578
X005422Y018578
X005422Y016578
X005422Y014578
X005422Y012578
X005422Y010578
X005422Y008578
X005422Y006578
X007422Y032578
X007422Y030578
X007422Y028578
X007422Y026578
X007422Y024578
X007422Y022578
X007422Y020578
X007422Y018578
X007422Y016578
X007422Y014578
X007422Y012578
X007422Y010578
X007422Y008578
X009422Y032578
X009422Y030578
X009422Y028578
X009422Y026578
X009422Y024578
X009422Y022578
X009422Y020578
X009422Y018578
X009422Y016578
X009422Y014578
X009422Y012578
X009422Y010578
X009422Y008578
X011422Y032578
X011422Y030578
X011422Y028578
X011422Y026578
X011422Y024578
X011422Y022578
X011422Y020578
X011422Y018578
X011422Y016578
X011422Y014578
X011422Y012578
X011422Y010578
X011422Y008578
X013422Y032578
X013422Y030578
X013422Y028578
X013422Y026578
X013422Y024578
X013422Y022578
X013422Y020578
X013422Y018578
X013422Y016578
X013422Y014578
X013422Y012578
X013422Y010578
X013422Y008578
X015422Y032578
X015422Y030578
X015422Y028578
X015422Y026578
X015422Y024578
X015422Y022578
X015422Y020578
X015422Y018578
X015422Y016578
X015422Y014578
X015422Y012578
X015422Y010578
X015422Y008578
X017422Y032578
X017422Y030578
X017422Y028578
X017422Y026578
X017422Y024578
X017422Y022578
X017422Y020578
X017422Y018578
X017422Y016578
X017422Y014578
X017422Y012578
X017422Y010578
X017422Y008578
X019422Y032578
X021422Y030578
X023422Y030578
X023422Y028578
X023422Y004578
X025422Y030578
X025422Y028578
X025422Y022578
X025422Y020578
X025422Y004578
X025422Y002578
X025422Y000578
X027422Y030578
X027422Y028578
X027422Y014578
X027422Y008578
X029422Y030578
X029422Y028578
X029422Y022578
X029422Y018578
X029422Y016578
X029422Y014578
X029422Y008578
X029422Y006578
X029422Y004578
X029422Y002578
X029422Y000578
X031422Y030578
X031422Y028578
X031422Y022578
X031422Y020578
X031422Y018578
X031422Y016578
X031422Y014578
X031422Y004578
X031422Y002578
X031422Y000578
X033422Y030578
X033422Y028578
X033422Y020578
X033422Y018578
X033422Y016578
X033422Y014578
X033422Y004578
X033422Y002578
X033422Y000578
X035422Y030578
X035422Y028578
X035422Y018578
X035422Y016578
X035422Y014578
X035422Y004578
X035422Y002578
X035422Y000578
X037422Y030578
X037422Y028578
X037422Y018578
X037422Y016578
X037422Y014578
X037422Y012578
X037422Y004578
X037422Y002578
X037422Y000578
X039422Y030578
X039422Y028578
X039422Y018578
X039422Y016578
X039422Y014578
X039422Y012578
X039422Y010578
X039422Y004578
X039422Y002578
X039422Y000578
X041422Y030578
X041422Y028578
X041422Y018578
X041422Y016578
X041422Y014578
X041422Y012578
X041422Y010578
X041422Y008578
X041422Y004578
X041422Y002578
X041422Y000578
X043422Y018578
X043422Y014578
X043422Y012578
X043422Y010578
X043422Y004578
X043422Y002578
X043422Y000578
X045422Y028578
X045422Y018578
X045422Y014578
X045422Y012578
X045422Y010578
X045422Y008578
X045422Y-001422
X047422Y030578
X047422Y028578
X047422Y026578
X047422Y024578
X047422Y018578
X047422Y016578
X047422Y008578
X047422Y006578
X047422Y004578
X047422Y002578
X047422Y000578
X047422Y-001422
X049422Y030578
X049422Y028578
X049422Y026578
X049422Y024578
X049422Y014578
X049422Y010578
X049422Y008578
X049422Y006578
X049422Y004578
X049422Y002578
X049422Y000578
X049422Y-001422
X051422Y030578
X051422Y020578
X051422Y018578
X051422Y016578
X051422Y012578
X051422Y010578
X051422Y008578
X051422Y006578
X051422Y004578
X051422Y002578
X051422Y000578
X051422Y-001422
T02
X045100Y030550
X050450Y026300
X041150Y026500
X035550Y024050
X038700Y024000
X036150Y024600
X019300Y008250
X034950Y025000
X045750Y016050
T03
X050250Y029150
X047050Y029150
T04
X026200Y019800
X026700Y019800
X027200Y019800
X027700Y019800
X028200Y019800
X026200Y020300
X026700Y020300
X027200Y020300
X027700Y020300
X028200Y020300
T05
X045350Y000000
X045350Y001000
X045350Y002000
X045350Y003000
X045350Y004000
X045350Y005000
X045350Y006000
T06
X025200Y009850
X025200Y010850
X025200Y011850
X025200Y012850
X025200Y013850
X025200Y014850
X041670Y-001700
X040670Y-001700
X039670Y-001700
X038670Y-001700
X037670Y-001700
X036670Y-001700
X035670Y-001700
X034670Y-001700
X033670Y-001700
X032670Y-001700
X031670Y-001700
X030670Y-001700
X029670Y-001700
X028670Y-001700
X027670Y-001700
X026670Y-001700
X041670Y006300
X040670Y006300
X039670Y006300
X038670Y006300
X037670Y006300
X036670Y006300
X035670Y006300
X034670Y006300
X033670Y006300
X032670Y006300
X031670Y006300
X030670Y006300
T07
X040758Y024758
X043750Y024758
X040758Y023758
X043750Y023758
X043750Y019782
T08
X023050Y005800
X022050Y005800
X023050Y006800
X022050Y006800
X023050Y007800
X022050Y007800
X023050Y008800
X022050Y008800
X023050Y009800
X022050Y009800
X023050Y010800
X022050Y010800
X023050Y011800
X022050Y011800
X023050Y012800
X022050Y012800
X023050Y013800
X022050Y013800
X023050Y014800
X022050Y014800
X023050Y015800
X022050Y015800
X023050Y016800
X022050Y016800
X023050Y017800
X022050Y017800
X023050Y018800
X022050Y018800
X023050Y019800
X022050Y019800
X023050Y020800
X022050Y020800
X023050Y021800
X022050Y021800
X023050Y022800
X022050Y022800
X023050Y023800
X022050Y023800
X023050Y024800
X022050Y024800
X023050Y025800
X022050Y025800
X023050Y026800
X022050Y026800
X023050Y027800
X022050Y027800
X004050Y005800
X003050Y005800
X004050Y006800
X003050Y006800
X004050Y007800
X003050Y007800
X004050Y008800
X003050Y008800
X004050Y009800
X003050Y009800
X004050Y010800
X003050Y010800
X004050Y011800
X003050Y011800
X004050Y012800
X003050Y012800
X004050Y013800
X003050Y013800
X004050Y014800
X003050Y014800
X004050Y015800
X003050Y015800
X004050Y016800
X003050Y016800
X004050Y017800
X003050Y017800
X004050Y018800
X003050Y018800
X004050Y019800
X003050Y019800
X004050Y020800
X003050Y020800
X004050Y021800
X003050Y021800
X004050Y022800
X003050Y022800
X004050Y023800
X003050Y023800
X004050Y024800
X003050Y024800
X004050Y025800
X003050Y025800
X004050Y026800
X003050Y026800
X004050Y027800
X003050Y027800
T09
X046730Y022000
X050470Y022000
X047280Y020680
X047280Y023320
X049920Y023320
X049920Y020680
T10
X046730Y012550
X050470Y012550
X047280Y013870
X049920Y013870
X047280Y011230
X049920Y011230
T11
X025200Y008300
X025200Y016300
X043250Y008300
X043200Y016300
M30
